<?xml version="1.0" encoding="UTF-8" standalone="no"?>
<!-- Created with Inkscape (http://www.inkscape.org/) -->

<svg
   width="100"
   height="100"
   viewBox="0 0 26.458333 26.458333"
   version="1.1"
   id="svg2048"
   inkscape:version="1.2.2 (b0a8486541, 2022-12-01)"
   sodipodi:docname="alanine-atom-features.svg"
   xmlns:inkscape="http://www.inkscape.org/namespaces/inkscape"
   xmlns:sodipodi="http://sodipodi.sourceforge.net/DTD/sodipodi-0.dtd"
   xmlns="http://www.w3.org/2000/svg"
   xmlns:svg="http://www.w3.org/2000/svg">
  <sodipodi:namedview
     id="namedview2050"
     pagecolor="#ffffff"
     bordercolor="#666666"
     borderopacity="1.0"
     inkscape:showpageshadow="2"
     inkscape:pageopacity="0.0"
     inkscape:pagecheckerboard="0"
     inkscape:deskcolor="#d1d1d1"
     inkscape:document-units="mm"
     showgrid="false"
     showguides="true"
     inkscape:zoom="6.23626"
     inkscape:cx="44.818529"
     inkscape:cy="50.59122"
     inkscape:window-width="2346"
     inkscape:window-height="1322"
     inkscape:window-x="0"
     inkscape:window-y="0"
     inkscape:window-maximized="1"
     inkscape:current-layer="layer1">
    <sodipodi:guide
       position="-4.2784241,23.539313"
       orientation="0,-1"
       id="guide1693"
       inkscape:locked="false" />
  </sodipodi:namedview>
  <defs
     id="defs2045" />
  <g
     inkscape:label="Layer 1"
     inkscape:groupmode="layer"
     id="layer1">
    <path
       style="color:#000000;fill:#000000;-inkscape-stroke:none"
       d="M 0,2.9179688 V 26.458984 H 2.2070313 V 26.199219 H 0.26171875 V 3.1777344 H 2.2070313 V 2.9179688 Z"
       id="path2595" />
    <path
       style="color:#000000;fill:#000000;-inkscape-stroke:none"
       d="m 24.253906,2.9179688 v 0.2597656 h 1.94336 V 26.199219 h -1.94336 v 0.259765 h 2.203125 V 2.9179688 Z"
       id="path2695" />
    <text
       xml:space="preserve"
       style="font-style:normal;font-variant:normal;font-weight:normal;font-stretch:normal;font-size:1.41111px;line-height:1.25;font-family:'Victor Mono';-inkscape-font-specification:'Victor Mono';fill:#000000;fill-opacity:1;stroke-width:0.264583"
       x="3.034035"
       y="3.3561399"
       id="text3108"><tspan
         sodipodi:role="line"
         id="tspan3106"
         style="font-style:normal;font-variant:normal;font-weight:normal;font-stretch:normal;font-family:'Victor Mono';-inkscape-font-specification:'Victor Mono';fill:#000000;fill-opacity:1;stroke-width:0.264583"
         x="3.034035"
         y="3.3561399" /></text>
    <g
       aria-label="H? C? N? O? sp3? sp2?"
       id="text3422"
       style="font-size:2.11667px;fill:#aaaaaa;stroke-width:0.264583">
      <path
         d="M 1.927122,1.4970629 H 1.4133485 V 0.8736074 H 1.1920603 V 2.4130037 H 1.4133485 V 1.7010329 H 1.927122 V 2.4130037 H 2.1484102 V 0.8736074 H 1.927122 Z"
         style="-inkscape-font-specification:'Victor Mono'"
         id="path17409" />
      <path
         d="m 2.9335013,1.9588818 c 0,-0.2713186 0.3963945,-0.1635609 0.3963945,-0.6773344 0,-0.32134896 -0.1346972,-0.43487944 -0.5080008,-0.43487944 -0.3906218,0 -0.517622,0.1270002 -0.502228,0.49260684 H 2.5409552 C 2.5294097,1.1064411 2.5736674,1.050638 2.821895,1.050638 c 0.2309095,0 0.2867126,0.044258 0.2867126,0.2309094 0,0.4137128 -0.3963946,0.1731821 -0.3963946,0.6773344 z m -0.109682,0.4810613 c 0.1327729,0 0.1751063,-0.040409 0.1751063,-0.1616366 0,-0.1231517 -0.042333,-0.1635608 -0.1751063,-0.1635608 -0.1327729,0 -0.1751063,0.040409 -0.1751063,0.1635608 0,0.1212275 0.042333,0.1616366 0.1751063,0.1616366 z"
         style="-inkscape-font-specification:'Victor Mono'"
         id="path17411" />
      <path
         d="m 5.1617751,2.4399431 c 0.2770914,0 0.3963946,-0.1039092 0.4791371,-0.400243 L 5.4311695,1.968503 c -0.0635,0.2174397 -0.109682,0.2674701 -0.2693944,0.2674701 -0.2309094,0 -0.3040307,-0.1404699 -0.3040307,-0.5945918 0,-0.4521977 0.073121,-0.5907433 0.3040307,-0.5907433 0.1597124,0 0.2058943,0.051955 0.2693944,0.2732428 L 5.6409122,1.2507595 C 5.5581697,0.95250146 5.4369422,0.84666796 5.1617751,0.84666796 c -0.3944703,0 -0.525319,0.22128824 -0.525319,0.79471334 0,0.5753494 0.1308487,0.7985618 0.525319,0.7985618 z"
         style="-inkscape-font-specification:'Victor Mono'"
         id="path17413" />
      <path
         d="m 6.3971397,1.9588818 c 0,-0.2713186 0.3963945,-0.1635609 0.3963945,-0.6773344 0,-0.32134896 -0.1346971,-0.43487944 -0.5080007,-0.43487944 -0.3906218,0 -0.517622,0.1270002 -0.5022281,0.49260684 H 6.0045936 C 5.9930482,1.1064411 6.0373058,1.050638 6.2855335,1.050638 c 0.2309094,0 0.2867125,0.044258 0.2867125,0.2309094 0,0.4137128 -0.3963945,0.1731821 -0.3963945,0.6773344 z m -0.109682,0.4810613 c 0.1327729,0 0.1751063,-0.040409 0.1751063,-0.1616366 0,-0.1231517 -0.042333,-0.1635608 -0.1751063,-0.1635608 -0.1327729,0 -0.1751063,0.040409 -0.1751063,0.1635608 0,0.1212275 0.042333,0.1616366 0.1751063,0.1616366 z"
         style="-inkscape-font-specification:'Victor Mono'"
         id="path17415" />
      <path
         d="M 8.8505501,1.9357908 8.3579433,0.8736074 H 8.1212611 v 1.5393963 h 0.2232125 v -1.058335 l 0.4906826,1.058335 H 9.0718384 V 0.8736074 H 8.8505501 Z"
         style="-inkscape-font-specification:'Victor Mono'"
         id="path17417" />
      <path
         d="m 9.8607785,1.9588818 c 0,-0.2713186 0.3963945,-0.1635609 0.3963945,-0.6773344 0,-0.32134896 -0.134697,-0.43487944 -0.5080008,-0.43487944 -0.3906218,0 -0.517622,0.1270002 -0.502228,0.49260684 H 9.4682324 C 9.4566869,1.1064411 9.5009446,1.050638 9.7491722,1.050638 c 0.2309095,0 0.2867128,0.044258 0.2867128,0.2309094 0,0.4137128 -0.3963947,0.1731821 -0.3963947,0.6773344 z m -0.109682,0.4810613 c 0.1327729,0 0.1751063,-0.040409 0.1751063,-0.1616366 0,-0.1231517 -0.042333,-0.1635608 -0.1751063,-0.1635608 -0.1327729,0 -0.1751063,0.040409 -0.1751063,0.1635608 0,0.1212275 0.042333,0.1616366 0.1751063,0.1616366 z"
         style="-inkscape-font-specification:'Victor Mono'"
         id="path17419" />
      <path
         d="m 12.060188,2.4399431 c 0.382925,0 0.511849,-0.20397 0.511849,-0.7196677 V 1.5663357 c 0,-0.5156977 -0.128924,-0.71966774 -0.511849,-0.71966774 -0.382925,0 -0.509925,0.20397004 -0.509925,0.71966774 v 0.1539397 c 0,0.5156977 0.127,0.7196677 0.509925,0.7196677 z m 0,-0.20397 c -0.221288,0 -0.290561,-0.1212274 -0.288637,-0.5156977 V 1.5663357 c 0,-0.3944703 0.0635,-0.5156977 0.288637,-0.5156977 0.223213,0 0.288637,0.1212274 0.288637,0.5156977 v 0.1539397 c 0,0.3944703 -0.06542,0.5156977 -0.288637,0.5156977 z"
         style="-inkscape-font-specification:'Victor Mono'"
         id="path17421" />
      <path
         d="m 13.324417,1.9588818 c 0,-0.2713186 0.396394,-0.1635609 0.396394,-0.6773344 0,-0.32134896 -0.134697,-0.43487944 -0.508,-0.43487944 -0.390622,0 -0.517622,0.1270002 -0.502228,0.49260684 h 0.221288 c -0.01155,-0.2328337 0.03271,-0.2886368 0.28094,-0.2886368 0.230909,0 0.286712,0.044258 0.286712,0.2309094 0,0.4137128 -0.396394,0.1731821 -0.396394,0.6773344 z m -0.109682,0.4810613 c 0.132773,0 0.175106,-0.040409 0.175106,-0.1616366 0,-0.1231517 -0.04233,-0.1635608 -0.175106,-0.1635608 -0.132773,0 -0.175107,0.040409 -0.175107,0.1635608 0,0.1212275 0.04233,0.1616366 0.175107,0.1616366 z"
         style="-inkscape-font-specification:'Victor Mono'"
         id="path17423" />
      <path
         d="m 15.47572,2.4399431 c 0.394471,0 0.540713,-0.1058335 0.540713,-0.3733036 0,-0.2578489 -0.125076,-0.3328944 -0.475288,-0.3829248 -0.169334,-0.023091 -0.234758,-0.036561 -0.234758,-0.1289244 0,-0.1193033 0.04811,-0.1539397 0.265545,-0.1539397 0.159713,0 0.196274,0.034636 0.273243,0.1808791 l 0.161637,-0.1577881 c -0.101985,-0.1693336 -0.207819,-0.227061 -0.43488,-0.227061 -0.355985,0 -0.486834,0.101985 -0.486834,0.3579097 0,0.2212882 0.144319,0.3001822 0.440653,0.3367429 0.221288,0.028864 0.26747,0.042333 0.26747,0.1751063 0,0.1289245 -0.0558,0.1693336 -0.317501,0.1693336 -0.14047,0 -0.175106,-0.038485 -0.246303,-0.2020458 L 15.05431,2.1782457 c 0.100061,0.1924246 0.205895,0.2616974 0.42141,0.2616974 z"
         style="-inkscape-font-specification:'Victor Mono'"
         id="path17425" />
      <path
         d="M 16.435918,2.7632163 V 2.3937612 c 0.06927,0.026939 0.152016,0.046182 0.255925,0.046182 0.355985,0 0.477213,-0.180879 0.477213,-0.6234555 0,-0.4406522 -0.121228,-0.619607 -0.477213,-0.619607 -0.105834,0 -0.188576,0.015394 -0.255925,0.038485 v -0.011545 h -0.223212 v 1.5393962 z m 0.255925,-0.5272432 c -0.186652,0 -0.255925,-0.088515 -0.255925,-0.2693943 V 1.5124569 c 0,-0.065424 0.06927,-0.1116063 0.255925,-0.1116063 0.196273,0 0.255924,0.096212 0.255924,0.415637 0,0.321349 -0.05965,0.4194855 -0.255924,0.4194855 z"
         style="-inkscape-font-specification:'Victor Mono'"
         id="path17427" />
      <path
         d="m 17.83292,1.5932752 c 0.357909,0 0.48491,-0.1289245 0.48491,-0.4579704 0,-0.20974277 -0.03656,-0.30210654 -0.134698,-0.38292485 C 18.281269,0.67733438 18.31783,0.6061373 18.31783,0.43103098 18.31783,0.12122747 18.186981,1.6689301e-8 17.83292,1.6689301e-8 17.455768,1.6689301e-8 17.34801,0.11930323 17.34801,0.46374315 h 0.225137 c 0,-0.21166699 0.02117,-0.25977313 0.259773,-0.25977313 0.211667,0 0.263621,0.0500304 0.263621,0.22706096 0,0.19050029 -0.04426,0.20589425 -0.227061,0.21936397 h -0.194348 v 0.20397001 h 0.194348 c 0.178955,0.0134697 0.227061,0.0461819 0.227061,0.28093984 0,0.1981972 -0.05388,0.2540004 -0.263621,0.2540004 -0.232834,0 -0.261698,-0.053879 -0.261698,-0.2616974 H 17.34801 c 0,0.3367429 0.109682,0.4656674 0.48491,0.4656674 z"
         id="path17429" />
      <path
         d="m 19.097147,1.9588818 c 0,-0.2713186 0.396394,-0.1635609 0.396394,-0.6773344 0,-0.32134896 -0.134697,-0.43487944 -0.508001,-0.43487944 -0.390621,0 -0.517622,0.1270002 -0.502228,0.49260684 h 0.221289 c -0.01155,-0.2328337 0.03271,-0.2886368 0.280939,-0.2886368 0.23091,0 0.286713,0.044258 0.286713,0.2309094 0,0.4137128 -0.396395,0.1731821 -0.396395,0.6773344 z m -0.109682,0.4810613 c 0.132773,0 0.175106,-0.040409 0.175106,-0.1616366 0,-0.1231517 -0.04233,-0.1635608 -0.175106,-0.1635608 -0.132773,0 -0.175107,0.040409 -0.175107,0.1635608 0,0.1212275 0.04233,0.1616366 0.175107,0.1616366 z"
         style="-inkscape-font-specification:'Victor Mono'"
         id="path17431" />
      <path
         d="m 21.248452,2.4399431 c 0.39447,0 0.540713,-0.1058335 0.540713,-0.3733036 0,-0.2578489 -0.125076,-0.3328944 -0.475289,-0.3829248 -0.169333,-0.023091 -0.234758,-0.036561 -0.234758,-0.1289244 0,-0.1193033 0.04811,-0.1539397 0.265546,-0.1539397 0.159713,0 0.196273,0.034636 0.273243,0.1808791 l 0.161637,-0.1577881 c -0.101985,-0.1693336 -0.207819,-0.227061 -0.43488,-0.227061 -0.355985,0 -0.486834,0.101985 -0.486834,0.3579097 0,0.2212882 0.144319,0.3001822 0.440652,0.3367429 0.221289,0.028864 0.26747,0.042333 0.26747,0.1751063 0,0.1289245 -0.0558,0.1693336 -0.3175,0.1693336 -0.14047,0 -0.175106,-0.038485 -0.246303,-0.2020458 l -0.175107,0.1443184 c 0.100061,0.1924246 0.205895,0.2616974 0.42141,0.2616974 z"
         style="-inkscape-font-specification:'Victor Mono'"
         id="path17433" />
      <path
         d="M 22.208648,2.7632163 V 2.3937612 c 0.06927,0.026939 0.152015,0.046182 0.255925,0.046182 0.355985,0 0.477213,-0.180879 0.477213,-0.6234555 0,-0.4406522 -0.121228,-0.619607 -0.477213,-0.619607 -0.105834,0 -0.188576,0.015394 -0.255925,0.038485 v -0.011545 h -0.223212 v 1.5393962 z m 0.255925,-0.5272432 c -0.186652,0 -0.255925,-0.088515 -0.255925,-0.2693943 V 1.5124569 c 0,-0.065424 0.06927,-0.1116063 0.255925,-0.1116063 0.196273,0 0.255924,0.096212 0.255924,0.415637 0,0.321349 -0.05965,0.4194855 -0.255924,0.4194855 z"
         style="-inkscape-font-specification:'Victor Mono'"
         id="path17435" />
      <path
         d="m 24.107878,1.5663357 v -0.20397 h -0.77932 C 23.424771,1.1160623 24.111726,0.91401656 24.111726,0.43487947 24.111726,0.11353049 23.977029,1.6689301e-8 23.603725,1.6689301e-8 23.213104,1.6689301e-8 23.086103,0.12700021 23.101497,0.49260683 h 0.221289 c -0.01155,-0.23283369 0.03271,-0.28863681 0.280939,-0.28863681 0.23091,0 0.286713,0.0442577 0.286713,0.23090945 0,0.38677331 -0.788941,0.55225842 -0.788941,0.98521363 v 0.1462426 z"
         id="path17437" />
      <path
         d="m 24.869878,1.9588818 c 0,-0.2713186 0.396395,-0.1635609 0.396395,-0.6773344 0,-0.32134896 -0.134697,-0.43487944 -0.508001,-0.43487944 -0.390622,0 -0.517622,0.1270002 -0.502228,0.49260684 h 0.221288 c -0.01155,-0.2328337 0.03271,-0.2886368 0.28094,-0.2886368 0.23091,0 0.286713,0.044258 0.286713,0.2309094 0,0.4137128 -0.396395,0.1731821 -0.396395,0.6773344 z m -0.109682,0.4810613 c 0.132773,0 0.175107,-0.040409 0.175107,-0.1616366 0,-0.1231517 -0.04233,-0.1635608 -0.175107,-0.1635608 -0.132772,0 -0.175106,0.040409 -0.175106,0.1635608 0,0.1212275 0.04233,0.1616366 0.175106,0.1616366 z"
         style="-inkscape-font-specification:'Victor Mono'"
         id="path17439" />
    </g>
    <g
       aria-label=".      . "
       id="text3534"
       style="font-size:2.11667px;stroke-width:0.264583">
      <path
         d="m 2.3985653,15.01957 c 0.101985,0 0.1327729,-0.02886 0.1327729,-0.125076 0,-0.09621 -0.030788,-0.125076 -0.1327729,-0.125076 -0.101985,0 -0.1327729,0.02886 -0.1327729,0.125076 0,0.09621 0.030788,0.125076 0.1327729,0.125076 z"
         style="-inkscape-font-specification:'Victor Mono'"
         id="path17474" />
      <path
         d="m 10.480389,15.01957 c 0.101985,0 0.132773,-0.02886 0.132773,-0.125076 0,-0.09621 -0.03079,-0.125076 -0.132773,-0.125076 -0.101985,0 -0.132773,0.02886 -0.132773,0.125076 0,0.09621 0.03079,0.125076 0.132773,0.125076 z"
         style="-inkscape-font-specification:'Victor Mono'"
         id="path17476" />
    </g>
    <g
       aria-label=".                  . "
       id="text3540"
       style="font-size:2.11667px;stroke-width:0.264583">
      <path
         d="m 2.3985653,25.557594 c 0.101985,0 0.1327729,-0.02886 0.1327729,-0.125076 0,-0.09621 -0.030788,-0.125076 -0.1327729,-0.125076 -0.101985,0 -0.1327729,0.02886 -0.1327729,0.125076 0,0.09621 0.030788,0.125076 0.1327729,0.125076 z"
         style="-inkscape-font-specification:'Victor Mono'"
         id="path17483" />
      <path
         d="m 24.334942,25.557594 c 0.101985,0 0.132773,-0.02886 0.132773,-0.125076 0,-0.09621 -0.03079,-0.125076 -0.132773,-0.125076 -0.101985,0 -0.132773,0.02886 -0.132773,0.125076 0,0.09621 0.03079,0.125076 0.132773,0.125076 z"
         style="-inkscape-font-specification:'Victor Mono'"
         id="path17485" />
    </g>
    <g
       aria-label=".         . "
       id="text1792"
       style="font-size:2.11667px;stroke-width:0.264583">
      <path
         d="m 2.3985653,17.654076 c 0.101985,0 0.1327729,-0.02886 0.1327729,-0.125076 0,-0.09621 -0.030788,-0.125076 -0.1327729,-0.125076 -0.101985,0 -0.1327729,0.02886 -0.1327729,0.125076 0,0.09621 0.030788,0.125076 0.1327729,0.125076 z"
         style="-inkscape-font-specification:'Victor Mono'"
         id="path17492" />
      <path
         d="m 13.944027,17.654076 c 0.101985,0 0.132773,-0.02886 0.132773,-0.125076 0,-0.09621 -0.03079,-0.125076 -0.132773,-0.125076 -0.101985,0 -0.132773,0.02886 -0.132773,0.125076 0,0.09621 0.03079,0.125076 0.132773,0.125076 z"
         style="-inkscape-font-specification:'Victor Mono'"
         id="path17494" />
    </g>
    <g
       aria-label=".            . "
       id="text1798"
       style="font-size:2.11667px;stroke-width:0.264583">
      <path
         d="m 2.3985653,20.288582 c 0.101985,0 0.1327729,-0.02886 0.1327729,-0.125076 0,-0.09621 -0.030788,-0.125076 -0.1327729,-0.125076 -0.101985,0 -0.1327729,0.02886 -0.1327729,0.125076 0,0.09621 0.030788,0.125076 0.1327729,0.125076 z"
         style="-inkscape-font-specification:'Victor Mono'"
         id="path17501" />
      <path
         d="m 17.407665,20.288582 c 0.101985,0 0.132773,-0.02886 0.132773,-0.125076 0,-0.09621 -0.03079,-0.125076 -0.132773,-0.125076 -0.101985,0 -0.132773,0.02886 -0.132773,0.125076 0,0.09621 0.03079,0.125076 0.132773,0.125076 z"
         style="-inkscape-font-specification:'Victor Mono'"
         id="path17503" />
    </g>
    <g
       aria-label=".               . "
       id="text1804"
       style="font-size:2.11667px;stroke-width:0.264583">
      <path
         d="m 2.3985653,22.923088 c 0.101985,0 0.1327729,-0.02886 0.1327729,-0.125076 0,-0.09621 -0.030788,-0.125076 -0.1327729,-0.125076 -0.101985,0 -0.1327729,0.02886 -0.1327729,0.125076 0,0.09621 0.030788,0.125076 0.1327729,0.125076 z"
         style="-inkscape-font-specification:'Victor Mono'"
         id="path17510" />
      <path
         d="m 20.871304,22.923088 c 0.101985,0 0.132772,-0.02886 0.132772,-0.125076 0,-0.09621 -0.03079,-0.125076 -0.132772,-0.125076 -0.101985,0 -0.132773,0.02886 -0.132773,0.125076 0,0.09621 0.03079,0.125076 0.132773,0.125076 z"
         style="-inkscape-font-specification:'Victor Mono'"
         id="path17512" />
    </g>
    <g
       aria-label="1  0  0  0    0    0"
       id="text981"
       style="font-size:2.11667px;fill:#aaaaaa;stroke-width:0.264583">
      <path
         d="M 2.2831071,3.5867724 H 2.14841 c 0,0.1885761 -0.117379,0.3021066 -0.3098035,0.3021066 v 0.1231517 c 0.1289244,0 0.2347579,-0.038485 0.3117277,-0.1058335 V 5.0049413 H 1.8770914 V 5.1261687 H 2.55635 V 5.0049413 H 2.2831071 Z"
         style="-inkscape-font-specification:'Victor Mono';fill:#000000"
         id="path17519" />
      <path
         d="m 5.6793969,5.1531082 c 0.2616973,0 0.4675916,-0.3251975 0.4675916,-0.7966376 0,-0.4714401 -0.2058943,-0.7966376 -0.4675916,-0.7966376 -0.2616974,0 -0.4656674,0.3251975 -0.4656674,0.7966376 0,0.4714401 0.20397,0.7966376 0.4656674,0.7966376 z m 0,-0.1212275 c -0.1789549,0 -0.3328945,-0.2770913 -0.3328945,-0.6754101 0,-0.3983188 0.1539396,-0.6754101 0.3328945,-0.6754101 0.1789548,0 0.3348187,0.2770913 0.3348187,0.6754101 0,0.3983188 -0.1558639,0.6754101 -0.3348187,0.6754101 z m 0,-0.5676524 c 0.067349,0 0.1154547,-0.044258 0.1154547,-0.1077577 0,-0.061576 -0.048106,-0.1039093 -0.1154547,-0.1039093 -0.067349,0 -0.1135305,0.042333 -0.1135305,0.1039093 0,0.0635 0.046182,0.1077577 0.1135305,0.1077577 z"
         style="-inkscape-font-specification:'Victor Mono';fill:#000000"
         id="path17521" />
      <path
         d="m 9.1430352,5.1531082 c 0.2616973,0 0.4675916,-0.3251975 0.4675916,-0.7966376 0,-0.4714401 -0.2058943,-0.7966376 -0.4675916,-0.7966376 -0.2616974,0 -0.4656674,0.3251975 -0.4656674,0.7966376 0,0.4714401 0.20397,0.7966376 0.4656674,0.7966376 z m 0,-0.1212275 c -0.1789548,0 -0.3328945,-0.2770913 -0.3328945,-0.6754101 0,-0.3983188 0.1539397,-0.6754101 0.3328945,-0.6754101 0.1789548,0 0.3348187,0.2770913 0.3348187,0.6754101 0,0.3983188 -0.1558639,0.6754101 -0.3348187,0.6754101 z m 0,-0.5676524 c 0.067349,0 0.1154547,-0.044258 0.1154547,-0.1077577 0,-0.061576 -0.048106,-0.1039093 -0.1154547,-0.1039093 -0.067349,0 -0.1135305,0.042333 -0.1135305,0.1039093 0,0.0635 0.046182,0.1077577 0.1135305,0.1077577 z"
         style="-inkscape-font-specification:'Victor Mono';fill:#000000"
         id="path17523" />
      <path
         d="m 12.606673,5.1531082 c 0.261698,0 0.467592,-0.3251975 0.467592,-0.7966376 0,-0.4714401 -0.205894,-0.7966376 -0.467592,-0.7966376 -0.261697,0 -0.465667,0.3251975 -0.465667,0.7966376 0,0.4714401 0.20397,0.7966376 0.465667,0.7966376 z m 0,-0.1212275 c -0.178954,0 -0.332894,-0.2770913 -0.332894,-0.6754101 0,-0.3983188 0.15394,-0.6754101 0.332894,-0.6754101 0.178955,0 0.334819,0.2770913 0.334819,0.6754101 0,0.3983188 -0.155864,0.6754101 -0.334819,0.6754101 z m 0,-0.5676524 c 0.06735,0 0.115455,-0.044258 0.115455,-0.1077577 0,-0.061576 -0.04811,-0.1039093 -0.115455,-0.1039093 -0.06735,0 -0.11353,0.042333 -0.11353,0.1039093 0,0.0635 0.04618,0.1077577 0.11353,0.1077577 z"
         style="-inkscape-font-specification:'Victor Mono';fill:#000000"
         id="path17525" />
      <path
         d="m 18.379405,5.1531082 c 0.261698,0 0.467592,-0.3251975 0.467592,-0.7966376 0,-0.4714401 -0.205894,-0.7966376 -0.467592,-0.7966376 -0.261697,0 -0.465667,0.3251975 -0.465667,0.7966376 0,0.4714401 0.20397,0.7966376 0.465667,0.7966376 z m 0,-0.1212275 c -0.178955,0 -0.332894,-0.2770913 -0.332894,-0.6754101 0,-0.3983188 0.153939,-0.6754101 0.332894,-0.6754101 0.178955,0 0.334819,0.2770913 0.334819,0.6754101 0,0.3983188 -0.155864,0.6754101 -0.334819,0.6754101 z m 0,-0.5676524 c 0.06735,0 0.115455,-0.044258 0.115455,-0.1077577 0,-0.061576 -0.04811,-0.1039093 -0.115455,-0.1039093 -0.06735,0 -0.11353,0.042333 -0.11353,0.1039093 0,0.0635 0.04618,0.1077577 0.11353,0.1077577 z"
         style="-inkscape-font-specification:'Victor Mono';fill:#000000"
         id="path17527" />
      <path
         d="m 24.152135,5.1531082 c 0.261698,0 0.467592,-0.3251975 0.467592,-0.7966376 0,-0.4714401 -0.205894,-0.7966376 -0.467592,-0.7966376 -0.261697,0 -0.465667,0.3251975 -0.465667,0.7966376 0,0.4714401 0.20397,0.7966376 0.465667,0.7966376 z m 0,-0.1212275 c -0.178955,0 -0.332894,-0.2770913 -0.332894,-0.6754101 0,-0.3983188 0.153939,-0.6754101 0.332894,-0.6754101 0.178955,0 0.334819,0.2770913 0.334819,0.6754101 0,0.3983188 -0.155864,0.6754101 -0.334819,0.6754101 z m 0,-0.5676524 c 0.06735,0 0.115455,-0.044258 0.115455,-0.1077577 0,-0.061576 -0.04811,-0.1039093 -0.115455,-0.1039093 -0.06735,0 -0.11353,0.042333 -0.11353,0.1039093 0,0.0635 0.04618,0.1077577 0.11353,0.1077577 z"
         style="-inkscape-font-specification:'Victor Mono';fill:#000000"
         id="path17529" />
    </g>
    <g
       aria-label="0  0  0  1    1    0"
       id="text985"
       style="font-size:2.11667px;fill:#aaaaaa;stroke-width:0.264583">
      <path
         d="m 2.2600162,7.7876139 c 0.2616974,0 0.4675916,-0.3251975 0.4675916,-0.7966376 0,-0.4714401 -0.2058942,-0.7966375 -0.4675916,-0.7966375 -0.2616974,0 -0.4656674,0.3251974 -0.4656674,0.7966375 0,0.4714401 0.20397,0.7966376 0.4656674,0.7966376 z m 0,-0.1212274 c -0.1789548,0 -0.3328944,-0.2770914 -0.3328944,-0.6754102 0,-0.3983188 0.1539396,-0.6754101 0.3328944,-0.6754101 0.1789548,0 0.3348187,0.2770913 0.3348187,0.6754101 0,0.3983188 -0.1558639,0.6754102 -0.3348187,0.6754102 z m 0,-0.5676524 c 0.067349,0 0.1154547,-0.044258 0.1154547,-0.1077578 0,-0.061576 -0.048106,-0.1039092 -0.1154547,-0.1039092 -0.067349,0 -0.1135305,0.042333 -0.1135305,0.1039092 0,0.0635 0.046182,0.1077578 0.1135305,0.1077578 z"
         style="-inkscape-font-specification:'Victor Mono';fill:#000000"
         id="path17544" />
      <path
         d="m 5.7236545,7.7876139 c 0.2616974,0 0.4675916,-0.3251975 0.4675916,-0.7966376 0,-0.4714401 -0.2058942,-0.7966375 -0.4675916,-0.7966375 -0.2616974,0 -0.4656674,0.3251974 -0.4656674,0.7966375 0,0.4714401 0.20397,0.7966376 0.4656674,0.7966376 z m 0,-0.1212274 c -0.1789548,0 -0.3328944,-0.2770914 -0.3328944,-0.6754102 0,-0.3983188 0.1539396,-0.6754101 0.3328944,-0.6754101 0.1789548,0 0.3348187,0.2770913 0.3348187,0.6754101 0,0.3983188 -0.1558639,0.6754102 -0.3348187,0.6754102 z m 0,-0.5676524 c 0.067349,0 0.1154547,-0.044258 0.1154547,-0.1077578 0,-0.061576 -0.048106,-0.1039092 -0.1154547,-0.1039092 -0.067349,0 -0.1135305,0.042333 -0.1135305,0.1039092 0,0.0635 0.046182,0.1077578 0.1135305,0.1077578 z"
         style="-inkscape-font-specification:'Victor Mono';fill:#000000"
         id="path17546" />
      <path
         d="m 9.1872928,7.7876139 c 0.2616974,0 0.4675916,-0.3251975 0.4675916,-0.7966376 0,-0.4714401 -0.2058942,-0.7966375 -0.4675916,-0.7966375 -0.2616974,0 -0.4656674,0.3251974 -0.4656674,0.7966375 0,0.4714401 0.20397,0.7966376 0.4656674,0.7966376 z m 0,-0.1212274 c -0.1789548,0 -0.3328944,-0.2770914 -0.3328944,-0.6754102 0,-0.3983188 0.1539396,-0.6754101 0.3328944,-0.6754101 0.1789548,0 0.3348187,0.2770913 0.3348187,0.6754101 0,0.3983188 -0.1558639,0.6754102 -0.3348187,0.6754102 z m 0,-0.5676524 c 0.067349,0 0.1154547,-0.044258 0.1154547,-0.1077578 0,-0.061576 -0.048106,-0.1039092 -0.1154547,-0.1039092 -0.067349,0 -0.1135305,0.042333 -0.1135305,0.1039092 0,0.0635 0.046182,0.1077578 0.1135305,0.1077578 z"
         style="-inkscape-font-specification:'Victor Mono';fill:#000000"
         id="path17548" />
      <path
         d="m 12.71828,6.2212782 h -0.134697 c 0,0.188576 -0.117379,0.3021065 -0.309804,0.3021065 v 0.1231517 c 0.128924,0 0.234758,-0.038485 0.311728,-0.1058335 V 7.639447 h -0.273243 v 0.1212275 h 0.679259 V 7.639447 H 12.71828 Z"
         style="-inkscape-font-specification:'Victor Mono';fill:#000000"
         id="path17550" />
      <path
         d="m 18.491011,6.2212782 h -0.134697 c 0,0.188576 -0.117379,0.3021065 -0.309803,0.3021065 v 0.1231517 c 0.128924,0 0.234758,-0.038485 0.311728,-0.1058335 V 7.639447 h -0.273243 v 0.1212275 h 0.679258 V 7.639447 h -0.273243 z"
         style="-inkscape-font-specification:'Victor Mono';fill:#000000"
         id="path17552" />
      <path
         d="m 24.196393,7.7876139 c 0.261697,0 0.467591,-0.3251975 0.467591,-0.7966376 0,-0.4714401 -0.205894,-0.7966375 -0.467591,-0.7966375 -0.261698,0 -0.465668,0.3251974 -0.465668,0.7966375 0,0.4714401 0.20397,0.7966376 0.465668,0.7966376 z m 0,-0.1212274 c -0.178955,0 -0.332895,-0.2770914 -0.332895,-0.6754102 0,-0.3983188 0.15394,-0.6754101 0.332895,-0.6754101 0.178955,0 0.334818,0.2770913 0.334818,0.6754101 0,0.3983188 -0.155863,0.6754102 -0.334818,0.6754102 z m 0,-0.5676524 c 0.06735,0 0.115454,-0.044258 0.115454,-0.1077578 0,-0.061576 -0.04811,-0.1039092 -0.115454,-0.1039092 -0.06735,0 -0.113531,0.042333 -0.113531,0.1039092 0,0.0635 0.04618,0.1077578 0.113531,0.1077578 z"
         style="-inkscape-font-specification:'Victor Mono';fill:#000000"
         id="path17554" />
    </g>
    <g
       aria-label="0  0  0  1    0    1"
       id="text989"
       style="font-size:2.11667px;fill:#aaaaaa;stroke-width:0.264583">
      <path
         d="m 2.3235164,10.42212 c 0.2616973,0 0.4675916,-0.325197 0.4675916,-0.7966374 0,-0.4714402 -0.2058943,-0.7966376 -0.4675916,-0.7966376 -0.2616974,0 -0.4656674,0.3251974 -0.4656674,0.7966376 0,0.4714404 0.20397,0.7966374 0.4656674,0.7966374 z m 0,-0.121227 c -0.1789548,0 -0.3328945,-0.277092 -0.3328945,-0.6754104 0,-0.3983188 0.1539397,-0.6754102 0.3328945,-0.6754102 0.1789548,0 0.3348187,0.2770914 0.3348187,0.6754102 0,0.3983184 -0.1558639,0.6754104 -0.3348187,0.6754104 z m 0,-0.5676527 c 0.067349,0 0.1154547,-0.044258 0.1154547,-0.1077577 0,-0.061576 -0.048106,-0.1039093 -0.1154547,-0.1039093 -0.067349,0 -0.1135305,0.042333 -0.1135305,0.1039093 0,0.0635 0.046182,0.1077577 0.1135305,0.1077577 z"
         style="-inkscape-font-specification:'Victor Mono';fill:#000000"
         id="path17569" />
      <path
         d="m 5.7871547,10.42212 c 0.2616973,0 0.4675916,-0.325197 0.4675916,-0.7966374 0,-0.4714402 -0.2058943,-0.7966376 -0.4675916,-0.7966376 -0.2616974,0 -0.4656674,0.3251974 -0.4656674,0.7966376 0,0.4714404 0.20397,0.7966374 0.4656674,0.7966374 z m 0,-0.121227 c -0.1789548,0 -0.3328945,-0.277092 -0.3328945,-0.6754104 0,-0.3983188 0.1539397,-0.6754102 0.3328945,-0.6754102 0.1789548,0 0.3348187,0.2770914 0.3348187,0.6754102 0,0.3983184 -0.1558639,0.6754104 -0.3348187,0.6754104 z m 0,-0.5676527 c 0.067349,0 0.1154547,-0.044258 0.1154547,-0.1077577 0,-0.061576 -0.048106,-0.1039093 -0.1154547,-0.1039093 -0.067349,0 -0.1135305,0.042333 -0.1135305,0.1039093 0,0.0635 0.046182,0.1077577 0.1135305,0.1077577 z"
         style="-inkscape-font-specification:'Victor Mono';fill:#000000"
         id="path17571" />
      <path
         d="m 9.250793,10.42212 c 0.2616973,0 0.4675916,-0.325197 0.4675916,-0.7966374 0,-0.4714402 -0.2058943,-0.7966376 -0.4675916,-0.7966376 -0.2616974,0 -0.4656674,0.3251974 -0.4656674,0.7966376 0,0.4714404 0.20397,0.7966374 0.4656674,0.7966374 z m 0,-0.121227 c -0.1789548,0 -0.3328945,-0.277092 -0.3328945,-0.6754104 0,-0.3983188 0.1539397,-0.6754102 0.3328945,-0.6754102 0.1789548,0 0.3348187,0.2770914 0.3348187,0.6754102 0,0.3983184 -0.1558639,0.6754104 -0.3348187,0.6754104 z m 0,-0.5676527 c 0.067349,0 0.1154547,-0.044258 0.1154547,-0.1077577 0,-0.061576 -0.048106,-0.1039093 -0.1154547,-0.1039093 -0.067349,0 -0.1135305,0.042333 -0.1135305,0.1039093 0,0.0635 0.046182,0.1077577 0.1135305,0.1077577 z"
         style="-inkscape-font-specification:'Victor Mono';fill:#000000"
         id="path17573" />
      <path
         d="m 12.78178,8.8557844 h -0.134697 c 0,0.1885761 -0.117379,0.3021065 -0.309804,0.3021065 v 0.1231517 c 0.128925,0 0.234758,-0.038485 0.311728,-0.1058335 v 1.0987439 h -0.273243 v 0.121228 h 0.679259 V 10.273953 H 12.78178 Z"
         style="-inkscape-font-specification:'Victor Mono';fill:#000000"
         id="path17575" />
      <path
         d="m 18.487163,10.42212 c 0.261697,0 0.467592,-0.325197 0.467592,-0.7966374 0,-0.4714402 -0.205895,-0.7966376 -0.467592,-0.7966376 -0.261697,0 -0.465667,0.3251974 -0.465667,0.7966376 0,0.4714404 0.20397,0.7966374 0.465667,0.7966374 z m 0,-0.121227 c -0.178955,0 -0.332894,-0.277092 -0.332894,-0.6754104 0,-0.3983188 0.153939,-0.6754102 0.332894,-0.6754102 0.178955,0 0.334819,0.2770914 0.334819,0.6754102 0,0.3983184 -0.155864,0.6754104 -0.334819,0.6754104 z m 0,-0.5676527 c 0.06735,0 0.115455,-0.044258 0.115455,-0.1077577 0,-0.061576 -0.04811,-0.1039093 -0.115455,-0.1039093 -0.06735,0 -0.11353,0.042333 -0.11353,0.1039093 0,0.0635 0.04618,0.1077577 0.11353,0.1077577 z"
         style="-inkscape-font-specification:'Victor Mono';fill:#000000"
         id="path17577" />
      <path
         d="m 24.327242,8.8557844 h -0.134698 c 0,0.1885761 -0.117379,0.3021065 -0.309803,0.3021065 v 0.1231517 c 0.128924,0 0.234758,-0.038485 0.311728,-0.1058335 v 1.0987439 h -0.273243 v 0.121228 h 0.679258 v -0.121228 h -0.273242 z"
         style="-inkscape-font-specification:'Victor Mono';fill:#000000"
         id="path17579" />
    </g>
    <g
       aria-label="0  1  0  0    0    1"
       id="text993"
       style="font-size:2.11667px;fill:#aaaaaa;stroke-width:0.264583">
      <path
         d="m 2.3235164,13.056626 c 0.2616973,0 0.4675916,-0.325197 0.4675916,-0.796637 0,-0.47144 -0.2058943,-0.796638 -0.4675916,-0.796638 -0.2616974,0 -0.4656674,0.325198 -0.4656674,0.796638 0,0.47144 0.20397,0.796637 0.4656674,0.796637 z m 0,-0.121227 c -0.1789548,0 -0.3328945,-0.277091 -0.3328945,-0.67541 0,-0.398319 0.1539397,-0.67541 0.3328945,-0.67541 0.1789548,0 0.3348187,0.277091 0.3348187,0.67541 0,0.398319 -0.1558639,0.67541 -0.3348187,0.67541 z m 0,-0.567652 c 0.067349,0 0.1154547,-0.04426 0.1154547,-0.107758 0,-0.06158 -0.048106,-0.103909 -0.1154547,-0.103909 -0.067349,0 -0.1135305,0.04233 -0.1135305,0.103909 0,0.0635 0.046182,0.107758 0.1135305,0.107758 z"
         style="-inkscape-font-specification:'Victor Mono';fill:#000000"
         id="path17594" />
      <path
         d="M 5.8545033,11.490291 H 5.7198061 c 0,0.188576 -0.117379,0.302106 -0.3098035,0.302106 v 0.123152 c 0.1289244,0 0.2347579,-0.03848 0.3117277,-0.105834 v 1.098744 H 5.4484875 v 0.121228 H 6.1277461 V 12.908459 H 5.8545033 Z"
         style="-inkscape-font-specification:'Victor Mono';fill:#000000"
         id="path17596" />
      <path
         d="m 9.250793,13.056626 c 0.2616973,0 0.4675916,-0.325197 0.4675916,-0.796637 0,-0.47144 -0.2058943,-0.796638 -0.4675916,-0.796638 -0.2616974,0 -0.4656674,0.325198 -0.4656674,0.796638 0,0.47144 0.20397,0.796637 0.4656674,0.796637 z m 0,-0.121227 c -0.1789548,0 -0.3328945,-0.277091 -0.3328945,-0.67541 0,-0.398319 0.1539397,-0.67541 0.3328945,-0.67541 0.1789548,0 0.3348187,0.277091 0.3348187,0.67541 0,0.398319 -0.1558639,0.67541 -0.3348187,0.67541 z m 0,-0.567652 c 0.067349,0 0.1154547,-0.04426 0.1154547,-0.107758 0,-0.06158 -0.048106,-0.103909 -0.1154547,-0.103909 -0.067349,0 -0.1135305,0.04233 -0.1135305,0.103909 0,0.0635 0.046182,0.107758 0.1135305,0.107758 z"
         style="-inkscape-font-specification:'Victor Mono';fill:#000000"
         id="path17598" />
      <path
         d="m 12.714431,13.056626 c 0.261698,0 0.467592,-0.325197 0.467592,-0.796637 0,-0.47144 -0.205894,-0.796638 -0.467592,-0.796638 -0.261697,0 -0.465667,0.325198 -0.465667,0.796638 0,0.47144 0.20397,0.796637 0.465667,0.796637 z m 0,-0.121227 c -0.178955,0 -0.332894,-0.277091 -0.332894,-0.67541 0,-0.398319 0.153939,-0.67541 0.332894,-0.67541 0.178955,0 0.334819,0.277091 0.334819,0.67541 0,0.398319 -0.155864,0.67541 -0.334819,0.67541 z m 0,-0.567652 c 0.06735,0 0.115455,-0.04426 0.115455,-0.107758 0,-0.06158 -0.04811,-0.103909 -0.115455,-0.103909 -0.06735,0 -0.11353,0.04233 -0.11353,0.103909 0,0.0635 0.04618,0.107758 0.11353,0.107758 z"
         style="-inkscape-font-specification:'Victor Mono';fill:#000000"
         id="path17600" />
      <path
         d="m 18.487163,13.056626 c 0.261697,0 0.467592,-0.325197 0.467592,-0.796637 0,-0.47144 -0.205895,-0.796638 -0.467592,-0.796638 -0.261697,0 -0.465667,0.325198 -0.465667,0.796638 0,0.47144 0.20397,0.796637 0.465667,0.796637 z m 0,-0.121227 c -0.178955,0 -0.332894,-0.277091 -0.332894,-0.67541 0,-0.398319 0.153939,-0.67541 0.332894,-0.67541 0.178955,0 0.334819,0.277091 0.334819,0.67541 0,0.398319 -0.155864,0.67541 -0.334819,0.67541 z m 0,-0.567652 c 0.06735,0 0.115455,-0.04426 0.115455,-0.107758 0,-0.06158 -0.04811,-0.103909 -0.115455,-0.103909 -0.06735,0 -0.11353,0.04233 -0.11353,0.103909 0,0.0635 0.04618,0.107758 0.11353,0.107758 z"
         style="-inkscape-font-specification:'Victor Mono';fill:#000000"
         id="path17602" />
      <path
         d="m 24.327242,11.490291 h -0.134698 c 0,0.188576 -0.117379,0.302106 -0.309803,0.302106 v 0.123152 c 0.128924,0 0.234758,-0.03848 0.311728,-0.105834 v 1.098744 h -0.273243 v 0.121228 h 0.679258 v -0.121228 h -0.273242 z"
         style="-inkscape-font-specification:'Victor Mono';fill:#000000"
         id="path17604" />
    </g>
  </g>
</svg>
