<?xml version="1.0" encoding="UTF-8" standalone="no"?>
<!-- Created with Inkscape (http://www.inkscape.org/) -->

<svg
   width="222.85648"
   height="100.00246"
   viewBox="0 0 58.964109 26.458983"
   version="1.1"
   id="svg2048"
   inkscape:version="1.2.2 (b0a8486541, 2022-12-01)"
   sodipodi:docname="alanine-featurized.svg"
   xmlns:inkscape="http://www.inkscape.org/namespaces/inkscape"
   xmlns:sodipodi="http://sodipodi.sourceforge.net/DTD/sodipodi-0.dtd"
   xmlns="http://www.w3.org/2000/svg"
   xmlns:svg="http://www.w3.org/2000/svg">
  <sodipodi:namedview
     id="namedview2050"
     pagecolor="#ffffff"
     bordercolor="#666666"
     borderopacity="1.0"
     inkscape:showpageshadow="2"
     inkscape:pageopacity="0.0"
     inkscape:pagecheckerboard="0"
     inkscape:deskcolor="#d1d1d1"
     inkscape:document-units="mm"
     showgrid="false"
     showguides="true"
     inkscape:zoom="6.23626"
     inkscape:cx="113.52958"
     inkscape:cy="52.194745"
     inkscape:window-width="2346"
     inkscape:window-height="1322"
     inkscape:window-x="0"
     inkscape:window-y="0"
     inkscape:window-maximized="1"
     inkscape:current-layer="layer1">
    <sodipodi:guide
       position="-4.2784242,23.539963"
       orientation="0,-1"
       id="guide1693"
       inkscape:locked="false" />
  </sodipodi:namedview>
  <defs
     id="defs2045">
    <rect
       x="-20.633406"
       y="-48.651131"
       width="85.672981"
       height="140.90077"
       id="rect2805" />
    <clipPath
       id="p3038539573">
      <rect
         x="0"
         y="0"
         width="460.79999"
         height="345.60001"
         id="rect1052" />
    </clipPath>
    <clipPath
       id="clipPath1004">
      <rect
         x="0"
         y="0"
         width="460.79999"
         height="345.60001"
         id="rect1002" />
    </clipPath>
    <clipPath
       id="clipPath1008">
      <rect
         x="0"
         y="0"
         width="460.79999"
         height="345.60001"
         id="rect1006" />
    </clipPath>
    <clipPath
       id="clipPath1012">
      <rect
         x="0"
         y="0"
         width="460.79999"
         height="345.60001"
         id="rect1010" />
    </clipPath>
    <clipPath
       id="clipPath1016">
      <rect
         x="0"
         y="0"
         width="460.79999"
         height="345.60001"
         id="rect1014" />
    </clipPath>
    <clipPath
       id="clipPath1020">
      <rect
         x="0"
         y="0"
         width="460.79999"
         height="345.60001"
         id="rect1018" />
    </clipPath>
    <clipPath
       id="clipPath1024">
      <rect
         x="0"
         y="0"
         width="460.79999"
         height="345.60001"
         id="rect1022" />
    </clipPath>
    <clipPath
       id="clipPath1028">
      <rect
         x="0"
         y="0"
         width="460.79999"
         height="345.60001"
         id="rect1026" />
    </clipPath>
    <clipPath
       id="clipPath1032">
      <rect
         x="0"
         y="0"
         width="460.79999"
         height="345.60001"
         id="rect1030" />
    </clipPath>
    <clipPath
       id="clipPath1036">
      <rect
         x="0"
         y="0"
         width="460.79999"
         height="345.60001"
         id="rect1034" />
    </clipPath>
    <clipPath
       id="clipPath1040">
      <rect
         x="0"
         y="0"
         width="460.79999"
         height="345.60001"
         id="rect1038" />
    </clipPath>
    <clipPath
       id="clipPath1044">
      <rect
         x="0"
         y="0"
         width="460.79999"
         height="345.60001"
         id="rect1042" />
    </clipPath>
  </defs>
  <g
     inkscape:label="Layer 1"
     inkscape:groupmode="layer"
     id="layer1">
    <g
       id="LineCollection_1"
       style="stroke-width:5.25;stroke-linecap:butt;stroke-linejoin:round;stroke-dasharray:none"
       transform="matrix(0.07055556,0,0,0.07055556,27.673923,0.64578007)">
      <path
         d="m 287.71332,78.58491 -28.20675,71.43893"
         clip-path="url(#p3038539573)"
         style="fill:none;stroke:#000000;stroke-width:5.25;stroke-linecap:butt;stroke-linejoin:round;stroke-dasharray:none"
         id="path993" />
      <path
         d="M 287.71332,78.58491 345.51988,41.041711"
         clip-path="url(#p3038539573)"
         style="fill:none;stroke:#000000;stroke-width:5.25;stroke-linecap:butt;stroke-linejoin:round;stroke-dasharray:none"
         id="path995" />
      <path
         d="M 287.71332,78.58491 266.82976,29.990083"
         clip-path="url(#p3038539573)"
         style="fill:none;stroke:#000000;stroke-width:5.25;stroke-linecap:butt;stroke-linejoin:round;stroke-dasharray:none"
         id="path997" />
      <path
         d="m 259.50657,150.02384 66.17409,-9.2261"
         clip-path="url(#p3038539573)"
         style="fill:none;stroke:#000000;stroke-width:5.25;stroke-linecap:butt;stroke-linejoin:round;stroke-dasharray:none"
         id="path999" />
      <path
         d="m 259.50657,150.02384 -130.85829,7.21324"
         clip-path="url(#p3038539573)"
         style="fill:none;stroke:#000000;stroke-width:5.25;stroke-linecap:butt;stroke-linejoin:round;stroke-dasharray:none"
         id="path1001" />
      <path
         d="m 259.50657,150.02384 82.40763,61.03963"
         clip-path="url(#p3038539573)"
         style="fill:none;stroke:#000000;stroke-width:5.25;stroke-linecap:butt;stroke-linejoin:round;stroke-dasharray:none"
         id="path1003" />
      <path
         d="M 128.64828,157.23708 82.706781,198.3212"
         clip-path="url(#p3038539573)"
         style="fill:none;stroke:#000000;stroke-width:5.25;stroke-linecap:butt;stroke-linejoin:round;stroke-dasharray:none"
         id="path1005" />
      <path
         d="m 128.64828,157.23708 -88.661503,4.97503"
         clip-path="url(#p3038539573)"
         style="fill:none;stroke:#000000;stroke-width:5.25;stroke-linecap:butt;stroke-linejoin:round;stroke-dasharray:none"
         id="path1007" />
      <path
         d="M 128.64828,157.23708 68.334544,121.87197"
         clip-path="url(#p3038539573)"
         style="fill:none;stroke:#000000;stroke-width:5.25;stroke-linecap:butt;stroke-linejoin:round;stroke-dasharray:none"
         id="path1009" />
      <path
         d="m 341.9142,211.06347 37.90452,59.45339"
         clip-path="url(#p3038539573)"
         style="fill:none;stroke:#000000;stroke-width:5.25;stroke-linecap:butt;stroke-linejoin:round;stroke-dasharray:none"
         id="path1011" />
      <path
         d="m 341.9142,211.06347 78.89902,7.85155"
         clip-path="url(#p3038539573)"
         style="fill:none;stroke:#000000;stroke-width:5.25;stroke-linecap:butt;stroke-linejoin:round;stroke-dasharray:none"
         id="path1013" />
      <path
         d="m 379.81872,270.51686 34.46427,45.09306"
         clip-path="url(#p3038539573)"
         style="fill:none;stroke:#000000;stroke-width:5.25;stroke-linecap:butt;stroke-linejoin:round;stroke-dasharray:none"
         id="path1015" />
    </g>
    <path
       style="color:#000000;fill:#000000;-inkscape-stroke:none"
       d="M 0,2.9179688 V 26.458984 H 2.2070313 V 26.199219 H 0.26171875 V 3.1777344 H 2.2070313 V 2.9179688 Z"
       id="path2595" />
    <path
       style="color:#000000;fill:#000000;-inkscape-stroke:none"
       d="m 24.253906,2.9179688 v 0.2597656 h 1.94336 V 26.199219 h -1.94336 v 0.259765 h 2.203125 V 2.9179688 Z"
       id="path2695" />
    <text
       xml:space="preserve"
       style="font-style:normal;font-variant:normal;font-weight:normal;font-stretch:normal;font-size:1.41111px;line-height:1.25;font-family:'Victor Mono';-inkscape-font-specification:'Victor Mono';fill:#000000;fill-opacity:1;stroke-width:0.264583"
       x="3.034035"
       y="3.3561399"
       id="text3108"><tspan
         sodipodi:role="line"
         id="tspan3106"
         style="font-style:normal;font-variant:normal;font-weight:normal;font-stretch:normal;font-family:'Victor Mono';-inkscape-font-specification:'Victor Mono';fill:#000000;fill-opacity:1;stroke-width:0.264583"
         x="3.034035"
         y="3.3561399" /></text>
    <g
       aria-label="H? C? N? O? sp3? sp2?"
       id="text3422"
       style="font-size:2.11667px;fill:#aaaaaa;stroke-width:0.264583">
      <path
         d="M 1.927122,1.4970629 H 1.4133485 V 0.8736074 H 1.1920603 V 2.4130037 H 1.4133485 V 1.7010329 H 1.927122 V 2.4130037 H 2.1484102 V 0.8736074 H 1.927122 Z"
         style="-inkscape-font-specification:'Victor Mono'"
         id="path17409" />
      <path
         d="m 2.9335013,1.9588818 c 0,-0.2713186 0.3963945,-0.1635609 0.3963945,-0.6773344 0,-0.32134896 -0.1346972,-0.43487944 -0.5080008,-0.43487944 -0.3906218,0 -0.517622,0.1270002 -0.502228,0.49260684 H 2.5409552 C 2.5294097,1.1064411 2.5736674,1.050638 2.821895,1.050638 c 0.2309095,0 0.2867126,0.044258 0.2867126,0.2309094 0,0.4137128 -0.3963946,0.1731821 -0.3963946,0.6773344 z m -0.109682,0.4810613 c 0.1327729,0 0.1751063,-0.040409 0.1751063,-0.1616366 0,-0.1231517 -0.042333,-0.1635608 -0.1751063,-0.1635608 -0.1327729,0 -0.1751063,0.040409 -0.1751063,0.1635608 0,0.1212275 0.042333,0.1616366 0.1751063,0.1616366 z"
         style="-inkscape-font-specification:'Victor Mono'"
         id="path17411" />
      <path
         d="m 5.1617751,2.4399431 c 0.2770914,0 0.3963946,-0.1039092 0.4791371,-0.400243 L 5.4311695,1.968503 c -0.0635,0.2174397 -0.109682,0.2674701 -0.2693944,0.2674701 -0.2309094,0 -0.3040307,-0.1404699 -0.3040307,-0.5945918 0,-0.4521977 0.073121,-0.5907433 0.3040307,-0.5907433 0.1597124,0 0.2058943,0.051955 0.2693944,0.2732428 L 5.6409122,1.2507595 C 5.5581697,0.95250146 5.4369422,0.84666796 5.1617751,0.84666796 c -0.3944703,0 -0.525319,0.22128824 -0.525319,0.79471334 0,0.5753494 0.1308487,0.7985618 0.525319,0.7985618 z"
         style="-inkscape-font-specification:'Victor Mono'"
         id="path17413" />
      <path
         d="m 6.3971397,1.9588818 c 0,-0.2713186 0.3963945,-0.1635609 0.3963945,-0.6773344 0,-0.32134896 -0.1346971,-0.43487944 -0.5080007,-0.43487944 -0.3906218,0 -0.517622,0.1270002 -0.5022281,0.49260684 H 6.0045936 C 5.9930482,1.1064411 6.0373058,1.050638 6.2855335,1.050638 c 0.2309094,0 0.2867125,0.044258 0.2867125,0.2309094 0,0.4137128 -0.3963945,0.1731821 -0.3963945,0.6773344 z m -0.109682,0.4810613 c 0.1327729,0 0.1751063,-0.040409 0.1751063,-0.1616366 0,-0.1231517 -0.042333,-0.1635608 -0.1751063,-0.1635608 -0.1327729,0 -0.1751063,0.040409 -0.1751063,0.1635608 0,0.1212275 0.042333,0.1616366 0.1751063,0.1616366 z"
         style="-inkscape-font-specification:'Victor Mono'"
         id="path17415" />
      <path
         d="M 8.8505501,1.9357908 8.3579433,0.8736074 H 8.1212611 v 1.5393963 h 0.2232125 v -1.058335 l 0.4906826,1.058335 H 9.0718384 V 0.8736074 H 8.8505501 Z"
         style="-inkscape-font-specification:'Victor Mono'"
         id="path17417" />
      <path
         d="m 9.8607785,1.9588818 c 0,-0.2713186 0.3963945,-0.1635609 0.3963945,-0.6773344 0,-0.32134896 -0.134697,-0.43487944 -0.5080008,-0.43487944 -0.3906218,0 -0.517622,0.1270002 -0.502228,0.49260684 H 9.4682324 C 9.4566869,1.1064411 9.5009446,1.050638 9.7491722,1.050638 c 0.2309095,0 0.2867128,0.044258 0.2867128,0.2309094 0,0.4137128 -0.3963947,0.1731821 -0.3963947,0.6773344 z m -0.109682,0.4810613 c 0.1327729,0 0.1751063,-0.040409 0.1751063,-0.1616366 0,-0.1231517 -0.042333,-0.1635608 -0.1751063,-0.1635608 -0.1327729,0 -0.1751063,0.040409 -0.1751063,0.1635608 0,0.1212275 0.042333,0.1616366 0.1751063,0.1616366 z"
         style="-inkscape-font-specification:'Victor Mono'"
         id="path17419" />
      <path
         d="m 12.060188,2.4399431 c 0.382925,0 0.511849,-0.20397 0.511849,-0.7196677 V 1.5663357 c 0,-0.5156977 -0.128924,-0.71966774 -0.511849,-0.71966774 -0.382925,0 -0.509925,0.20397004 -0.509925,0.71966774 v 0.1539397 c 0,0.5156977 0.127,0.7196677 0.509925,0.7196677 z m 0,-0.20397 c -0.221288,0 -0.290561,-0.1212274 -0.288637,-0.5156977 V 1.5663357 c 0,-0.3944703 0.0635,-0.5156977 0.288637,-0.5156977 0.223213,0 0.288637,0.1212274 0.288637,0.5156977 v 0.1539397 c 0,0.3944703 -0.06542,0.5156977 -0.288637,0.5156977 z"
         style="-inkscape-font-specification:'Victor Mono'"
         id="path17421" />
      <path
         d="m 13.324417,1.9588818 c 0,-0.2713186 0.396394,-0.1635609 0.396394,-0.6773344 0,-0.32134896 -0.134697,-0.43487944 -0.508,-0.43487944 -0.390622,0 -0.517622,0.1270002 -0.502228,0.49260684 h 0.221288 c -0.01155,-0.2328337 0.03271,-0.2886368 0.28094,-0.2886368 0.230909,0 0.286712,0.044258 0.286712,0.2309094 0,0.4137128 -0.396394,0.1731821 -0.396394,0.6773344 z m -0.109682,0.4810613 c 0.132773,0 0.175106,-0.040409 0.175106,-0.1616366 0,-0.1231517 -0.04233,-0.1635608 -0.175106,-0.1635608 -0.132773,0 -0.175107,0.040409 -0.175107,0.1635608 0,0.1212275 0.04233,0.1616366 0.175107,0.1616366 z"
         style="-inkscape-font-specification:'Victor Mono'"
         id="path17423" />
      <path
         d="m 15.47572,2.4399431 c 0.394471,0 0.540713,-0.1058335 0.540713,-0.3733036 0,-0.2578489 -0.125076,-0.3328944 -0.475288,-0.3829248 -0.169334,-0.023091 -0.234758,-0.036561 -0.234758,-0.1289244 0,-0.1193033 0.04811,-0.1539397 0.265545,-0.1539397 0.159713,0 0.196274,0.034636 0.273243,0.1808791 l 0.161637,-0.1577881 c -0.101985,-0.1693336 -0.207819,-0.227061 -0.43488,-0.227061 -0.355985,0 -0.486834,0.101985 -0.486834,0.3579097 0,0.2212882 0.144319,0.3001822 0.440653,0.3367429 0.221288,0.028864 0.26747,0.042333 0.26747,0.1751063 0,0.1289245 -0.0558,0.1693336 -0.317501,0.1693336 -0.14047,0 -0.175106,-0.038485 -0.246303,-0.2020458 L 15.05431,2.1782457 c 0.100061,0.1924246 0.205895,0.2616974 0.42141,0.2616974 z"
         style="-inkscape-font-specification:'Victor Mono'"
         id="path17425" />
      <path
         d="M 16.435918,2.7632163 V 2.3937612 c 0.06927,0.026939 0.152016,0.046182 0.255925,0.046182 0.355985,0 0.477213,-0.180879 0.477213,-0.6234555 0,-0.4406522 -0.121228,-0.619607 -0.477213,-0.619607 -0.105834,0 -0.188576,0.015394 -0.255925,0.038485 v -0.011545 h -0.223212 v 1.5393962 z m 0.255925,-0.5272432 c -0.186652,0 -0.255925,-0.088515 -0.255925,-0.2693943 V 1.5124569 c 0,-0.065424 0.06927,-0.1116063 0.255925,-0.1116063 0.196273,0 0.255924,0.096212 0.255924,0.415637 0,0.321349 -0.05965,0.4194855 -0.255924,0.4194855 z"
         style="-inkscape-font-specification:'Victor Mono'"
         id="path17427" />
      <path
         d="m 17.83292,1.5932752 c 0.357909,0 0.48491,-0.1289245 0.48491,-0.4579704 0,-0.20974277 -0.03656,-0.30210654 -0.134698,-0.38292485 C 18.281269,0.67733438 18.31783,0.6061373 18.31783,0.43103098 18.31783,0.12122747 18.186981,1.6689301e-8 17.83292,1.6689301e-8 17.455768,1.6689301e-8 17.34801,0.11930323 17.34801,0.46374315 h 0.225137 c 0,-0.21166699 0.02117,-0.25977313 0.259773,-0.25977313 0.211667,0 0.263621,0.0500304 0.263621,0.22706096 0,0.19050029 -0.04426,0.20589425 -0.227061,0.21936397 h -0.194348 v 0.20397001 h 0.194348 c 0.178955,0.0134697 0.227061,0.0461819 0.227061,0.28093984 0,0.1981972 -0.05388,0.2540004 -0.263621,0.2540004 -0.232834,0 -0.261698,-0.053879 -0.261698,-0.2616974 H 17.34801 c 0,0.3367429 0.109682,0.4656674 0.48491,0.4656674 z"
         id="path17429" />
      <path
         d="m 19.097147,1.9588818 c 0,-0.2713186 0.396394,-0.1635609 0.396394,-0.6773344 0,-0.32134896 -0.134697,-0.43487944 -0.508001,-0.43487944 -0.390621,0 -0.517622,0.1270002 -0.502228,0.49260684 h 0.221289 c -0.01155,-0.2328337 0.03271,-0.2886368 0.280939,-0.2886368 0.23091,0 0.286713,0.044258 0.286713,0.2309094 0,0.4137128 -0.396395,0.1731821 -0.396395,0.6773344 z m -0.109682,0.4810613 c 0.132773,0 0.175106,-0.040409 0.175106,-0.1616366 0,-0.1231517 -0.04233,-0.1635608 -0.175106,-0.1635608 -0.132773,0 -0.175107,0.040409 -0.175107,0.1635608 0,0.1212275 0.04233,0.1616366 0.175107,0.1616366 z"
         style="-inkscape-font-specification:'Victor Mono'"
         id="path17431" />
      <path
         d="m 21.248452,2.4399431 c 0.39447,0 0.540713,-0.1058335 0.540713,-0.3733036 0,-0.2578489 -0.125076,-0.3328944 -0.475289,-0.3829248 -0.169333,-0.023091 -0.234758,-0.036561 -0.234758,-0.1289244 0,-0.1193033 0.04811,-0.1539397 0.265546,-0.1539397 0.159713,0 0.196273,0.034636 0.273243,0.1808791 l 0.161637,-0.1577881 c -0.101985,-0.1693336 -0.207819,-0.227061 -0.43488,-0.227061 -0.355985,0 -0.486834,0.101985 -0.486834,0.3579097 0,0.2212882 0.144319,0.3001822 0.440652,0.3367429 0.221289,0.028864 0.26747,0.042333 0.26747,0.1751063 0,0.1289245 -0.0558,0.1693336 -0.3175,0.1693336 -0.14047,0 -0.175106,-0.038485 -0.246303,-0.2020458 l -0.175107,0.1443184 c 0.100061,0.1924246 0.205895,0.2616974 0.42141,0.2616974 z"
         style="-inkscape-font-specification:'Victor Mono'"
         id="path17433" />
      <path
         d="M 22.208648,2.7632163 V 2.3937612 c 0.06927,0.026939 0.152015,0.046182 0.255925,0.046182 0.355985,0 0.477213,-0.180879 0.477213,-0.6234555 0,-0.4406522 -0.121228,-0.619607 -0.477213,-0.619607 -0.105834,0 -0.188576,0.015394 -0.255925,0.038485 v -0.011545 h -0.223212 v 1.5393962 z m 0.255925,-0.5272432 c -0.186652,0 -0.255925,-0.088515 -0.255925,-0.2693943 V 1.5124569 c 0,-0.065424 0.06927,-0.1116063 0.255925,-0.1116063 0.196273,0 0.255924,0.096212 0.255924,0.415637 0,0.321349 -0.05965,0.4194855 -0.255924,0.4194855 z"
         style="-inkscape-font-specification:'Victor Mono'"
         id="path17435" />
      <path
         d="m 24.107878,1.5663357 v -0.20397 h -0.77932 C 23.424771,1.1160623 24.111726,0.91401656 24.111726,0.43487947 24.111726,0.11353049 23.977029,1.6689301e-8 23.603725,1.6689301e-8 23.213104,1.6689301e-8 23.086103,0.12700021 23.101497,0.49260683 h 0.221289 c -0.01155,-0.23283369 0.03271,-0.28863681 0.280939,-0.28863681 0.23091,0 0.286713,0.0442577 0.286713,0.23090945 0,0.38677331 -0.788941,0.55225842 -0.788941,0.98521363 v 0.1462426 z"
         id="path17437" />
      <path
         d="m 24.869878,1.9588818 c 0,-0.2713186 0.396395,-0.1635609 0.396395,-0.6773344 0,-0.32134896 -0.134697,-0.43487944 -0.508001,-0.43487944 -0.390622,0 -0.517622,0.1270002 -0.502228,0.49260684 h 0.221288 c -0.01155,-0.2328337 0.03271,-0.2886368 0.28094,-0.2886368 0.23091,0 0.286713,0.044258 0.286713,0.2309094 0,0.4137128 -0.396395,0.1731821 -0.396395,0.6773344 z m -0.109682,0.4810613 c 0.132773,0 0.175107,-0.040409 0.175107,-0.1616366 0,-0.1231517 -0.04233,-0.1635608 -0.175107,-0.1635608 -0.132772,0 -0.175106,0.040409 -0.175106,0.1635608 0,0.1212275 0.04233,0.1616366 0.175106,0.1616366 z"
         style="-inkscape-font-specification:'Victor Mono'"
         id="path17439" />
    </g>
    <g
       aria-label=".      . "
       id="text3534"
       style="font-size:2.11667px;stroke-width:0.264583">
      <path
         d="m 2.3985653,15.01957 c 0.101985,0 0.1327729,-0.02886 0.1327729,-0.125076 0,-0.09621 -0.030788,-0.125076 -0.1327729,-0.125076 -0.101985,0 -0.1327729,0.02886 -0.1327729,0.125076 0,0.09621 0.030788,0.125076 0.1327729,0.125076 z"
         style="-inkscape-font-specification:'Victor Mono'"
         id="path17474" />
      <path
         d="m 10.480389,15.01957 c 0.101985,0 0.132773,-0.02886 0.132773,-0.125076 0,-0.09621 -0.03079,-0.125076 -0.132773,-0.125076 -0.101985,0 -0.132773,0.02886 -0.132773,0.125076 0,0.09621 0.03079,0.125076 0.132773,0.125076 z"
         style="-inkscape-font-specification:'Victor Mono'"
         id="path17476" />
    </g>
    <g
       aria-label=".                  . "
       id="text3540"
       style="font-size:2.11667px;stroke-width:0.264583">
      <path
         d="m 2.3985653,25.557594 c 0.101985,0 0.1327729,-0.02886 0.1327729,-0.125076 0,-0.09621 -0.030788,-0.125076 -0.1327729,-0.125076 -0.101985,0 -0.1327729,0.02886 -0.1327729,0.125076 0,0.09621 0.030788,0.125076 0.1327729,0.125076 z"
         style="-inkscape-font-specification:'Victor Mono'"
         id="path17483" />
      <path
         d="m 24.334942,25.557594 c 0.101985,0 0.132773,-0.02886 0.132773,-0.125076 0,-0.09621 -0.03079,-0.125076 -0.132773,-0.125076 -0.101985,0 -0.132773,0.02886 -0.132773,0.125076 0,0.09621 0.03079,0.125076 0.132773,0.125076 z"
         style="-inkscape-font-specification:'Victor Mono'"
         id="path17485" />
    </g>
    <g
       aria-label=".         . "
       id="text1792"
       style="font-size:2.11667px;stroke-width:0.264583">
      <path
         d="m 2.3985653,17.654076 c 0.101985,0 0.1327729,-0.02886 0.1327729,-0.125076 0,-0.09621 -0.030788,-0.125076 -0.1327729,-0.125076 -0.101985,0 -0.1327729,0.02886 -0.1327729,0.125076 0,0.09621 0.030788,0.125076 0.1327729,0.125076 z"
         style="-inkscape-font-specification:'Victor Mono'"
         id="path17492" />
      <path
         d="m 13.944027,17.654076 c 0.101985,0 0.132773,-0.02886 0.132773,-0.125076 0,-0.09621 -0.03079,-0.125076 -0.132773,-0.125076 -0.101985,0 -0.132773,0.02886 -0.132773,0.125076 0,0.09621 0.03079,0.125076 0.132773,0.125076 z"
         style="-inkscape-font-specification:'Victor Mono'"
         id="path17494" />
    </g>
    <g
       aria-label=".            . "
       id="text1798"
       style="font-size:2.11667px;stroke-width:0.264583">
      <path
         d="m 2.3985653,20.288582 c 0.101985,0 0.1327729,-0.02886 0.1327729,-0.125076 0,-0.09621 -0.030788,-0.125076 -0.1327729,-0.125076 -0.101985,0 -0.1327729,0.02886 -0.1327729,0.125076 0,0.09621 0.030788,0.125076 0.1327729,0.125076 z"
         style="-inkscape-font-specification:'Victor Mono'"
         id="path17501" />
      <path
         d="m 17.407665,20.288582 c 0.101985,0 0.132773,-0.02886 0.132773,-0.125076 0,-0.09621 -0.03079,-0.125076 -0.132773,-0.125076 -0.101985,0 -0.132773,0.02886 -0.132773,0.125076 0,0.09621 0.03079,0.125076 0.132773,0.125076 z"
         style="-inkscape-font-specification:'Victor Mono'"
         id="path17503" />
    </g>
    <g
       aria-label=".               . "
       id="text1804"
       style="font-size:2.11667px;stroke-width:0.264583">
      <path
         d="m 2.3985653,22.923088 c 0.101985,0 0.1327729,-0.02886 0.1327729,-0.125076 0,-0.09621 -0.030788,-0.125076 -0.1327729,-0.125076 -0.101985,0 -0.1327729,0.02886 -0.1327729,0.125076 0,0.09621 0.030788,0.125076 0.1327729,0.125076 z"
         style="-inkscape-font-specification:'Victor Mono'"
         id="path17510" />
      <path
         d="m 20.871304,22.923088 c 0.101985,0 0.132772,-0.02886 0.132772,-0.125076 0,-0.09621 -0.03079,-0.125076 -0.132772,-0.125076 -0.101985,0 -0.132773,0.02886 -0.132773,0.125076 0,0.09621 0.03079,0.125076 0.132773,0.125076 z"
         style="-inkscape-font-specification:'Victor Mono'"
         id="path17512" />
    </g>
    <g
       aria-label="1  0  0  0    0    0"
       id="text981"
       style="font-size:2.11667px;fill:#aaaaaa;stroke-width:0.264583">
      <path
         d="M 2.2831071,3.5867724 H 2.14841 c 0,0.1885761 -0.117379,0.3021066 -0.3098035,0.3021066 v 0.1231517 c 0.1289244,0 0.2347579,-0.038485 0.3117277,-0.1058335 V 5.0049413 H 1.8770914 V 5.1261687 H 2.55635 V 5.0049413 H 2.2831071 Z"
         style="-inkscape-font-specification:'Victor Mono';fill:#000000"
         id="path17519" />
      <path
         d="m 5.6793969,5.1531082 c 0.2616973,0 0.4675916,-0.3251975 0.4675916,-0.7966376 0,-0.4714401 -0.2058943,-0.7966376 -0.4675916,-0.7966376 -0.2616974,0 -0.4656674,0.3251975 -0.4656674,0.7966376 0,0.4714401 0.20397,0.7966376 0.4656674,0.7966376 z m 0,-0.1212275 c -0.1789549,0 -0.3328945,-0.2770913 -0.3328945,-0.6754101 0,-0.3983188 0.1539396,-0.6754101 0.3328945,-0.6754101 0.1789548,0 0.3348187,0.2770913 0.3348187,0.6754101 0,0.3983188 -0.1558639,0.6754101 -0.3348187,0.6754101 z m 0,-0.5676524 c 0.067349,0 0.1154547,-0.044258 0.1154547,-0.1077577 0,-0.061576 -0.048106,-0.1039093 -0.1154547,-0.1039093 -0.067349,0 -0.1135305,0.042333 -0.1135305,0.1039093 0,0.0635 0.046182,0.1077577 0.1135305,0.1077577 z"
         style="-inkscape-font-specification:'Victor Mono';fill:#000000"
         id="path17521" />
      <path
         d="m 9.1430352,5.1531082 c 0.2616973,0 0.4675916,-0.3251975 0.4675916,-0.7966376 0,-0.4714401 -0.2058943,-0.7966376 -0.4675916,-0.7966376 -0.2616974,0 -0.4656674,0.3251975 -0.4656674,0.7966376 0,0.4714401 0.20397,0.7966376 0.4656674,0.7966376 z m 0,-0.1212275 c -0.1789548,0 -0.3328945,-0.2770913 -0.3328945,-0.6754101 0,-0.3983188 0.1539397,-0.6754101 0.3328945,-0.6754101 0.1789548,0 0.3348187,0.2770913 0.3348187,0.6754101 0,0.3983188 -0.1558639,0.6754101 -0.3348187,0.6754101 z m 0,-0.5676524 c 0.067349,0 0.1154547,-0.044258 0.1154547,-0.1077577 0,-0.061576 -0.048106,-0.1039093 -0.1154547,-0.1039093 -0.067349,0 -0.1135305,0.042333 -0.1135305,0.1039093 0,0.0635 0.046182,0.1077577 0.1135305,0.1077577 z"
         style="-inkscape-font-specification:'Victor Mono';fill:#000000"
         id="path17523" />
      <path
         d="m 12.606673,5.1531082 c 0.261698,0 0.467592,-0.3251975 0.467592,-0.7966376 0,-0.4714401 -0.205894,-0.7966376 -0.467592,-0.7966376 -0.261697,0 -0.465667,0.3251975 -0.465667,0.7966376 0,0.4714401 0.20397,0.7966376 0.465667,0.7966376 z m 0,-0.1212275 c -0.178954,0 -0.332894,-0.2770913 -0.332894,-0.6754101 0,-0.3983188 0.15394,-0.6754101 0.332894,-0.6754101 0.178955,0 0.334819,0.2770913 0.334819,0.6754101 0,0.3983188 -0.155864,0.6754101 -0.334819,0.6754101 z m 0,-0.5676524 c 0.06735,0 0.115455,-0.044258 0.115455,-0.1077577 0,-0.061576 -0.04811,-0.1039093 -0.115455,-0.1039093 -0.06735,0 -0.11353,0.042333 -0.11353,0.1039093 0,0.0635 0.04618,0.1077577 0.11353,0.1077577 z"
         style="-inkscape-font-specification:'Victor Mono';fill:#000000"
         id="path17525" />
      <path
         d="m 18.379405,5.1531082 c 0.261698,0 0.467592,-0.3251975 0.467592,-0.7966376 0,-0.4714401 -0.205894,-0.7966376 -0.467592,-0.7966376 -0.261697,0 -0.465667,0.3251975 -0.465667,0.7966376 0,0.4714401 0.20397,0.7966376 0.465667,0.7966376 z m 0,-0.1212275 c -0.178955,0 -0.332894,-0.2770913 -0.332894,-0.6754101 0,-0.3983188 0.153939,-0.6754101 0.332894,-0.6754101 0.178955,0 0.334819,0.2770913 0.334819,0.6754101 0,0.3983188 -0.155864,0.6754101 -0.334819,0.6754101 z m 0,-0.5676524 c 0.06735,0 0.115455,-0.044258 0.115455,-0.1077577 0,-0.061576 -0.04811,-0.1039093 -0.115455,-0.1039093 -0.06735,0 -0.11353,0.042333 -0.11353,0.1039093 0,0.0635 0.04618,0.1077577 0.11353,0.1077577 z"
         style="-inkscape-font-specification:'Victor Mono';fill:#000000"
         id="path17527" />
      <path
         d="m 24.152135,5.1531082 c 0.261698,0 0.467592,-0.3251975 0.467592,-0.7966376 0,-0.4714401 -0.205894,-0.7966376 -0.467592,-0.7966376 -0.261697,0 -0.465667,0.3251975 -0.465667,0.7966376 0,0.4714401 0.20397,0.7966376 0.465667,0.7966376 z m 0,-0.1212275 c -0.178955,0 -0.332894,-0.2770913 -0.332894,-0.6754101 0,-0.3983188 0.153939,-0.6754101 0.332894,-0.6754101 0.178955,0 0.334819,0.2770913 0.334819,0.6754101 0,0.3983188 -0.155864,0.6754101 -0.334819,0.6754101 z m 0,-0.5676524 c 0.06735,0 0.115455,-0.044258 0.115455,-0.1077577 0,-0.061576 -0.04811,-0.1039093 -0.115455,-0.1039093 -0.06735,0 -0.11353,0.042333 -0.11353,0.1039093 0,0.0635 0.04618,0.1077577 0.11353,0.1077577 z"
         style="-inkscape-font-specification:'Victor Mono';fill:#000000"
         id="path17529" />
    </g>
    <g
       aria-label="0  0  0  1    1    0"
       id="text985"
       style="font-size:2.11667px;fill:#aaaaaa;stroke-width:0.264583">
      <path
         d="m 2.2600162,7.7876139 c 0.2616974,0 0.4675916,-0.3251975 0.4675916,-0.7966376 0,-0.4714401 -0.2058942,-0.7966375 -0.4675916,-0.7966375 -0.2616974,0 -0.4656674,0.3251974 -0.4656674,0.7966375 0,0.4714401 0.20397,0.7966376 0.4656674,0.7966376 z m 0,-0.1212274 c -0.1789548,0 -0.3328944,-0.2770914 -0.3328944,-0.6754102 0,-0.3983188 0.1539396,-0.6754101 0.3328944,-0.6754101 0.1789548,0 0.3348187,0.2770913 0.3348187,0.6754101 0,0.3983188 -0.1558639,0.6754102 -0.3348187,0.6754102 z m 0,-0.5676524 c 0.067349,0 0.1154547,-0.044258 0.1154547,-0.1077578 0,-0.061576 -0.048106,-0.1039092 -0.1154547,-0.1039092 -0.067349,0 -0.1135305,0.042333 -0.1135305,0.1039092 0,0.0635 0.046182,0.1077578 0.1135305,0.1077578 z"
         style="-inkscape-font-specification:'Victor Mono';fill:#000000"
         id="path17544" />
      <path
         d="m 5.7236545,7.7876139 c 0.2616974,0 0.4675916,-0.3251975 0.4675916,-0.7966376 0,-0.4714401 -0.2058942,-0.7966375 -0.4675916,-0.7966375 -0.2616974,0 -0.4656674,0.3251974 -0.4656674,0.7966375 0,0.4714401 0.20397,0.7966376 0.4656674,0.7966376 z m 0,-0.1212274 c -0.1789548,0 -0.3328944,-0.2770914 -0.3328944,-0.6754102 0,-0.3983188 0.1539396,-0.6754101 0.3328944,-0.6754101 0.1789548,0 0.3348187,0.2770913 0.3348187,0.6754101 0,0.3983188 -0.1558639,0.6754102 -0.3348187,0.6754102 z m 0,-0.5676524 c 0.067349,0 0.1154547,-0.044258 0.1154547,-0.1077578 0,-0.061576 -0.048106,-0.1039092 -0.1154547,-0.1039092 -0.067349,0 -0.1135305,0.042333 -0.1135305,0.1039092 0,0.0635 0.046182,0.1077578 0.1135305,0.1077578 z"
         style="-inkscape-font-specification:'Victor Mono';fill:#000000"
         id="path17546" />
      <path
         d="m 9.1872928,7.7876139 c 0.2616974,0 0.4675916,-0.3251975 0.4675916,-0.7966376 0,-0.4714401 -0.2058942,-0.7966375 -0.4675916,-0.7966375 -0.2616974,0 -0.4656674,0.3251974 -0.4656674,0.7966375 0,0.4714401 0.20397,0.7966376 0.4656674,0.7966376 z m 0,-0.1212274 c -0.1789548,0 -0.3328944,-0.2770914 -0.3328944,-0.6754102 0,-0.3983188 0.1539396,-0.6754101 0.3328944,-0.6754101 0.1789548,0 0.3348187,0.2770913 0.3348187,0.6754101 0,0.3983188 -0.1558639,0.6754102 -0.3348187,0.6754102 z m 0,-0.5676524 c 0.067349,0 0.1154547,-0.044258 0.1154547,-0.1077578 0,-0.061576 -0.048106,-0.1039092 -0.1154547,-0.1039092 -0.067349,0 -0.1135305,0.042333 -0.1135305,0.1039092 0,0.0635 0.046182,0.1077578 0.1135305,0.1077578 z"
         style="-inkscape-font-specification:'Victor Mono';fill:#000000"
         id="path17548" />
      <path
         d="m 12.71828,6.2212782 h -0.134697 c 0,0.188576 -0.117379,0.3021065 -0.309804,0.3021065 v 0.1231517 c 0.128924,0 0.234758,-0.038485 0.311728,-0.1058335 V 7.639447 h -0.273243 v 0.1212275 h 0.679259 V 7.639447 H 12.71828 Z"
         style="-inkscape-font-specification:'Victor Mono';fill:#000000"
         id="path17550" />
      <path
         d="m 18.491011,6.2212782 h -0.134697 c 0,0.188576 -0.117379,0.3021065 -0.309803,0.3021065 v 0.1231517 c 0.128924,0 0.234758,-0.038485 0.311728,-0.1058335 V 7.639447 h -0.273243 v 0.1212275 h 0.679258 V 7.639447 h -0.273243 z"
         style="-inkscape-font-specification:'Victor Mono';fill:#000000"
         id="path17552" />
      <path
         d="m 24.196393,7.7876139 c 0.261697,0 0.467591,-0.3251975 0.467591,-0.7966376 0,-0.4714401 -0.205894,-0.7966375 -0.467591,-0.7966375 -0.261698,0 -0.465668,0.3251974 -0.465668,0.7966375 0,0.4714401 0.20397,0.7966376 0.465668,0.7966376 z m 0,-0.1212274 c -0.178955,0 -0.332895,-0.2770914 -0.332895,-0.6754102 0,-0.3983188 0.15394,-0.6754101 0.332895,-0.6754101 0.178955,0 0.334818,0.2770913 0.334818,0.6754101 0,0.3983188 -0.155863,0.6754102 -0.334818,0.6754102 z m 0,-0.5676524 c 0.06735,0 0.115454,-0.044258 0.115454,-0.1077578 0,-0.061576 -0.04811,-0.1039092 -0.115454,-0.1039092 -0.06735,0 -0.113531,0.042333 -0.113531,0.1039092 0,0.0635 0.04618,0.1077578 0.113531,0.1077578 z"
         style="-inkscape-font-specification:'Victor Mono';fill:#000000"
         id="path17554" />
    </g>
    <g
       aria-label="0  0  0  1    0    1"
       id="text989"
       style="font-size:2.11667px;fill:#aaaaaa;stroke-width:0.264583">
      <path
         d="m 2.3235164,10.42212 c 0.2616973,0 0.4675916,-0.325197 0.4675916,-0.7966374 0,-0.4714402 -0.2058943,-0.7966376 -0.4675916,-0.7966376 -0.2616974,0 -0.4656674,0.3251974 -0.4656674,0.7966376 0,0.4714404 0.20397,0.7966374 0.4656674,0.7966374 z m 0,-0.121227 c -0.1789548,0 -0.3328945,-0.277092 -0.3328945,-0.6754104 0,-0.3983188 0.1539397,-0.6754102 0.3328945,-0.6754102 0.1789548,0 0.3348187,0.2770914 0.3348187,0.6754102 0,0.3983184 -0.1558639,0.6754104 -0.3348187,0.6754104 z m 0,-0.5676527 c 0.067349,0 0.1154547,-0.044258 0.1154547,-0.1077577 0,-0.061576 -0.048106,-0.1039093 -0.1154547,-0.1039093 -0.067349,0 -0.1135305,0.042333 -0.1135305,0.1039093 0,0.0635 0.046182,0.1077577 0.1135305,0.1077577 z"
         style="-inkscape-font-specification:'Victor Mono';fill:#000000"
         id="path17569" />
      <path
         d="m 5.7871547,10.42212 c 0.2616973,0 0.4675916,-0.325197 0.4675916,-0.7966374 0,-0.4714402 -0.2058943,-0.7966376 -0.4675916,-0.7966376 -0.2616974,0 -0.4656674,0.3251974 -0.4656674,0.7966376 0,0.4714404 0.20397,0.7966374 0.4656674,0.7966374 z m 0,-0.121227 c -0.1789548,0 -0.3328945,-0.277092 -0.3328945,-0.6754104 0,-0.3983188 0.1539397,-0.6754102 0.3328945,-0.6754102 0.1789548,0 0.3348187,0.2770914 0.3348187,0.6754102 0,0.3983184 -0.1558639,0.6754104 -0.3348187,0.6754104 z m 0,-0.5676527 c 0.067349,0 0.1154547,-0.044258 0.1154547,-0.1077577 0,-0.061576 -0.048106,-0.1039093 -0.1154547,-0.1039093 -0.067349,0 -0.1135305,0.042333 -0.1135305,0.1039093 0,0.0635 0.046182,0.1077577 0.1135305,0.1077577 z"
         style="-inkscape-font-specification:'Victor Mono';fill:#000000"
         id="path17571" />
      <path
         d="m 9.250793,10.42212 c 0.2616973,0 0.4675916,-0.325197 0.4675916,-0.7966374 0,-0.4714402 -0.2058943,-0.7966376 -0.4675916,-0.7966376 -0.2616974,0 -0.4656674,0.3251974 -0.4656674,0.7966376 0,0.4714404 0.20397,0.7966374 0.4656674,0.7966374 z m 0,-0.121227 c -0.1789548,0 -0.3328945,-0.277092 -0.3328945,-0.6754104 0,-0.3983188 0.1539397,-0.6754102 0.3328945,-0.6754102 0.1789548,0 0.3348187,0.2770914 0.3348187,0.6754102 0,0.3983184 -0.1558639,0.6754104 -0.3348187,0.6754104 z m 0,-0.5676527 c 0.067349,0 0.1154547,-0.044258 0.1154547,-0.1077577 0,-0.061576 -0.048106,-0.1039093 -0.1154547,-0.1039093 -0.067349,0 -0.1135305,0.042333 -0.1135305,0.1039093 0,0.0635 0.046182,0.1077577 0.1135305,0.1077577 z"
         style="-inkscape-font-specification:'Victor Mono';fill:#000000"
         id="path17573" />
      <path
         d="m 12.78178,8.8557844 h -0.134697 c 0,0.1885761 -0.117379,0.3021065 -0.309804,0.3021065 v 0.1231517 c 0.128925,0 0.234758,-0.038485 0.311728,-0.1058335 v 1.0987439 h -0.273243 v 0.121228 h 0.679259 V 10.273953 H 12.78178 Z"
         style="-inkscape-font-specification:'Victor Mono';fill:#000000"
         id="path17575" />
      <path
         d="m 18.487163,10.42212 c 0.261697,0 0.467592,-0.325197 0.467592,-0.7966374 0,-0.4714402 -0.205895,-0.7966376 -0.467592,-0.7966376 -0.261697,0 -0.465667,0.3251974 -0.465667,0.7966376 0,0.4714404 0.20397,0.7966374 0.465667,0.7966374 z m 0,-0.121227 c -0.178955,0 -0.332894,-0.277092 -0.332894,-0.6754104 0,-0.3983188 0.153939,-0.6754102 0.332894,-0.6754102 0.178955,0 0.334819,0.2770914 0.334819,0.6754102 0,0.3983184 -0.155864,0.6754104 -0.334819,0.6754104 z m 0,-0.5676527 c 0.06735,0 0.115455,-0.044258 0.115455,-0.1077577 0,-0.061576 -0.04811,-0.1039093 -0.115455,-0.1039093 -0.06735,0 -0.11353,0.042333 -0.11353,0.1039093 0,0.0635 0.04618,0.1077577 0.11353,0.1077577 z"
         style="-inkscape-font-specification:'Victor Mono';fill:#000000"
         id="path17577" />
      <path
         d="m 24.327242,8.8557844 h -0.134698 c 0,0.1885761 -0.117379,0.3021065 -0.309803,0.3021065 v 0.1231517 c 0.128924,0 0.234758,-0.038485 0.311728,-0.1058335 v 1.0987439 h -0.273243 v 0.121228 h 0.679258 v -0.121228 h -0.273242 z"
         style="-inkscape-font-specification:'Victor Mono';fill:#000000"
         id="path17579" />
    </g>
    <g
       aria-label="0  1  0  0    0    1"
       id="text993"
       style="font-size:2.11667px;fill:#aaaaaa;stroke-width:0.264583">
      <path
         d="m 2.3235164,13.056626 c 0.2616973,0 0.4675916,-0.325197 0.4675916,-0.796637 0,-0.47144 -0.2058943,-0.796638 -0.4675916,-0.796638 -0.2616974,0 -0.4656674,0.325198 -0.4656674,0.796638 0,0.47144 0.20397,0.796637 0.4656674,0.796637 z m 0,-0.121227 c -0.1789548,0 -0.3328945,-0.277091 -0.3328945,-0.67541 0,-0.398319 0.1539397,-0.67541 0.3328945,-0.67541 0.1789548,0 0.3348187,0.277091 0.3348187,0.67541 0,0.398319 -0.1558639,0.67541 -0.3348187,0.67541 z m 0,-0.567652 c 0.067349,0 0.1154547,-0.04426 0.1154547,-0.107758 0,-0.06158 -0.048106,-0.103909 -0.1154547,-0.103909 -0.067349,0 -0.1135305,0.04233 -0.1135305,0.103909 0,0.0635 0.046182,0.107758 0.1135305,0.107758 z"
         style="-inkscape-font-specification:'Victor Mono';fill:#000000"
         id="path17594" />
      <path
         d="M 5.8545033,11.490291 H 5.7198061 c 0,0.188576 -0.117379,0.302106 -0.3098035,0.302106 v 0.123152 c 0.1289244,0 0.2347579,-0.03848 0.3117277,-0.105834 v 1.098744 H 5.4484875 v 0.121228 H 6.1277461 V 12.908459 H 5.8545033 Z"
         style="-inkscape-font-specification:'Victor Mono';fill:#000000"
         id="path17596" />
      <path
         d="m 9.250793,13.056626 c 0.2616973,0 0.4675916,-0.325197 0.4675916,-0.796637 0,-0.47144 -0.2058943,-0.796638 -0.4675916,-0.796638 -0.2616974,0 -0.4656674,0.325198 -0.4656674,0.796638 0,0.47144 0.20397,0.796637 0.4656674,0.796637 z m 0,-0.121227 c -0.1789548,0 -0.3328945,-0.277091 -0.3328945,-0.67541 0,-0.398319 0.1539397,-0.67541 0.3328945,-0.67541 0.1789548,0 0.3348187,0.277091 0.3348187,0.67541 0,0.398319 -0.1558639,0.67541 -0.3348187,0.67541 z m 0,-0.567652 c 0.067349,0 0.1154547,-0.04426 0.1154547,-0.107758 0,-0.06158 -0.048106,-0.103909 -0.1154547,-0.103909 -0.067349,0 -0.1135305,0.04233 -0.1135305,0.103909 0,0.0635 0.046182,0.107758 0.1135305,0.107758 z"
         style="-inkscape-font-specification:'Victor Mono';fill:#000000"
         id="path17598" />
      <path
         d="m 12.714431,13.056626 c 0.261698,0 0.467592,-0.325197 0.467592,-0.796637 0,-0.47144 -0.205894,-0.796638 -0.467592,-0.796638 -0.261697,0 -0.465667,0.325198 -0.465667,0.796638 0,0.47144 0.20397,0.796637 0.465667,0.796637 z m 0,-0.121227 c -0.178955,0 -0.332894,-0.277091 -0.332894,-0.67541 0,-0.398319 0.153939,-0.67541 0.332894,-0.67541 0.178955,0 0.334819,0.277091 0.334819,0.67541 0,0.398319 -0.155864,0.67541 -0.334819,0.67541 z m 0,-0.567652 c 0.06735,0 0.115455,-0.04426 0.115455,-0.107758 0,-0.06158 -0.04811,-0.103909 -0.115455,-0.103909 -0.06735,0 -0.11353,0.04233 -0.11353,0.103909 0,0.0635 0.04618,0.107758 0.11353,0.107758 z"
         style="-inkscape-font-specification:'Victor Mono';fill:#000000"
         id="path17600" />
      <path
         d="m 18.487163,13.056626 c 0.261697,0 0.467592,-0.325197 0.467592,-0.796637 0,-0.47144 -0.205895,-0.796638 -0.467592,-0.796638 -0.261697,0 -0.465667,0.325198 -0.465667,0.796638 0,0.47144 0.20397,0.796637 0.465667,0.796637 z m 0,-0.121227 c -0.178955,0 -0.332894,-0.277091 -0.332894,-0.67541 0,-0.398319 0.153939,-0.67541 0.332894,-0.67541 0.178955,0 0.334819,0.277091 0.334819,0.67541 0,0.398319 -0.155864,0.67541 -0.334819,0.67541 z m 0,-0.567652 c 0.06735,0 0.115455,-0.04426 0.115455,-0.107758 0,-0.06158 -0.04811,-0.103909 -0.115455,-0.103909 -0.06735,0 -0.11353,0.04233 -0.11353,0.103909 0,0.0635 0.04618,0.107758 0.11353,0.107758 z"
         style="-inkscape-font-specification:'Victor Mono';fill:#000000"
         id="path17602" />
      <path
         d="m 24.327242,11.490291 h -0.134698 c 0,0.188576 -0.117379,0.302106 -0.309803,0.302106 v 0.123152 c 0.128924,0 0.234758,-0.03848 0.311728,-0.105834 v 1.098744 h -0.273243 v 0.121228 h 0.679258 v -0.121228 h -0.273242 z"
         style="-inkscape-font-specification:'Victor Mono';fill:#000000"
         id="path17604" />
    </g>
    <path
       id="use1021"
       d="m 47.983766,7.7486908 c 0.398013,0 0.779778,-0.1581389 1.061216,-0.4395885 0.281438,-0.2814494 0.43957,-0.6632305 0.43957,-1.0612602 0,-0.3980296 -0.158132,-0.7798107 -0.43957,-1.0612601 -0.281438,-0.2814496 -0.663203,-0.4395885 -1.061216,-0.4395885 -0.398012,0 -0.779778,0.1581389 -1.061215,0.4395885 -0.281438,0.2814494 -0.43957,0.6632305 -0.43957,1.0612601 0,0.3980297 0.158132,0.7798108 0.43957,1.0612602 0.281437,0.2814496 0.663203,0.4395885 1.061215,0.4395885 z"
       style="fill:#1f78b4;stroke:#1f78b4;stroke-width:0.173299;stroke-linecap:butt;stroke-linejoin:round" />
    <path
       id="use1023"
       d="m 45.993977,12.789373 c 0.398014,0 0.779779,-0.158139 1.061216,-0.439588 0.281438,-0.28145 0.439571,-0.663231 0.439571,-1.06126 0,-0.39803 -0.158133,-0.779811 -0.439571,-1.061261 -0.281437,-0.2814492 -0.663202,-0.4395881 -1.061216,-0.4395881 -0.398013,0 -0.779778,0.1581389 -1.061215,0.4395881 -0.281438,0.28145 -0.439571,0.663231 -0.439571,1.061261 0,0.398029 0.158133,0.77981 0.439571,1.06126 0.281437,0.281449 0.663202,0.439588 1.061215,0.439588 z"
       style="fill:#1f78b4;stroke:#1f78b4;stroke-width:0.173299;stroke-linecap:butt;stroke-linejoin:round" />
    <path
       id="use1025"
       d="m 50.662413,12.138103 c 0.398014,0 0.779779,-0.158139 1.061216,-0.439589 0.281438,-0.281449 0.439571,-0.66323 0.439571,-1.06126 0,-0.39803 -0.158133,-0.7798107 -0.439571,-1.0612602 -0.281437,-0.2814496 -0.663202,-0.4395885 -1.061216,-0.4395885 -0.398012,0 -0.779778,0.1581389 -1.061215,0.4395885 -0.281438,0.2814495 -0.43957,0.6632302 -0.43957,1.0612602 0,0.39803 0.158132,0.779811 0.43957,1.06126 0.281437,0.28145 0.663203,0.439589 1.061215,0.439589 z"
       style="fill:#1f78b4;stroke:#1f78b4;stroke-width:0.173299;stroke-linecap:butt;stroke-linejoin:round" />
    <path
       id="use1027"
       d="m 36.758858,13.295639 c 0.398029,0 0.77981,-0.158145 1.06126,-0.439607 0.281449,-0.281461 0.439588,-0.663258 0.439588,-1.061305 0,-0.398046 -0.158139,-0.779843 -0.439588,-1.061304 -0.28145,-0.281461 -0.663231,-0.439606 -1.06126,-0.439606 -0.39803,0 -0.779811,0.158145 -1.061261,0.439606 -0.281449,0.281461 -0.439588,0.663258 -0.439588,1.061304 0,0.398047 0.158139,0.779844 0.439588,1.061305 0.28145,0.281462 0.663231,0.439607 1.061261,0.439607 z"
       style="fill:#1f78b4;stroke:#1f78b4;stroke-width:0.173307;stroke-linecap:butt;stroke-linejoin:round" />
    <path
       id="use1029"
       d="m 51.804113,17.09212 c 0.398012,0 0.779778,-0.158138 1.061215,-0.439588 0.281438,-0.28145 0.43957,-0.66323 0.43957,-1.06126 0,-0.39803 -0.158132,-0.779811 -0.43957,-1.061261 -0.281437,-0.281449 -0.663203,-0.439588 -1.061215,-0.439588 -0.398013,0 -0.779779,0.158139 -1.061216,0.439588 -0.281438,0.28145 -0.43957,0.663231 -0.43957,1.061261 0,0.39803 0.158132,0.77981 0.43957,1.06126 0.281437,0.28145 0.663203,0.439588 1.061216,0.439588 z"
       style="fill:#1f78b4;stroke:#1f78b4;stroke-width:0.173299;stroke-linecap:butt;stroke-linejoin:round" />
    <path
       id="use1031"
       d="m 54.481388,21.289901 c 0.398013,0 0.779778,-0.158139 1.061216,-0.439589 0.281438,-0.281449 0.43957,-0.66323 0.43957,-1.06126 0,-0.39803 -0.158132,-0.779811 -0.43957,-1.06126 -0.281438,-0.28145 -0.663203,-0.439589 -1.061216,-0.439589 -0.398013,0 -0.779778,0.158139 -1.061215,0.439589 -0.281438,0.281449 -0.43957,0.66323 -0.43957,1.06126 0,0.39803 0.158132,0.779811 0.43957,1.06126 0.281437,0.28145 0.663202,0.439589 1.061215,0.439589 z"
       style="fill:#1f78b4;stroke:#1f78b4;stroke-width:0.173299;stroke-linecap:butt;stroke-linejoin:round" />
    <path
       id="use1033"
       d="m 57.376672,17.65212 c 0.398013,0 0.779778,-0.158139 1.061216,-0.439589 0.281438,-0.281449 0.43957,-0.66323 0.43957,-1.06126 0,-0.39803 -0.158132,-0.779811 -0.43957,-1.06126 -0.281438,-0.28145 -0.663203,-0.439589 -1.061216,-0.439589 -0.398013,0 -0.779778,0.158139 -1.061216,0.439589 -0.281438,0.281449 -0.43957,0.66323 -0.43957,1.06126 0,0.39803 0.158132,0.779811 0.43957,1.06126 0.281438,0.28145 0.663203,0.439589 1.061216,0.439589 z"
       style="fill:#1f78b4;stroke:#1f78b4;stroke-width:0.173299;stroke-linecap:butt;stroke-linejoin:round" />
    <path
       id="use1035"
       d="m 52.176415,5.1016462 c 0.398014,0 0.779779,-0.1581389 1.061216,-0.4395884 0.281438,-0.2814494 0.43957,-0.6632305 0.43957,-1.0612603 0,-0.3980296 -0.158132,-0.7798107 -0.43957,-1.0612601 C 52.956194,2.2580878 52.574429,2.099949 52.176415,2.099949 c -0.398013,0 -0.779778,0.1581388 -1.061216,0.4395884 -0.281437,0.2814494 -0.43957,0.6632305 -0.43957,1.0612601 0,0.3980298 0.158133,0.7798109 0.43957,1.0612603 0.281438,0.2814495 0.663203,0.4395884 1.061216,0.4395884 z"
       style="fill:#1f78b4;stroke:#1f78b4;stroke-width:0.173299;stroke-linecap:butt;stroke-linejoin:round" />
    <path
       id="use1037"
       d="m 46.651577,4.3218928 c 0.398012,0 0.779778,-0.1581388 1.061215,-0.4395884 0.281438,-0.2814494 0.43957,-0.6632305 0.43957,-1.0612602 0,-0.3980297 -0.158132,-0.7798108 -0.43957,-1.0612601 -0.281437,-0.2814496 -0.663203,-0.4395885 -1.061215,-0.4395885 -0.398013,0 -0.779778,0.1581389 -1.061216,0.4395885 -0.281438,0.2814493 -0.43957,0.6632304 -0.43957,1.0612601 0,0.3980297 0.158132,0.7798108 0.43957,1.0612602 0.281438,0.2814496 0.663203,0.4395884 1.061216,0.4395884 z"
       style="fill:#1f78b4;stroke:#1f78b4;stroke-width:0.173299;stroke-linecap:butt;stroke-linejoin:round" />
    <path
       id="use1039"
       d="m 33.704112,16.200039 c 0.39803,0 0.779811,-0.158145 1.06126,-0.439607 0.28145,-0.281461 0.439589,-0.663258 0.439589,-1.061305 0,-0.398046 -0.158139,-0.779843 -0.439589,-1.061304 -0.281449,-0.281461 -0.66323,-0.439607 -1.06126,-0.439607 -0.39803,0 -0.779811,0.158146 -1.06126,0.439607 -0.28145,0.281461 -0.439588,0.663258 -0.439588,1.061304 0,0.398047 0.158138,0.779844 0.439588,1.061305 0.281449,0.281462 0.66323,0.439607 1.06126,0.439607 z"
       style="fill:#1f78b4;stroke:#1f78b4;stroke-width:0.173307;stroke-linecap:butt;stroke-linejoin:round" />
    <path
       id="use1041"
       d="m 30.509274,13.652372 c 0.39803,0 0.779811,-0.158146 1.061261,-0.439607 0.281449,-0.281461 0.439588,-0.663259 0.439588,-1.061305 0,-0.398046 -0.158139,-0.779843 -0.439588,-1.061304 -0.28145,-0.281461 -0.663231,-0.439607 -1.061261,-0.439607 -0.398029,0 -0.77981,0.158146 -1.06126,0.439607 -0.281449,0.281461 -0.439588,0.663258 -0.439588,1.061304 0,0.398046 0.158139,0.779844 0.439588,1.061305 0.28145,0.281461 0.663231,0.439607 1.06126,0.439607 z"
       style="fill:#1f78b4;stroke:#1f78b4;stroke-width:0.173307;stroke-linecap:butt;stroke-linejoin:round" />
    <path
       id="use1043"
       d="m 32.506424,10.803294 c 0.39803,0 0.779811,-0.158146 1.06126,-0.439607 0.28145,-0.281462 0.439589,-0.6632587 0.439589,-1.0613048 0,-0.398046 -0.158139,-0.7798432 -0.439589,-1.0613047 -0.281449,-0.2814608 -0.66323,-0.4396068 -1.06126,-0.4396068 -0.39803,0 -0.779811,0.158146 -1.06126,0.4396068 -0.28145,0.2814615 -0.439588,0.6632587 -0.439588,1.0613047 0,0.3980461 0.158138,0.7798428 0.439588,1.0613048 0.281449,0.281461 0.66323,0.439607 1.06126,0.439607 z"
       style="fill:#1f78b4;stroke:#1f78b4;stroke-width:0.173307;stroke-linecap:butt;stroke-linejoin:round" />
    <path
       id="use1045"
       d="m 57.0911,24.47448 c 0.398013,0 0.779779,-0.158139 1.061216,-0.439588 0.281437,-0.28145 0.43957,-0.663231 0.43957,-1.06126 0,-0.39803 -0.158133,-0.779811 -0.43957,-1.061261 -0.281437,-0.281449 -0.663203,-0.439588 -1.061216,-0.439588 -0.398013,0 -0.779778,0.158139 -1.061216,0.439588 -0.281437,0.28145 -0.43957,0.663231 -0.43957,1.061261 0,0.398029 0.158133,0.77981 0.43957,1.06126 0.281438,0.281449 0.663203,0.439588 1.061216,0.439588 z"
       style="fill:#1f78b4;stroke:#1f78b4;stroke-width:0.173299;stroke-linecap:butt;stroke-linejoin:round" />
    <text
       xml:space="preserve"
       transform="matrix(0.26458333,0,0,0.26458334,29.186358,1.4981274)"
       id="text2803"
       style="font-style:normal;font-weight:normal;font-size:40px;line-height:1.25;font-family:sans-serif;white-space:pre;shape-inside:url(#rect2805);display:inline;fill:#000000;fill-opacity:1;stroke:none;stroke-linecap:butt;stroke-linejoin:round" />
    <g
       aria-label="10"
       id="text2815"
       style="font-size:25.0005px;stroke-width:3.75008;stroke-linecap:butt;stroke-linejoin:round"
       transform="matrix(0.07055258,0,0,0.07055553,27.688803,0.70719752)">
      <path
         d="m 122.52317,148.05506 h -2.65915 c 0,2.43187 -1.18184,3.5228 -3.63643,3.5228 v 2.43187 c 1.45457,0 2.7046,-0.31819 3.68189,-0.88638 v 10.70475 h -3.22734 v 2.40914 h 9.06837 v -2.40914 h -3.22734 z"
         style="-inkscape-font-specification:'Victor Mono Bold';fill:#ffffff;stroke-linecap:butt;stroke-linejoin:round"
         id="path17244" />
      <path
         d="m 134.84158,166.55543 c 3.43189,0 6.04558,-4.04553 6.04558,-9.40928 0,-5.36374 -2.61369,-9.40928 -6.04558,-9.40928 -3.43188,0 -6.02284,4.04554 -6.02284,9.40928 0,5.36375 2.59096,9.40928 6.02284,9.40928 z m 0,-2.40914 c -1.75003,0 -3.40916,-3.06824 -3.40916,-7.00014 0,-3.93189 1.65913,-7.00014 3.40916,-7.00014 1.75004,0 3.40916,3.06825 3.40916,7.00014 0,3.9319 -1.65912,7.00014 -3.40916,7.00014 z m 0,-5.2501 c 1.09093,0 1.88641,-0.72729 1.88641,-1.75004 0,-1.00002 -0.79548,-1.70458 -1.88641,-1.70458 -1.09093,0 -1.86367,0.70456 -1.86367,1.70458 0,1.02275 0.77274,1.75004 1.86367,1.75004 z"
         style="-inkscape-font-specification:'Victor Mono Bold';fill:#ffffff;stroke-linecap:butt;stroke-linejoin:round"
         id="path17246" />
    </g>
    <g
       aria-label="5"
       id="text2815-3"
       style="font-size:25.0005px;stroke-width:3.75008;stroke-linecap:butt;stroke-linejoin:round"
       transform="matrix(0.07055258,0,0,0.07055553,27.688803,0.70719752)">
      <path
         d="m 259.30663,159.2218 c 4.52282,0 6.15921,-1.68185 6.15921,-6.2274 0,-4.75009 -1.63639,-6.25012 -6.15921,-6.25012 -1.15911,0 -2.0455,0.15909 -2.79551,0.52273 v -4.15917 h 8.38653 v -2.38641 h -11.00022 v 9.8411 h 2.13641 c 1.4773,-1.09093 2.15913,-1.40911 3.27279,-1.40911 2.81824,0 3.5228,0.63637 3.5228,3.84098 0,3.02279 -0.70456,3.81826 -3.5228,3.81826 -2.93188,0 -3.22734,-0.59092 -3.22734,-3.09097 h -2.63641 c 0,4.09099 1.29548,5.50011 5.86375,5.50011 z"
         style="-inkscape-font-specification:'Victor Mono Bold';fill:#ffffff;stroke-linecap:butt;stroke-linejoin:round"
         id="path17268" />
    </g>
    <g
       aria-label="7"
       id="text2815-7"
       style="font-size:25.0005px;stroke-width:3.75008;stroke-linecap:butt;stroke-linejoin:round"
       transform="matrix(0.07055258,0,0,0.07055553,27.688803,0.70719752)">
      <path
         d="m 286.31636,87.619942 c 1.45457,-5.977392 3.95462,-10.022928 7.22741,-15.773043 V 69.43776 h -11.77296 v 2.409139 h 8.84109 c -3.13643,5.636476 -5.61375,9.977472 -6.97742,15.773043 z"
         style="-inkscape-font-specification:'Victor Mono Bold';fill:#ffffff;stroke-linecap:butt;stroke-linejoin:round"
         id="path17258" />
    </g>
    <g
       aria-label="8"
       id="text2815-35"
       style="font-size:25.0005px;stroke-width:3.75008;stroke-linecap:butt;stroke-linejoin:round"
       transform="matrix(0.07055258,0,0,0.07055553,27.688803,0.70719752)">
      <path
         d="m 268.76369,39.36932 c 4.45464,0 6.0683,-1.545485 6.0683,-5.545565 0,-2.477322 -0.50001,-3.545525 -1.8864,-4.50009 1.00002,-0.840926 1.36367,-1.727307 1.36367,-3.750075 0,-3.590981 -1.50003,-5.022828 -5.54557,-5.022828 -4.04553,0 -5.52284,1.431847 -5.52284,5.022828 0,2.022768 0.34092,2.909149 1.34094,3.750075 -1.38639,0.954565 -1.86367,2.022768 -1.86367,4.50009 0,4.00008 1.59094,5.545565 6.04557,5.545565 z m 0,-11.136586 c -2.36368,0 -2.90915,-0.272733 -2.90915,-2.659144 0,-2.022768 0.54547,-2.613689 2.90915,-2.613689 2.36369,0 2.93188,0.590921 2.93188,2.613689 0,2.386411 -0.56819,2.659144 -2.93188,2.659144 z m 0,8.727447 c -2.77278,0 -3.43189,-0.704559 -3.43189,-3.136426 0,-2.79551 0.65911,-3.181882 3.43189,-3.181882 2.77278,0 3.45462,0.386372 3.45462,3.181882 0,2.431867 -0.68184,3.136426 -3.45462,3.136426 z"
         style="-inkscape-font-specification:'Victor Mono Bold';fill:#ffffff;stroke-linecap:butt;stroke-linejoin:round"
         id="path17253" />
    </g>
    <g
       aria-label="9"
       id="text2815-9"
       style="font-size:25.0005px;stroke-width:3.75008;stroke-linecap:butt;stroke-linejoin:round"
       transform="matrix(0.07055258,0,0,0.07055553,27.688803,0.70719752)">
      <path
         d="m 347.0718,50.420948 c 4.36372,0 5.88648,-1.772762 5.88648,-6.522857 v -6.250125 c 0,-4.363724 -1.52276,-6.045575 -5.88648,-6.045575 -4.341,0 -5.86376,1.681851 -5.86376,6.068303 0,4.750095 1.52276,6.113758 5.86376,6.113758 1.43184,0 2.45459,-0.204549 3.27279,-0.568193 v 0.681832 c 0,3.250065 -0.70456,4.113718 -3.27279,4.113718 -2.36369,0 -3.20461,-0.409099 -3.20461,-2.045495 h -2.63642 c 0,3.272793 1.79549,4.454634 5.84103,4.454634 z m 0,-9.045635 c -2.56824,0 -3.25007,-0.477282 -3.25007,-3.704619 0,-2.863694 0.68183,-3.659164 3.25007,-3.659164 2.56823,0 3.27279,0.772742 3.27279,3.636436 0,3.250065 -0.70456,3.727347 -3.27279,3.727347 z"
         style="-inkscape-font-specification:'Victor Mono Bold';fill:#ffffff;stroke-linecap:butt;stroke-linejoin:round"
         id="path17263" />
    </g>
    <g
       aria-label="6"
       id="text2815-2"
       style="font-size:25.0005px;stroke-width:3.75008;stroke-linecap:butt;stroke-linejoin:round"
       transform="matrix(0.07055258,0,0,0.07055553,27.688803,0.70719752)">
      <path
         d="m 325.6126,150.15028 c 4.36372,0 5.88648,-1.68185 5.88648,-6.0683 0,-4.7501 -1.52276,-6.11376 -5.88648,-6.11376 -1.40912,0 -2.4546,0.20455 -3.25007,0.56819 v -0.68183 c 0,-3.25006 0.68184,-4.11372 3.25007,-4.11372 2.36368,0 3.20461,0.4091 3.20461,2.0455 h 2.63641 c 0,-3.2728 -1.77276,-4.45464 -5.84102,-4.45464 -4.341,0 -5.86375,1.77277 -5.86375,6.52286 v 6.25013 c 0,4.36372 1.52275,6.04557 5.86375,6.04557 z m 0,-2.40914 c -2.56823,0 -3.25007,-0.79547 -3.25007,-3.63643 0,-3.25007 0.68184,-3.72735 3.25007,-3.72735 2.56823,0 3.27279,0.47728 3.27279,3.70462 0,2.86369 -0.70456,3.65916 -3.27279,3.65916 z"
         style="-inkscape-font-specification:'Victor Mono Bold';fill:#ffffff;stroke-linecap:butt;stroke-linejoin:round"
         id="path17273" />
    </g>
    <g
       aria-label="4"
       id="text2815-0"
       style="font-size:25.0005px;stroke-width:3.75008;stroke-linecap:butt;stroke-linejoin:round"
       transform="matrix(0.07055258,0,0,0.07055553,27.688803,0.70719752)">
      <path
         d="m 346.19266,220.04655 v -4.591 h 1.68185 v -2.40914 h -1.68185 v -11.18204 h -2.18186 l -8.27289,11.70478 v 1.8864 h 7.84106 v 4.591 z m -2.61369,-12.93207 v 5.93193 h -4.45463 z"
         style="-inkscape-font-specification:'Victor Mono Bold';fill:#ffffff;stroke-linecap:butt;stroke-linejoin:round"
         id="path17278" />
    </g>
    <g
       aria-label="3"
       id="text2815-36"
       style="font-size:25.0005px;stroke-width:3.75008;stroke-linecap:butt;stroke-linejoin:round"
       transform="matrix(0.07055258,0,0,0.07055553,27.688803,0.70719752)">
      <path
         d="m 420.7907,228.30174 c 4.22736,0 5.72739,-1.52276 5.72739,-5.4092 0,-2.47732 -0.43183,-3.56825 -1.59094,-4.52282 1.15911,-0.88638 1.59094,-1.7273 1.59094,-3.79553 0,-3.65916 -1.54549,-5.09101 -5.72739,-5.09101 -4.45463,0 -5.72739,1.40912 -5.72739,5.47738 h 2.65915 c 0,-2.50005 0.25,-3.06824 3.06824,-3.06824 2.50005,0 3.1137,0.59092 3.1137,2.68187 0,2.25005 -0.52274,2.43187 -2.68187,2.59096 h -2.2955 v 2.40914 h 2.2955 c 2.11368,0.1591 2.68187,0.54547 2.68187,3.31825 0,2.34096 -0.63638,3.00006 -3.1137,3.00006 -2.75006,0 -3.09097,-0.63638 -3.09097,-3.09097 h -2.63642 c 0,3.97735 1.29548,5.50011 5.72739,5.50011 z"
         style="-inkscape-font-specification:'Victor Mono Bold';fill:#ffffff;stroke-linecap:butt;stroke-linejoin:round"
         id="path17283" />
    </g>
    <g
       aria-label="2"
       id="text2815-6"
       style="font-size:25.0005px;stroke-width:3.75008;stroke-linecap:butt;stroke-linejoin:round"
       transform="matrix(0.07055258,0,0,0.07055553,27.688803,0.70719752)">
      <path
         d="m 385.68129,279.70175 v -2.40914 h -9.20473 c 1.13638,-2.90915 9.25018,-5.29556 9.25018,-10.95476 0,-3.79553 -1.59094,-5.13647 -6.00012,-5.13647 -4.61373,0 -6.11376,1.50003 -5.93194,5.8183 h 2.61369 c -0.13636,-2.75005 0.38637,-3.40916 3.31825,-3.40916 2.72733,0 3.38643,0.52274 3.38643,2.72733 0,4.56827 -9.31837,6.52286 -9.31837,11.63659 v 1.72731 z"
         style="-inkscape-font-specification:'Victor Mono Bold';fill:#ffffff;stroke-linecap:butt;stroke-linejoin:round"
         id="path17288" />
    </g>
    <g
       aria-label="1"
       id="text2815-61"
       style="font-size:25.0005px;stroke-width:3.75008;stroke-linecap:butt;stroke-linejoin:round"
       transform="matrix(0.07055258,0,0,0.07055553,27.688803,0.70719752)">
      <path
         d="m 418.27718,306.49629 h -2.65914 c 0,2.43186 -1.18184,3.52279 -3.63644,3.52279 v 2.43187 c 1.45458,0 2.7046,-0.31819 3.68189,-0.88638 v 10.70476 h -3.22733 v 2.40914 h 9.06836 v -2.40914 h -3.22734 z"
         style="-inkscape-font-specification:'Victor Mono Bold';fill:#ffffff;stroke-linecap:butt;stroke-linejoin:round"
         id="path17293" />
    </g>
    <g
       aria-label="11"
       id="text2815-79"
       style="font-size:25.0005px;stroke-width:3.75008;stroke-linecap:butt;stroke-linejoin:round"
       transform="matrix(0.07055258,0,0,0.07055553,27.688803,0.70719752)">
      <path
         d="m 79.975752,189.2198 h -2.659144 c 0,2.43186 -1.181842,3.52279 -3.636436,3.52279 v 2.43187 c 1.454574,0 2.704599,-0.31819 3.681891,-0.88638 v 10.70476 h -3.227337 v 2.40914 h 9.068363 v -2.40914 h -3.227337 z"
         style="-inkscape-font-specification:'Victor Mono Bold';fill:#ffffff;stroke-linecap:butt;stroke-linejoin:round"
         id="path17235" />
      <path
         d="m 93.612375,189.2198 h -2.659144 c 0,2.43186 -1.181841,3.52279 -3.636436,3.52279 v 2.43187 c 1.454575,0 2.7046,-0.31819 3.681892,-0.88638 v 10.70476 H 87.77135 v 2.40914 h 9.068363 v -2.40914 h -3.227338 z"
         style="-inkscape-font-specification:'Victor Mono Bold';fill:#ffffff;stroke-linecap:butt;stroke-linejoin:round"
         id="path17237" />
    </g>
    <g
       aria-label="12"
       id="text2815-23"
       style="font-size:25.0005px;stroke-width:3.75008;stroke-linecap:butt;stroke-linejoin:round"
       transform="matrix(0.07055258,0,0,0.07055553,27.688803,0.70719752)">
      <path
         d="m 33.976757,153.27021 h -2.659144 c 0,2.43187 -1.181842,3.5228 -3.636436,3.5228 v 2.43187 c 1.454574,0 2.704599,-0.31819 3.681892,-0.88639 v 10.70476 h -3.227338 v 2.40914 h 9.068363 v -2.40914 h -3.227337 z"
         style="-inkscape-font-specification:'Victor Mono Bold';fill:#ffffff;stroke-linecap:butt;stroke-linejoin:round"
         id="path17226" />
      <path
         d="m 52.227109,171.45239 v -2.40914 H 43.02238 c 1.136386,-2.90915 9.250185,-5.29556 9.250185,-10.95476 0,-3.79553 -1.590941,-5.13647 -6.00012,-5.13647 -4.613729,0 -6.113759,1.50003 -5.931937,5.8183 h 2.613689 c -0.136367,-2.75005 0.386371,-3.40916 3.318248,-3.40916 2.727327,0 3.386431,0.52274 3.386431,2.72733 0,4.56827 -9.318368,6.52286 -9.318368,11.6366 v 1.7273 z"
         style="-inkscape-font-specification:'Victor Mono Bold';fill:#ffffff;stroke-linecap:butt;stroke-linejoin:round"
         id="path17228" />
    </g>
    <g
       aria-label="13"
       id="text2815-92"
       style="font-size:25.0005px;stroke-width:3.75008;stroke-linecap:butt;stroke-linejoin:round"
       transform="matrix(0.07055258,0,0,0.07055553,27.688803,0.70719752)">
      <path
         d="M 62.409014,112.73046 H 59.74987 c 0,2.43187 -1.181842,3.5228 -3.636436,3.5228 v 2.43187 c 1.454574,0 2.704599,-0.31819 3.681891,-0.88639 v 10.70476 h -3.227337 v 2.40914 h 9.068363 v -2.40914 h -3.227337 z"
         style="-inkscape-font-specification:'Victor Mono Bold';fill:#ffffff;stroke-linecap:butt;stroke-linejoin:round"
         id="path17217" />
      <path
         d="m 74.727429,131.23083 c 4.227357,0 5.727387,-1.52276 5.727387,-5.4092 0,-2.47732 -0.431826,-3.56825 -1.590941,-4.52282 1.159115,-0.88638 1.590941,-1.7273 1.590941,-3.79553 0,-3.65916 -1.545485,-5.09101 -5.727387,-5.09101 -4.454634,0 -5.727387,1.40912 -5.727387,5.47739 h 2.659144 c 0,-2.50005 0.250005,-3.06825 3.068243,-3.06825 2.50005,0 3.113699,0.59092 3.113699,2.68187 0,2.25005 -0.522738,2.43187 -2.681872,2.59097 h -2.2955 v 2.40913 h 2.2955 c 2.113679,0.1591 2.681872,0.54547 2.681872,3.31825 0,2.34096 -0.636377,3.00006 -3.113699,3.00006 -2.750055,0 -3.090971,-0.63637 -3.090971,-3.09097 h -2.636416 c 0,3.97735 1.29548,5.50011 5.727387,5.50011 z"
         style="-inkscape-font-specification:'Victor Mono Bold';fill:#ffffff;stroke-linecap:butt;stroke-linejoin:round"
         id="path17219" />
    </g>
  </g>
</svg>
