<?xml version="1.0" encoding="UTF-8" standalone="no"?>
<!-- Created with Inkscape (http://www.inkscape.org/) -->

<svg
   width="110.589"
   height="110.589"
   viewBox="0 0 184.31499 184.31499"
   version="1.1"
   id="svg1121"
   inkscape:version="1.2.2 (b0a8486541, 2022-12-01)"
   sodipodi:docname="alanine-message_passing_output.svg"
   xmlns:inkscape="http://www.inkscape.org/namespaces/inkscape"
   xmlns:sodipodi="http://sodipodi.sourceforge.net/DTD/sodipodi-0.dtd"
   xmlns="http://www.w3.org/2000/svg"
   xmlns:svg="http://www.w3.org/2000/svg">
  <sodipodi:namedview
     id="namedview1123"
     pagecolor="#2f9ed2"
     bordercolor="#666666"
     borderopacity="1.0"
     inkscape:showpageshadow="2"
     inkscape:pageopacity="1"
     inkscape:pagecheckerboard="true"
     inkscape:deskcolor="#d1d1d1"
     inkscape:document-units="mm"
     showgrid="false"
     showguides="true"
     inkscape:zoom="5.1733532"
     inkscape:cx="24.452225"
     inkscape:cy="64.658256"
     inkscape:window-width="2346"
     inkscape:window-height="1322"
     inkscape:window-x="0"
     inkscape:window-y="0"
     inkscape:window-maximized="1"
     inkscape:current-layer="layer1" />
  <defs
     id="defs1118">
    <linearGradient
       id="linearGradient6827"
       inkscape:swatch="solid">
      <stop
         style="stop-color:#ffffff;stop-opacity:1;"
         offset="0"
         id="stop6825" />
    </linearGradient>
    <clipPath
       id="p3038539573">
      <rect
         x="0"
         y="0"
         width="460.79999"
         height="345.60001"
         id="rect1052" />
    </clipPath>
    <clipPath
       id="clipPath2534">
      <rect
         x="0"
         y="0"
         width="460.79999"
         height="345.60001"
         id="rect2532" />
    </clipPath>
    <clipPath
       id="clipPath2538">
      <rect
         x="0"
         y="0"
         width="460.79999"
         height="345.60001"
         id="rect2536" />
    </clipPath>
    <clipPath
       id="clipPath2542">
      <rect
         x="0"
         y="0"
         width="460.79999"
         height="345.60001"
         id="rect2540" />
    </clipPath>
    <clipPath
       id="clipPath2546">
      <rect
         x="0"
         y="0"
         width="460.79999"
         height="345.60001"
         id="rect2544" />
    </clipPath>
    <clipPath
       id="clipPath2550">
      <rect
         x="0"
         y="0"
         width="460.79999"
         height="345.60001"
         id="rect2548" />
    </clipPath>
    <clipPath
       id="clipPath2554">
      <rect
         x="0"
         y="0"
         width="460.79999"
         height="345.60001"
         id="rect2552" />
    </clipPath>
    <clipPath
       id="clipPath2558">
      <rect
         x="0"
         y="0"
         width="460.79999"
         height="345.60001"
         id="rect2556" />
    </clipPath>
    <clipPath
       id="clipPath2562">
      <rect
         x="0"
         y="0"
         width="460.79999"
         height="345.60001"
         id="rect2560" />
    </clipPath>
    <clipPath
       id="clipPath2566">
      <rect
         x="0"
         y="0"
         width="460.79999"
         height="345.60001"
         id="rect2564" />
    </clipPath>
    <clipPath
       id="clipPath2570">
      <rect
         x="0"
         y="0"
         width="460.79999"
         height="345.60001"
         id="rect2568" />
    </clipPath>
    <clipPath
       id="clipPath2574">
      <rect
         x="0"
         y="0"
         width="460.79999"
         height="345.60001"
         id="rect2572" />
    </clipPath>
    <clipPath
       clipPathUnits="userSpaceOnUse"
       id="clipPath2429">
      <g
         id="g2433"
         transform="matrix(0.40712238,0,0,0.40710537,76.311405,93.262027)">
        <rect
           x="0.00122843"
           y="7.0451009e-05"
           width="460.78055"
           height="345.59985"
           id="rect2431"
           style="stroke-width:0.999979" />
      </g>
    </clipPath>
    <clipPath
       clipPathUnits="userSpaceOnUse"
       id="clipPath2441">
      <g
         id="g2445"
         transform="matrix(0.40713938,0,0,0.40712238,153.87643,88.967028)">
        <rect
           x="0.00122843"
           y="7.0451009e-05"
           width="460.78055"
           height="345.59985"
           id="rect2443"
           style="stroke-width:0.999979" />
      </g>
    </clipPath>
    <clipPath
       clipPathUnits="userSpaceOnUse"
       id="clipPath2447">
      <g
         id="g2451"
         transform="matrix(0.40713938,0,0,0.40712238,170.60114,46.614038)">
        <rect
           x="0.00122843"
           y="7.0451009e-05"
           width="460.78055"
           height="345.59985"
           id="rect2449"
           style="stroke-width:0.999979" />
      </g>
    </clipPath>
    <clipPath
       clipPathUnits="userSpaceOnUse"
       id="clipPath2399">
      <g
         id="g2403"
         transform="matrix(0.40713938,0,0,0.40712238,157.40498,17.792656)">
        <rect
           x="0.00122843"
           y="7.0451009e-05"
           width="460.78055"
           height="345.59985"
           id="rect2401"
           style="stroke-width:0.999979" />
      </g>
    </clipPath>
    <clipPath
       clipPathUnits="userSpaceOnUse"
       id="clipPath2405">
      <g
         id="g2409"
         transform="matrix(0.40713938,0,0,0.40712238,204.2141,24.344919)">
        <rect
           x="0.00122843"
           y="7.0451009e-05"
           width="460.78055"
           height="345.59985"
           id="rect2407"
           style="stroke-width:0.999979" />
      </g>
    </clipPath>
    <clipPath
       clipPathUnits="userSpaceOnUse"
       id="clipPath2435">
      <g
         id="g2439"
         transform="matrix(0.40713938,0,0,0.40712238,193.11141,83.498923)">
        <rect
           x="0.00122843"
           y="7.0451009e-05"
           width="460.78055"
           height="345.59985"
           id="rect2437"
           style="stroke-width:0.999979" />
      </g>
    </clipPath>
    <clipPath
       clipPathUnits="userSpaceOnUse"
       id="clipPath2423">
      <g
         id="g2427"
         transform="matrix(0.40713938,0,0,0.40712238,202.75681,125.17879)">
        <rect
           x="0.00122843"
           y="7.0451009e-05"
           width="460.78055"
           height="345.59985"
           id="rect2425"
           style="stroke-width:0.999979" />
      </g>
    </clipPath>
    <clipPath
       clipPathUnits="userSpaceOnUse"
       id="clipPath2411">
      <g
         id="g2415"
         transform="matrix(0.40713938,0,0,0.40712238,249.49949,129.79901)">
        <rect
           x="0.00122843"
           y="7.0451009e-05"
           width="460.78055"
           height="345.59985"
           id="rect2413"
           style="stroke-width:0.999979" />
      </g>
    </clipPath>
    <clipPath
       clipPathUnits="userSpaceOnUse"
       id="clipPath2417">
      <g
         id="g2421"
         transform="matrix(0.40713938,0,0,0.40712238,225.21216,160.41)">
        <rect
           x="0.00122843"
           y="7.0451009e-05"
           width="460.78055"
           height="345.59985"
           id="rect2419"
           style="stroke-width:0.999979" />
      </g>
    </clipPath>
    <clipPath
       clipPathUnits="userSpaceOnUse"
       id="clipPath2375">
      <g
         id="g2379"
         transform="matrix(0.40713938,0,0,0.40712238,244.61713,187.12727)">
        <rect
           x="0.00122843"
           y="7.0451009e-05"
           width="460.78055"
           height="345.59985"
           id="rect2377"
           style="stroke-width:0.999979" />
      </g>
    </clipPath>
    <clipPath
       clipPathUnits="userSpaceOnUse"
       id="clipPath2393">
      <g
         id="g2397"
         transform="matrix(0.40712238,0,0,0.40710537,47.996512,117.58777)">
        <rect
           x="0.00122843"
           y="7.0451009e-05"
           width="460.78055"
           height="345.59985"
           id="rect2395"
           style="stroke-width:0.999979" />
      </g>
    </clipPath>
    <clipPath
       clipPathUnits="userSpaceOnUse"
       id="clipPath2387">
      <g
         id="g2391"
         transform="matrix(0.40712238,0,0,0.40710537,23.711485,96.178718)">
        <rect
           x="0.00122843"
           y="7.0451009e-05"
           width="460.78055"
           height="345.59985"
           id="rect2389"
           style="stroke-width:0.999979" />
      </g>
    </clipPath>
    <clipPath
       clipPathUnits="userSpaceOnUse"
       id="clipPath2381">
      <g
         id="g2385"
         transform="matrix(0.40712238,0,0,0.40710537,40.535219,72.277748)">
        <rect
           x="0.00122843"
           y="7.0451009e-05"
           width="460.78055"
           height="345.59985"
           id="rect2383"
           style="stroke-width:0.999979" />
      </g>
    </clipPath>
  </defs>
  <g
     inkscape:label="Layer 1"
     inkscape:groupmode="layer"
     id="layer1"
     transform="translate(-34.098305,-7.5625)">
    <path
       style="color:#000000;fill:#ffffff;-inkscape-stroke:none"
       d="m 126.2558,7.5625 v 184.31445 h 18.07811 v -2.13476 h -15.9414 V 9.6992188 h 15.9414 V 7.5625 Z"
       id="path1672" />
    <path
       style="color:#000000;fill:#ffffff;-inkscape-stroke:none"
       d="m 200.33517,7.5625 v 2.1367188 h 15.94336 V 189.74219 h -15.94336 v 2.13476 h 18.07812 V 7.5625 Z"
       id="path1723" />
    <path
       d="m 140.54166,32.947142 c 3.20303,0 5.64241,-3.775752 5.64241,-8.781805 0,-5.006053 -2.43939,-8.781806 -5.64241,-8.781806 -3.20303,0 -5.6212,3.775753 -5.6212,8.781806 0,5.006053 2.41817,8.781805 5.6212,8.781805 z m 0,-2.248481 c -1.63333,0 -3.18182,-2.863632 -3.18182,-6.533324 0,-3.669692 1.54849,-6.533324 3.18182,-6.533324 1.63333,0 3.18181,2.863632 3.18181,6.533324 0,3.669692 -1.54848,6.533324 -3.18181,6.533324 z m 0,-4.899993 c 1.01818,0 1.7606,-0.678787 1.7606,-1.633331 0,-0.933332 -0.74242,-1.590907 -1.7606,-1.590907 -1.01818,0 -1.73939,0.657575 -1.73939,1.590907 0,0.954544 0.72121,1.633331 1.73939,1.633331 z"
       style="font-size:23.3333px;fill:#cc79a7;stroke-width:1.17025"
       id="path19631" />
    <path
       d="m 153.2689,32.947142 c 1.46364,0 1.9303,-0.445453 1.9303,-1.781815 0,-1.357574 -0.46666,-1.803028 -1.9303,-1.803028 -1.46363,0 -1.9303,0.445454 -1.9303,1.803028 0,1.336362 0.46667,1.781815 1.9303,1.781815 z"
       style="font-size:23.3333px;fill:#cc79a7;stroke-width:1.17025"
       id="path19633" />
    <path
       d="m 165.99614,32.947142 c 4.22121,0 5.74847,-1.569694 5.74847,-5.812112 0,-4.433327 -1.52726,-5.833325 -5.74847,-5.833325 -1.08181,0 -1.90908,0.148484 -2.60908,0.487878 V 17.90777 h 7.82725 v -2.227269 h -10.26664 v 9.184835 h 1.99393 c 1.37879,-1.01818 2.01515,-1.31515 3.05454,-1.31515 2.6303,0 3.28788,0.593939 3.28788,3.584844 0,2.821208 -0.65758,3.563631 -3.28788,3.563631 -2.73635,0 -3.01211,-0.551515 -3.01211,-2.884844 h -2.4606 c 0,3.818176 1.20908,5.133325 5.47271,5.133325 z"
       style="font-size:23.3333px;fill:#d55e00;fill-opacity:1;stroke-width:1.17025"
       id="path19635" />
    <path
       d="m 178.72339,32.947142 c 3.94545,0 5.34545,-1.42121 5.34545,-5.048477 0,-2.312118 -0.40303,-3.330298 -1.48485,-4.221206 1.08182,-0.827272 1.48485,-1.612119 1.48485,-3.542419 0,-3.415147 -1.44243,-4.751509 -5.34545,-4.751509 -4.15757,0 -5.34545,1.31515 -5.34545,5.112114 h 2.48182 c 0,-2.33333 0.23333,-2.863632 2.86363,-2.863632 2.33333,0 2.90605,0.551514 2.90605,2.503027 0,2.099997 -0.48787,2.269693 -2.50302,2.418178 H 176.984 V 24.8017 h 2.14242 c 1.97272,0.148484 2.50302,0.50909 2.50302,3.096965 0,2.184845 -0.59393,2.799996 -2.90605,2.799996 -2.56666,0 -2.88485,-0.593939 -2.88485,-2.884844 h -2.4606 c 0,3.712115 1.20909,5.133325 5.34545,5.133325 z"
       style="font-size:23.3333px;fill:#d55e00;fill-opacity:1;stroke-width:1.17025"
       id="path19637" />
    <path
       d="m 192.68093,15.680501 h -2.48181 c 0,2.269693 -1.10303,3.287874 -3.39394,3.287874 v 2.269693 c 1.35758,0 2.52424,-0.296969 3.43636,-0.827271 v 9.990895 h -3.01212 v 2.248481 h 8.46362 v -2.248481 h -3.01211 z"
       style="font-size:23.3333px;fill:#f0e442;stroke-width:1.17025"
       id="path19639" />
    <path
       d="m 204.17786,32.947142 c 3.20303,0 5.64241,-3.775752 5.64241,-8.781805 0,-5.006053 -2.43938,-8.781806 -5.64241,-8.781806 -3.20302,0 -5.6212,3.775753 -5.6212,8.781806 0,5.006053 2.41818,8.781805 5.6212,8.781805 z m 0,-2.248481 c -1.63333,0 -3.18181,-2.863632 -3.18181,-6.533324 0,-3.669692 1.54848,-6.533324 3.18181,-6.533324 1.63333,0 3.18181,2.863632 3.18181,6.533324 0,3.669692 -1.54848,6.533324 -3.18181,6.533324 z m 0,-4.899993 c 1.01818,0 1.7606,-0.678787 1.7606,-1.633331 0,-0.933332 -0.74242,-1.590907 -1.7606,-1.590907 -1.01818,0 -1.73939,0.657575 -1.73939,1.590907 0,0.954544 0.72121,1.633331 1.73939,1.633331 z"
       style="font-size:23.3333px;fill:#f0e442;stroke-width:1.17025"
       id="path19641" />
    <path
       d="m 141.77196,45.545716 h -2.48181 c 0,2.269693 -1.10303,3.287874 -3.39394,3.287874 v 2.269693 c 1.35758,0 2.52424,-0.296969 3.43636,-0.827271 v 9.990895 h -3.01212 v 2.248481 h 8.46363 v -2.248481 h -3.01212 z"
       style="font-size:23.3333px;-inkscape-font-specification:'Victor Mono';fill:#cc79a7;fill-opacity:1;stroke-width:1.17025"
       id="path19647" />
    <path
       d="m 153.2689,62.812357 c 1.46364,0 1.9303,-0.445454 1.9303,-1.781815 0,-1.357574 -0.46666,-1.803028 -1.9303,-1.803028 -1.46363,0 -1.9303,0.445454 -1.9303,1.803028 0,1.336361 0.46667,1.781815 1.9303,1.781815 z"
       style="font-size:23.3333px;fill:#f0e442;stroke-width:1.17025"
       id="path19649" />
    <path
       d="m 167.22644,45.545716 h -2.48181 c 0,2.269693 -1.10303,3.287874 -3.39393,3.287874 v 2.269693 c 1.35757,0 2.52423,-0.296969 3.43635,-0.827271 v 9.990895 h -3.01211 v 2.248481 h 8.46362 v -2.248481 h -3.01212 z"
       style="font-size:23.3333px;fill:#cc79a7;stroke-width:1.17025"
       id="path19651" />
    <path
       d="m 178.72339,62.812357 c 4.07272,0 5.49393,-1.569694 5.49393,-5.663628 0,-4.433327 -1.42121,-5.706052 -5.49393,-5.706052 -1.31515,0 -2.29091,0.190909 -3.03333,0.530302 v -0.636363 c 0,-3.033329 0.63636,-3.839388 3.03333,-3.839388 2.20606,0 2.9909,0.381818 2.9909,1.909088 h 2.46061 c 0,-3.054541 -1.65455,-4.15757 -5.45151,-4.15757 -4.05151,0 -5.47272,1.654543 -5.47272,6.08787 v 5.833325 c 0,4.072722 1.42121,5.642416 5.47272,5.642416 z m 0,-2.248481 c -2.39697,0 -3.03333,-0.742423 -3.03333,-3.393935 0,-3.033329 0.63636,-3.478783 3.03333,-3.478783 2.39696,0 3.05454,0.445454 3.05454,3.457571 0,2.672724 -0.65758,3.415147 -3.05454,3.415147 z"
       style="font-size:23.3333px;-inkscape-font-specification:'Victor Mono';fill:#d55e00;fill-opacity:1;stroke-width:1.17025"
       id="path19653" />
    <path
       d="m 191.45063,62.812357 c 4.15757,0 5.66363,-1.442422 5.66363,-5.17575 0,-2.312118 -0.46667,-3.309086 -1.76061,-4.199994 0.93333,-0.784847 1.27273,-1.612119 1.27273,-3.499995 0,-3.35151 -1.4,-4.687872 -5.17575,-4.687872 -3.77575,0 -5.15454,1.336362 -5.15454,4.687872 0,1.887876 0.31818,2.715148 1.25152,3.499995 -1.29394,0.890908 -1.7394,1.887876 -1.7394,4.199994 0,3.733328 1.48485,5.17575 5.64242,5.17575 z m 0,-10.393924 c -2.20606,0 -2.71515,-0.254545 -2.71515,-2.481815 0,-1.887876 0.50909,-2.43939 2.71515,-2.43939 2.20606,0 2.73636,0.551514 2.73636,2.43939 0,2.22727 -0.5303,2.481815 -2.73636,2.481815 z m 0,8.145443 c -2.58788,0 -3.20303,-0.657575 -3.20303,-2.927269 0,-2.609087 0.61515,-2.969692 3.20303,-2.969692 2.58787,0 3.22424,0.360605 3.22424,2.969692 0,2.269694 -0.63637,2.927269 -3.22424,2.927269 z"
       style="font-size:23.3333px;fill:#d55e00;stroke-width:1.17025"
       id="path19655" />
    <path
       d="m 202.88392,62.515388 c 1.35758,-5.57878 3.69091,-9.354532 6.74544,-14.721191 v -2.248481 h -10.98785 v 2.248481 h 8.2515 c -2.92727,5.260599 -5.23938,9.312108 -6.51212,14.721191 z"
       style="font-size:23.3333px;fill:#f0e442;stroke-width:1.17025"
       id="path19657" />
    <path
       d="m 140.54166,92.677572 c 3.20303,0 5.64241,-3.775752 5.64241,-8.781805 0,-5.006054 -2.43939,-8.781806 -5.64241,-8.781806 -3.20303,0 -5.6212,3.775752 -5.6212,8.781806 0,5.006053 2.41817,8.781805 5.6212,8.781805 z m 0,-2.248481 c -1.63333,0 -3.18182,-2.863633 -3.18182,-6.533324 0,-3.669692 1.54849,-6.533324 3.18182,-6.533324 1.63333,0 3.18181,2.863632 3.18181,6.533324 0,3.669691 -1.54848,6.533324 -3.18181,6.533324 z m 0,-4.899993 c 1.01818,0 1.7606,-0.678787 1.7606,-1.633331 0,-0.933332 -0.74242,-1.590907 -1.7606,-1.590907 -1.01818,0 -1.73939,0.657575 -1.73939,1.590907 0,0.954544 0.72121,1.633331 1.73939,1.633331 z"
       style="font-size:23.3333px;fill:#d55e00;stroke-width:1.17025"
       id="path19663" />
    <path
       d="m 153.2689,92.677572 c 1.46364,0 1.9303,-0.445454 1.9303,-1.781815 0,-1.357574 -0.46666,-1.803028 -1.9303,-1.803028 -1.46363,0 -1.9303,0.445454 -1.9303,1.803028 0,1.336361 0.46667,1.781815 1.9303,1.781815 z"
       style="font-size:23.3333px;fill:#d55e00;stroke-width:1.17025"
       id="path19665" />
    <path
       d="m 165.99614,92.677572 c 4.15756,0 5.66363,-1.442422 5.66363,-5.17575 0,-2.312118 -0.46666,-3.309086 -1.7606,-4.199994 0.93333,-0.784847 1.27272,-1.612119 1.27272,-3.499995 0,-3.35151 -1.39999,-4.687872 -5.17575,-4.687872 -3.77575,0 -5.15453,1.336362 -5.15453,4.687872 0,1.887876 0.31818,2.715148 1.2515,3.499995 -1.29393,0.890908 -1.73938,1.887876 -1.73938,4.199994 0,3.733328 1.48485,5.17575 5.64241,5.17575 z m 0,-10.393924 c -2.20605,0 -2.71514,-0.254545 -2.71514,-2.481815 0,-1.887876 0.50909,-2.43939 2.71514,-2.43939 2.20606,0 2.73636,0.551514 2.73636,2.43939 0,2.22727 -0.5303,2.481815 -2.73636,2.481815 z m 0,8.145443 c -2.58787,0 -3.20303,-0.657575 -3.20303,-2.927269 0,-2.609087 0.61516,-2.969692 3.20303,-2.969692 2.58788,0 3.22424,0.360605 3.22424,2.969692 0,2.269694 -0.63636,2.927269 -3.22424,2.927269 z"
       style="font-size:23.3333px;-inkscape-font-specification:'Victor Mono';fill:#cc79a7;fill-opacity:1;stroke-width:1.17025"
       id="path19667" />
    <path
       d="m 178.72339,92.677572 c 4.07272,0 5.49393,-1.654543 5.49393,-6.08787 v -5.833325 c 0,-4.072721 -1.42121,-5.642416 -5.49393,-5.642416 -4.05151,0 -5.47272,1.569695 -5.47272,5.663629 0,4.433326 1.42121,5.706052 5.47272,5.706052 1.33636,0 2.2909,-0.190909 3.05454,-0.530302 v 0.636362 c 0,3.033329 -0.65758,3.839389 -3.05454,3.839389 -2.20606,0 -2.99091,-0.381818 -2.99091,-1.909088 h -2.4606 c 0,3.054541 1.67576,4.157569 5.45151,4.157569 z m 0,-8.442412 c -2.39697,0 -3.03333,-0.445454 -3.03333,-3.45757 0,-2.672724 0.63636,-3.415147 3.03333,-3.415147 2.39696,0 3.05454,0.721211 3.05454,3.393934 0,3.033329 -0.65758,3.478783 -3.05454,3.478783 z"
       style="font-size:23.3333px;fill:#f0e442;stroke-width:1.17025"
       id="path19669" />
    <path
       d="m 191.45063,92.677572 c 4.07272,0 5.49393,-1.569694 5.49393,-5.663628 0,-4.433327 -1.42121,-5.706052 -5.49393,-5.706052 -1.31515,0 -2.29091,0.190909 -3.03333,0.530302 v -0.636363 c 0,-3.033329 0.63636,-3.839388 3.03333,-3.839388 2.20606,0 2.9909,0.381818 2.9909,1.909088 h 2.4606 c 0,-3.054541 -1.65454,-4.15757 -5.4515,-4.15757 -4.05151,0 -5.47272,1.654543 -5.47272,6.08787 v 5.833325 c 0,4.072722 1.42121,5.642416 5.47272,5.642416 z m 0,-2.248481 c -2.39697,0 -3.03333,-0.742423 -3.03333,-3.393935 0,-3.033329 0.63636,-3.478783 3.03333,-3.478783 2.39697,0 3.05454,0.445454 3.05454,3.457571 0,2.672724 -0.65757,3.415147 -3.05454,3.415147 z"
       style="font-size:23.3333px;fill:#cc79a7;stroke-width:1.17025"
       id="path19671" />
    <path
       d="m 205.40816,75.410931 h -2.48181 c 0,2.269693 -1.10303,3.287874 -3.39393,3.287874 v 2.269693 c 1.35757,0 2.52422,-0.296969 3.43635,-0.827271 v 9.990894 h -3.01212 v 2.248482 h 8.46362 v -2.248482 h -3.01211 z"
       style="font-size:23.3333px;fill:#f0e442;stroke-width:1.17025"
       id="path19673" />
    <path
       d="m 140.54166,122.54279 c 3.20303,0 5.64241,-3.77575 5.64241,-8.78181 0,-5.00605 -2.43939,-8.7818 -5.64241,-8.7818 -3.20303,0 -5.6212,3.77575 -5.6212,8.7818 0,5.00606 2.41817,8.78181 5.6212,8.78181 z m 0,-2.24848 c -1.63333,0 -3.18182,-2.86364 -3.18182,-6.53333 0,-3.66969 1.54849,-6.53332 3.18182,-6.53332 1.63333,0 3.18181,2.86363 3.18181,6.53332 0,3.66969 -1.54848,6.53333 -3.18181,6.53333 z m 0,-4.9 c 1.01818,0 1.7606,-0.67878 1.7606,-1.63333 0,-0.93333 -0.74242,-1.59091 -1.7606,-1.59091 -1.01818,0 -1.73939,0.65758 -1.73939,1.59091 0,0.95455 0.72121,1.63333 1.73939,1.63333 z"
       style="font-size:23.3333px;-inkscape-font-specification:'Victor Mono';fill:#f0e442;fill-opacity:1;stroke-width:1.17025"
       id="path19679" />
    <path
       d="m 153.2689,122.54279 c 1.46364,0 1.9303,-0.44546 1.9303,-1.78182 0,-1.35757 -0.46666,-1.80303 -1.9303,-1.80303 -1.46363,0 -1.9303,0.44546 -1.9303,1.80303 0,1.33636 0.46667,1.78182 1.9303,1.78182 z"
       style="font-size:23.3333px;-inkscape-font-specification:'Victor Mono';fill:#f0e442;fill-opacity:1;stroke-width:1.17025"
       id="path19681" />
    <path
       d="m 170.06887,122.24582 v -4.28484 h 1.56969 v -2.24849 h -1.56969 v -10.43634 h -2.03636 l -7.72121,10.92422 v 1.76061 h 7.31818 v 4.28484 z m -2.43939,-12.06968 v 5.53635 h -4.15757 z"
       style="font-size:23.3333px;fill:#cc79a7;stroke-width:1.17025"
       id="path19683" />
    <path
       d="m 178.72339,122.54279 c 4.15757,0 5.66363,-1.44242 5.66363,-5.17575 0,-2.31212 -0.46667,-3.30909 -1.76061,-4.2 0.93333,-0.78484 1.27273,-1.61212 1.27273,-3.49999 0,-3.35151 -1.4,-4.68787 -5.17575,-4.68787 -3.77575,0 -5.15454,1.33636 -5.15454,4.68787 0,1.88787 0.31818,2.71515 1.25151,3.49999 -1.29393,0.89091 -1.73939,1.88788 -1.73939,4.2 0,3.73333 1.48485,5.17575 5.64242,5.17575 z m 0,-10.39393 c -2.20606,0 -2.71515,-0.25454 -2.71515,-2.48181 0,-1.88788 0.50909,-2.43939 2.71515,-2.43939 2.20606,0 2.73636,0.55151 2.73636,2.43939 0,2.22727 -0.5303,2.48181 -2.73636,2.48181 z m 0,8.14545 c -2.58788,0 -3.20303,-0.65758 -3.20303,-2.92727 0,-2.60909 0.61515,-2.9697 3.20303,-2.9697 2.58787,0 3.22424,0.36061 3.22424,2.9697 0,2.26969 -0.63637,2.92727 -3.22424,2.92727 z"
       style="font-size:23.3333px;fill:#cc79a7;stroke-width:1.17025"
       id="path19685" />
    <path
       d="m 191.45063,122.54279 c 4.07272,0 5.49393,-1.65455 5.49393,-6.08787 v -5.83333 c 0,-4.07272 -1.42121,-5.64241 -5.49393,-5.64241 -4.05151,0 -5.47272,1.56969 -5.47272,5.66362 0,4.43333 1.42121,5.70606 5.47272,5.70606 1.33636,0 2.29091,-0.19091 3.05454,-0.53031 v 0.63637 c 0,3.03333 -0.65757,3.83939 -3.05454,3.83939 -2.20606,0 -2.9909,-0.38182 -2.9909,-1.90909 h -2.46061 c 0,3.05454 1.67576,4.15757 5.45151,4.15757 z m 0,-8.44241 c -2.39697,0 -3.03333,-0.44546 -3.03333,-3.45758 0,-2.67272 0.63636,-3.41514 3.03333,-3.41514 2.39697,0 3.05454,0.72121 3.05454,3.39393 0,3.03333 -0.65757,3.47879 -3.05454,3.47879 z"
       style="font-size:23.3333px;fill:#d55e00;stroke-width:1.17025"
       id="path19687" />
    <path
       d="m 208.25058,122.24582 v -4.28484 h 1.56969 v -2.24849 h -1.56969 v -10.43634 h -2.03636 l -7.72119,10.92422 v 1.76061 h 7.31816 v 4.28484 z m -2.43939,-12.06968 v 5.53635 h -4.15756 z"
       style="font-size:23.3333px;fill:#d55e00;stroke-width:1.17025"
       id="path19689" />
    <path
       d="m 140.54166,152.408 c 3.20303,0 5.64241,-3.77575 5.64241,-8.7818 0,-5.00606 -2.43939,-8.78181 -5.64241,-8.78181 -3.20303,0 -5.6212,3.77575 -5.6212,8.78181 0,5.00605 2.41817,8.7818 5.6212,8.7818 z m 0,-2.24848 c -1.63333,0 -3.18182,-2.86363 -3.18182,-6.53332 0,-3.66969 1.54849,-6.53333 3.18182,-6.53333 1.63333,0 3.18181,2.86364 3.18181,6.53333 0,3.66969 -1.54848,6.53332 -3.18181,6.53332 z m 0,-4.89999 c 1.01818,0 1.7606,-0.67879 1.7606,-1.63333 0,-0.93334 -0.74242,-1.59091 -1.7606,-1.59091 -1.01818,0 -1.73939,0.65757 -1.73939,1.59091 0,0.95454 0.72121,1.63333 1.73939,1.63333 z"
       style="font-size:23.3333px;-inkscape-font-specification:'Victor Mono';fill:#cc79a7;stroke-width:1.17025"
       id="path19695" />
    <path
       d="m 153.2689,152.408 c 1.46364,0 1.9303,-0.44545 1.9303,-1.78181 0,-1.35758 -0.46666,-1.80303 -1.9303,-1.80303 -1.46363,0 -1.9303,0.44545 -1.9303,1.80303 0,1.33636 0.46667,1.78181 1.9303,1.78181 z"
       style="font-size:23.3333px;fill:#d55e00;stroke-width:1.17025"
       id="path19697" />
    <path
       d="m 165.99614,152.408 c 4.15756,0 5.66363,-1.44242 5.66363,-5.17575 0,-2.31212 -0.46666,-3.30908 -1.7606,-4.19999 0.93333,-0.78485 1.27272,-1.61212 1.27272,-3.5 0,-3.35151 -1.39999,-4.68787 -5.17575,-4.68787 -3.77575,0 -5.15453,1.33636 -5.15453,4.68787 0,1.88788 0.31818,2.71515 1.2515,3.5 -1.29393,0.89091 -1.73938,1.88787 -1.73938,4.19999 0,3.73333 1.48485,5.17575 5.64241,5.17575 z m 0,-10.39392 c -2.20605,0 -2.71514,-0.25455 -2.71514,-2.48182 0,-1.88787 0.50909,-2.43939 2.71514,-2.43939 2.20606,0 2.73636,0.55152 2.73636,2.43939 0,2.22727 -0.5303,2.48182 -2.73636,2.48182 z m 0,8.14544 c -2.58787,0 -3.20303,-0.65757 -3.20303,-2.92727 0,-2.60909 0.61516,-2.96969 3.20303,-2.96969 2.58788,0 3.22424,0.3606 3.22424,2.96969 0,2.2697 -0.63636,2.92727 -3.22424,2.92727 z"
       style="font-size:23.3333px;fill:#f0e442;stroke-width:1.17025"
       id="path19699" />
    <path
       d="m 182.7961,152.11103 v -4.28484 h 1.5697 v -2.24848 h -1.5697 v -10.43635 h -2.03636 l -7.7212,10.92423 v 1.7606 h 7.31817 v 4.28484 z m -2.43939,-12.06968 v 5.53636 h -4.15756 z"
       style="font-size:23.3333px;fill:#d55e00;stroke-width:1.17025"
       id="path19701" />
    <path
       d="m 191.45063,152.408 c 4.07272,0 5.49393,-1.56969 5.49393,-5.66363 0,-4.43332 -1.42121,-5.70605 -5.49393,-5.70605 -1.31515,0 -2.29091,0.19091 -3.03333,0.5303 v -0.63636 c 0,-3.03333 0.63636,-3.83939 3.03333,-3.83939 2.20606,0 2.9909,0.38182 2.9909,1.90909 h 2.4606 c 0,-3.05454 -1.65454,-4.15757 -5.4515,-4.15757 -4.05151,0 -5.47272,1.65454 -5.47272,6.08787 v 5.83333 c 0,4.07272 1.42121,5.64241 5.47272,5.64241 z m 0,-2.24848 c -2.39697,0 -3.03333,-0.74242 -3.03333,-3.39393 0,-3.03333 0.63636,-3.47879 3.03333,-3.47879 2.39697,0 3.05454,0.44546 3.05454,3.45757 0,2.67273 -0.65757,3.41515 -3.05454,3.41515 z"
       style="font-size:23.3333px;fill:#f0e442;stroke-width:1.17025"
       id="path19703" />
    <path
       d="m 204.17786,152.408 c 3.94545,0 5.34544,-1.42121 5.34544,-5.04848 0,-2.31211 -0.40303,-3.33029 -1.48484,-4.2212 1.08181,-0.82727 1.48484,-1.61212 1.48484,-3.54242 0,-3.41515 -1.44242,-4.75151 -5.34544,-4.75151 -4.15756,0 -5.34544,1.31515 -5.34544,5.11212 h 2.48181 c 0,-2.33333 0.23334,-2.86364 2.86363,-2.86364 2.33332,0 2.90606,0.55152 2.90606,2.50303 0,2.1 -0.48788,2.26969 -2.50303,2.41818 h -2.14242 v 2.24848 h 2.14242 c 1.97272,0.14848 2.50303,0.50909 2.50303,3.09696 0,2.18485 -0.59394,2.8 -2.90606,2.8 -2.56667,0 -2.88484,-0.59394 -2.88484,-2.88484 h -2.4606 c 0,3.71211 1.20909,5.13332 5.34544,5.13332 z"
       id="path19705"
       style="font-size:23.3333px;fill:#cc79a7;fill-opacity:1;stroke-width:1.17025" />
    <path
       d="m 141.77196,165.00658 h -2.48181 c 0,2.26969 -1.10303,3.28787 -3.39394,3.28787 v 2.26969 c 1.35758,0 2.52424,-0.29697 3.43636,-0.82727 v 9.9909 h -3.01212 v 2.24848 h 8.46363 v -2.24848 h -3.01212 z"
       style="font-size:23.3333px;-inkscape-font-specification:'Victor Mono';fill:#d55e00;stroke-width:1.17025"
       id="path19711" />
    <path
       d="m 153.2689,182.27322 c 1.46364,0 1.9303,-0.44546 1.9303,-1.78182 0,-1.35757 -0.46666,-1.80303 -1.9303,-1.80303 -1.46363,0 -1.9303,0.44546 -1.9303,1.80303 0,1.33636 0.46667,1.78182 1.9303,1.78182 z"
       style="font-size:23.3333px;fill:#f0e442;fill-opacity:1;stroke-width:1.17025"
       id="path19713" />
    <path
       d="m 165.99614,182.27322 c 4.22121,0 5.74847,-1.5697 5.74847,-5.81212 0,-4.43332 -1.52726,-5.83332 -5.74847,-5.83332 -1.08181,0 -1.90908,0.14848 -2.60908,0.48788 v -3.88182 h 7.82725 v -2.22726 h -10.26664 v 9.18483 h 1.99393 c 1.37879,-1.01818 2.01515,-1.31515 3.05454,-1.31515 2.6303,0 3.28788,0.59394 3.28788,3.58484 0,2.82121 -0.65758,3.56364 -3.28788,3.56364 -2.73635,0 -3.01211,-0.55152 -3.01211,-2.88485 h -2.4606 c 0,3.81818 1.20908,5.13333 5.47271,5.13333 z"
       style="font-size:23.3333px;fill:#cc79a7;stroke-width:1.17025"
       id="path19715" />
    <path
       d="m 184.25974,181.97625 v -2.24848 h -8.59089 c 1.0606,-2.71515 8.63332,-4.94242 8.63332,-10.22423 0,-3.54242 -1.48485,-4.79393 -5.59999,-4.79393 -4.30606,0 -5.70606,1.39999 -5.53636,5.43029 h 2.43939 c -0.12727,-2.56666 0.36061,-3.18181 3.09697,-3.18181 2.54545,0 3.1606,0.48788 3.1606,2.54545 0,4.26363 -8.69696,6.08787 -8.69696,10.86059 v 1.61212 z"
       style="font-size:23.3333px;fill:#cc79a7;stroke-width:1.17025"
       id="path19717" />
    <path
       d="m 191.45063,182.27322 c 4.07272,0 5.49393,-1.5697 5.49393,-5.66363 0,-4.43333 -1.42121,-5.70605 -5.49393,-5.70605 -1.31515,0 -2.29091,0.19091 -3.03333,0.5303 v -0.63636 c 0,-3.03333 0.63636,-3.83939 3.03333,-3.83939 2.20606,0 2.9909,0.38182 2.9909,1.90909 h 2.4606 c 0,-3.05455 -1.65454,-4.15757 -5.4515,-4.15757 -4.05151,0 -5.47272,1.65454 -5.47272,6.08787 v 5.83332 c 0,4.07272 1.42121,5.64242 5.47272,5.64242 z m 0,-2.24848 c -2.39697,0 -3.03333,-0.74243 -3.03333,-3.39394 0,-3.03333 0.63636,-3.47878 3.03333,-3.47878 2.39697,0 3.05454,0.44545 3.05454,3.45757 0,2.67272 -0.65757,3.41515 -3.05454,3.41515 z"
       style="font-size:23.3333px;fill:#f0e442;stroke-width:1.17025"
       id="path19719" />
    <path
       d="m 204.17786,182.27322 c 4.22121,0 5.74847,-1.5697 5.74847,-5.81212 0,-4.43332 -1.52727,-5.83332 -5.74847,-5.83332 -1.08181,0 -1.90909,0.14848 -2.60908,0.48788 v -3.88182 h 7.82724 v -2.22726 h -10.26663 v 9.18483 h 1.99393 c 1.37879,-1.01818 2.01515,-1.31515 3.05454,-1.31515 2.6303,0 3.28787,0.59394 3.28787,3.58484 0,2.82121 -0.65757,3.56364 -3.28787,3.56364 -2.73635,0 -3.01211,-0.55152 -3.01211,-2.88485 h -2.4606 c 0,3.81818 1.20909,5.13333 5.47271,5.13333 z"
       style="font-size:23.3333px;-inkscape-font-specification:'Victor Mono';fill:#d55e00;stroke-width:1.17025"
       id="path19721" />
    <path
       style="font-size:23.3333px;fill:none;stroke:#ffffff;stroke-width:2.13543;stroke-linecap:butt;stroke-linejoin:miter;stroke-dasharray:none;stroke-opacity:1"
       d="M 52.17616,8.630215 H 35.16602 V 190.80959 h 17.01014"
       id="path1672-3"
       sodipodi:nodetypes="cccc" />
    <path
       style="font-size:23.3333px;fill:none;stroke:#ffffff;stroke-width:2.13543;stroke-linecap:butt;stroke-linejoin:miter;stroke-dasharray:none;stroke-opacity:1"
       d="M 64.66602,8.630215 H 81.67616 V 190.80959 H 64.66602"
       id="path1723-6"
       sodipodi:nodetypes="cccc" />
    <g
       aria-label="0 1 0 0 0 1"
       id="text5347-7"
       style="font-size:23.4051px;fill:#ffffff;stroke-width:1.17025"
       transform="translate(26.66602,-4.4095121e-4)">
      <path
         d="m 32.340229,33.785325 c 3.212882,0 5.659779,-3.787371 5.659779,-8.808828 0,-5.021458 -2.446897,-8.808829 -5.659779,-8.808829 -3.212882,0 -5.638501,3.787371 -5.638501,8.808829 0,5.021457 2.425619,8.808828 5.638501,8.808828 z m 0,-2.2554 c -1.638357,0 -3.191605,-2.872445 -3.191605,-6.553428 0,-3.680984 1.553248,-6.553428 3.191605,-6.553428 1.638357,0 3.191604,2.872444 3.191604,6.553428 0,3.680983 -1.553247,6.553428 -3.191604,6.553428 z m 0,-4.915071 c 1.021313,0 1.766021,-0.680876 1.766021,-1.638357 0,-0.936204 -0.744708,-1.595803 -1.766021,-1.595803 -1.021314,0 -1.744744,0.659599 -1.744744,1.595803 0,0.957481 0.72343,1.638357 1.744744,1.638357 z"
         style="-inkscape-font-specification:'Victor Mono'"
         id="path18834" />
      <path
         d="m 33.574316,46.422666 h -2.489452 c 0,2.276678 -1.106422,3.297991 -3.404378,3.297991 v 2.276678 c 1.361752,0 2.532007,-0.297883 3.446933,-0.829817 v 10.021638 h -3.021385 v 2.255401 h 8.489668 v -2.255401 h -3.021386 z"
         style="-inkscape-font-specification:'Victor Mono'"
         id="path18836" />
      <path
         d="m 32.340229,93.699555 c 3.212882,0 5.659779,-3.787371 5.659779,-8.808829 0,-5.021457 -2.446897,-8.808828 -5.659779,-8.808828 -3.212882,0 -5.638501,3.787371 -5.638501,8.808828 0,5.021458 2.425619,8.808829 5.638501,8.808829 z m 0,-2.255401 c -1.638357,0 -3.191605,-2.872444 -3.191605,-6.553428 0,-3.680983 1.553248,-6.553428 3.191605,-6.553428 1.638357,0 3.191604,2.872445 3.191604,6.553428 0,3.680984 -1.553247,6.553428 -3.191604,6.553428 z m 0,-4.915071 c 1.021313,0 1.766021,-0.680875 1.766021,-1.638357 0,-0.936204 -0.744708,-1.595802 -1.766021,-1.595802 -1.021314,0 -1.744744,0.659598 -1.744744,1.595802 0,0.957482 0.72343,1.638357 1.744744,1.638357 z"
         style="-inkscape-font-specification:'Victor Mono'"
         id="path18838" />
      <path
         d="m 32.340229,123.65667 c 3.212882,0 5.659779,-3.78737 5.659779,-8.80883 0,-5.02146 -2.446897,-8.80883 -5.659779,-8.80883 -3.212882,0 -5.638501,3.78737 -5.638501,8.80883 0,5.02146 2.425619,8.80883 5.638501,8.80883 z m 0,-2.2554 c -1.638357,0 -3.191605,-2.87244 -3.191605,-6.55343 0,-3.68098 1.553248,-6.55343 3.191605,-6.55343 1.638357,0 3.191604,2.87245 3.191604,6.55343 0,3.68099 -1.553247,6.55343 -3.191604,6.55343 z m 0,-4.91507 c 1.021313,0 1.766021,-0.68088 1.766021,-1.63836 0,-0.9362 -0.744708,-1.5958 -1.766021,-1.5958 -1.021314,0 -1.744744,0.6596 -1.744744,1.5958 0,0.95748 0.72343,1.63836 1.744744,1.63836 z"
         style="-inkscape-font-specification:'Victor Mono'"
         id="path18840" />
      <path
         d="m 32.340229,153.61378 c 3.212882,0 5.659779,-3.78737 5.659779,-8.80882 0,-5.02146 -2.446897,-8.80883 -5.659779,-8.80883 -3.212882,0 -5.638501,3.78737 -5.638501,8.80883 0,5.02145 2.425619,8.80882 5.638501,8.80882 z m 0,-2.2554 c -1.638357,0 -3.191605,-2.87244 -3.191605,-6.55342 0,-3.68099 1.553248,-6.55343 3.191605,-6.55343 1.638357,0 3.191604,2.87244 3.191604,6.55343 0,3.68098 -1.553247,6.55342 -3.191604,6.55342 z m 0,-4.91507 c 1.021313,0 1.766021,-0.68087 1.766021,-1.63835 0,-0.93621 -0.744708,-1.59581 -1.766021,-1.59581 -1.021314,0 -1.744744,0.6596 -1.744744,1.59581 0,0.95748 0.72343,1.63835 1.744744,1.63835 z"
         style="-inkscape-font-specification:'Victor Mono'"
         id="path18842" />
      <path
         d="m 33.574316,166.25113 h -2.489452 c 0,2.27667 -1.106422,3.29799 -3.404378,3.29799 v 2.27667 c 1.361752,0 2.532007,-0.29788 3.446933,-0.82981 v 10.02164 h -3.021385 v 2.2554 h 8.489668 v -2.2554 h -3.021386 z"
         style="-inkscape-font-specification:'Victor Mono'"
         id="path18844" />
    </g>
    <g
       aria-label="+"
       id="text3162"
       style="font-size:46.6667px;font-family:'Victor Mono';-inkscape-font-specification:'Victor Mono';text-align:center;text-anchor:middle;fill:#ffffff;stroke-width:1.95042">
      <path
         d="M 105.85741,98.362412 V 88.01089 h -2.71516 V 98.362412 H 92.79073 v 2.715158 h 10.35152 v 10.35152 h 2.71516 v -10.35152 h 10.35152 v -2.715158 z"
         id="path3261" />
    </g>
    <g
       aria-label="0 1 0 0 1 0"
       id="g8891"
       style="font-size:24.2164px;fill:#e69f00;stroke-width:1.21082"
       transform="matrix(0.45772434,0,0,0.45772434,13.382483,156.79676)" />
  </g>
</svg>
