<?xml version="1.0" encoding="UTF-8" standalone="no"?>
<svg
   version="1.1"
   xml:space="preserve"
   width="189.36"
   height="138.96001"
   viewBox="0 0 315.6 231.60001"
   id="svg2456"
   sodipodi:docname="alanine.svg"
   inkscape:version="1.2.2 (b0a8486541, 2022-12-01)"
   xmlns:inkscape="http://www.inkscape.org/namespaces/inkscape"
   xmlns:sodipodi="http://sodipodi.sourceforge.net/DTD/sodipodi-0.dtd"
   xmlns="http://www.w3.org/2000/svg"
   xmlns:svg="http://www.w3.org/2000/svg"><defs
   id="defs2460" /><sodipodi:namedview
   id="namedview2458"
   pagecolor="#ffffff"
   bordercolor="#666666"
   borderopacity="1.0"
   inkscape:showpageshadow="2"
   inkscape:pageopacity="0.0"
   inkscape:pagecheckerboard="0"
   inkscape:deskcolor="#d1d1d1"
   showgrid="false"
   inkscape:zoom="2.14"
   inkscape:cx="150.23364"
   inkscape:cy="109.11215"
   inkscape:window-width="2346"
   inkscape:window-height="1322"
   inkscape:window-x="0"
   inkscape:window-y="0"
   inkscape:window-maximized="1"
   inkscape:current-layer="svg2456" />
<!-- END OF HEADER -->

<path
   class="bond-0 atom-0 atom-1"
   d="M 248.9,185.5 226.8,147.2"
   style="fill:none;fill-rule:evenodd;stroke:#0000ff;stroke-width:2px;stroke-linecap:butt;stroke-linejoin:miter;stroke-opacity:1"
   id="path2420" />
<path
   class="bond-0 atom-0 atom-1"
   d="M 226.8,147.2 204.6,108.8"
   style="fill:none;fill-rule:evenodd;stroke:#000000;stroke-width:2px;stroke-linecap:butt;stroke-linejoin:miter;stroke-opacity:1"
   id="path2422" />
<path
   class="bond-1 atom-1 atom-2"
   d="m 204.6,108.8 47.5,-98.6 14.2,8.2 z"
   style="fill:#000000;fill-opacity:1;fill-rule:evenodd;stroke:#000000;stroke-width:0.5px;stroke-linecap:butt;stroke-linejoin:miter;stroke-opacity:1"
   id="path2424" />
<path
   class="bond-2 atom-1 atom-3"
   d="M 204.6,108.8 H 95.6"
   style="fill:none;fill-rule:evenodd;stroke:#000000;stroke-width:2px;stroke-linecap:butt;stroke-linejoin:miter;stroke-opacity:1"
   id="path2426" />
<path
   class="bond-3 atom-3 atom-4"
   d="M 95.6,108.8 73.5,147.1"
   style="fill:none;fill-rule:evenodd;stroke:#000000;stroke-width:2px;stroke-linecap:butt;stroke-linejoin:miter;stroke-opacity:1"
   id="path2428" />
<path
   class="bond-3 atom-3 atom-4"
   d="M 73.5,147.1 51.4,185.4"
   style="fill:none;fill-rule:evenodd;stroke:#ff0000;stroke-width:2px;stroke-linecap:butt;stroke-linejoin:miter;stroke-opacity:1"
   id="path2430" />
<path
   class="bond-4 atom-3 atom-5"
   d="M 105,108.8 81.8,68.7"
   style="fill:none;fill-rule:evenodd;stroke:#000000;stroke-width:2px;stroke-linecap:butt;stroke-linejoin:miter;stroke-opacity:1"
   id="path2432" />
<path
   class="bond-4 atom-3 atom-5"
   d="M 81.8,68.7 58.7,28.6"
   style="fill:none;fill-rule:evenodd;stroke:#ff0000;stroke-width:2px;stroke-linecap:butt;stroke-linejoin:miter;stroke-opacity:1"
   id="path2434" />
<path
   class="bond-4 atom-3 atom-5"
   d="M 90.8,117 67.7,76.9"
   style="fill:none;fill-rule:evenodd;stroke:#000000;stroke-width:2px;stroke-linecap:butt;stroke-linejoin:miter;stroke-opacity:1"
   id="path2436" />
<path
   class="bond-4 atom-3 atom-5"
   d="M 67.7,76.9 44.5,36.8"
   style="fill:none;fill-rule:evenodd;stroke:#ff0000;stroke-width:2px;stroke-linecap:butt;stroke-linejoin:miter;stroke-opacity:1"
   id="path2438" />
<path
   d="m 205.8,110.7 -1.2,-1.9 h -5.4"
   style="fill:none;stroke:#000000;stroke-width:2px;stroke-linecap:butt;stroke-linejoin:miter;stroke-opacity:1"
   id="path2440" />
<path
   d="m 101,108.8 h -5.4 l -1.2,1.9"
   style="fill:none;stroke:#000000;stroke-width:2px;stroke-linecap:butt;stroke-linejoin:miter;stroke-opacity:1"
   id="path2442" />
<path
   class="atom-0"
   d="m 252.9,189.1 9.3,15 q 0.9,1.5 2.4,4.2 1.5,2.7 1.6,2.8 v -22 h 3.7 v 28.3 h -3.8 l -10,-16.4 q -1.2,-1.9 -2.4,-4.1 -1.2,-2.2 -1.6,-2.9 v 23.4 h -3.6 v -28.3 h 4.4"
   fill="#0000ff"
   id="path2444" />
<path
   class="atom-0"
   d="m 275.3,189.1 h 3.9 v 12.1 h 14.5 v -12.1 h 3.8 v 28.3 h -3.8 v -13 h -14.5 v 13 h -3.9 v -28.3"
   fill="#0000ff"
   id="path2446" />
<path
   class="atom-0"
   d="m 303,216.4 q 0.7,-1.7 2.4,-2.7 1.6,-1 3.9,-1 2.8,0 4.4,1.5 1.6,1.6 1.6,4.3 0,2.7 -2.1,5.3 -2,2.6 -6.2,5.7 h 8.6 v 2.1 H 303 v -1.8 q 3.5,-2.5 5.5,-4.3 2.1,-1.9 3.1,-3.5 1,-1.7 1,-3.4 0,-1.8 -0.9,-2.8 -0.9,-1 -2.4,-1 -1.5,0 -2.5,0.6 -1,0.6 -1.7,2 l -2.1,-1"
   fill="#0000ff"
   id="path2448" />
<path
   class="atom-4"
   d="m 0,189.3 h 3.9 v 12 h 14.5 v -12 h 3.8 v 28.3 H 18.4 V 204.5 H 3.9 v 13.1 H 0 v -28.3"
   fill="#ff0000"
   id="path2450" />
<path
   class="atom-4"
   d="m 28,203.4 q 0,-6.8 3.4,-10.6 3.3,-3.8 9.6,-3.8 6.3,0 9.6,3.8 3.4,3.8 3.4,10.6 0,6.8 -3.4,10.8 -3.4,3.8 -9.6,3.8 -6.2,0 -9.6,-3.8 Q 28,210.3 28,203.4 m 13,11.4 q 4.3,0 6.6,-2.8 2.4,-3 2.4,-8.6 0,-5.6 -2.4,-8.4 -2.3,-2.8 -6.6,-2.8 -4.3,0 -6.7,2.8 -2.3,2.8 -2.3,8.4 0,5.7 2.3,8.6 2.4,2.8 6.7,2.8"
   fill="#ff0000"
   id="path2452" />
<path
   class="atom-5"
   d="M 28,14.4 Q 28,7.6 31.4,3.8 34.7,0 41,0 q 6.3,0 9.6,3.8 3.4,3.8 3.4,10.6 0,6.9 -3.4,10.8 -3.4,3.9 -9.6,3.9 -6.2,0 -9.6,-3.9 Q 28,21.3 28,14.4 m 13,11.5 q 4.3,0 6.6,-2.9 Q 50,20.1 50,14.4 50,8.8 47.6,6 45.3,3.2 41,3.2 36.7,3.2 34.3,6 32,8.8 32,14.4 q 0,5.7 2.3,8.6 2.4,2.9 6.7,2.9"
   fill="#ff0000"
   id="path2454" />
</svg>
