<?xml version="1.0" encoding="UTF-8" standalone="no"?>
<svg
   version="1.1"
   xml:space="preserve"
   width="800"
   height="400"
   viewBox="0 0 800 400"
   id="svg498"
   sodipodi:docname="alanine_zwitterion.svg"
   inkscape:version="1.2.2 (b0a8486541, 2022-12-01)"
   xmlns:inkscape="http://www.inkscape.org/namespaces/inkscape"
   xmlns:sodipodi="http://sodipodi.sourceforge.net/DTD/sodipodi-0.dtd"
   xmlns="http://www.w3.org/2000/svg"
   xmlns:svg="http://www.w3.org/2000/svg"><defs
   id="defs502" /><sodipodi:namedview
   id="namedview500"
   pagecolor="#ffffff"
   bordercolor="#666666"
   borderopacity="1.0"
   inkscape:showpageshadow="2"
   inkscape:pageopacity="0.0"
   inkscape:pagecheckerboard="0"
   inkscape:deskcolor="#d1d1d1"
   showgrid="false"
   showguides="true"
   inkscape:zoom="2.1385168"
   inkscape:cx="375.02628"
   inkscape:cy="226.09128"
   inkscape:window-width="2346"
   inkscape:window-height="1322"
   inkscape:window-x="0"
   inkscape:window-y="0"
   inkscape:window-maximized="1"
   inkscape:current-layer="svg498"><sodipodi:guide
     position="439.10419,206.9245"
     orientation="0,-1"
     id="guide801"
     inkscape:locked="false" /><sodipodi:guide
     position="392.328,306.94485"
     orientation="0,-1"
     id="guide846"
     inkscape:locked="false" /><sodipodi:guide
     position="491.4995,97.95"
     orientation="0,-1"
     id="guide848"
     inkscape:locked="false" /><sodipodi:guide
     position="517.6485,317.23235"
     orientation="0,-1"
     id="guide850"
     inkscape:locked="false" /><sodipodi:guide
     position="678.04004,82.957829"
     orientation="0,-1"
     id="guide852"
     inkscape:locked="false" /></sodipodi:namedview>
<!-- END OF HEADER -->



















<g
   id="g779"
   transform="translate(0,-8.15)"><path
     class="bond-0 atom-0 atom-1"
     d="m 699.39951,277.7 -22.1,-38.3"
     style="fill:none;fill-rule:evenodd;stroke:#0000ff;stroke-width:2px;stroke-linecap:butt;stroke-linejoin:miter;stroke-opacity:1"
     id="path460" /><path
     class="bond-0 atom-0 atom-1"
     d="m 677.29951,239.4 -22.2,-38.4"
     style="fill:none;fill-rule:evenodd;stroke:#000000;stroke-width:2px;stroke-linecap:butt;stroke-linejoin:miter;stroke-opacity:1"
     id="path462" /><path
     class="bond-1 atom-1 atom-2"
     d="m 655.09951,201 47.5,-98.6 14.2,8.2 z"
     style="fill:#000000;fill-opacity:1;fill-rule:evenodd;stroke:#000000;stroke-width:0.5px;stroke-linecap:butt;stroke-linejoin:miter;stroke-opacity:1"
     id="path464" /><path
     class="bond-2 atom-1 atom-3"
     d="m 655.09951,201 h -109"
     style="fill:none;fill-rule:evenodd;stroke:#000000;stroke-width:2px;stroke-linecap:butt;stroke-linejoin:miter;stroke-opacity:1"
     id="path466" /><path
     class="bond-3 atom-3 atom-4"
     d="m 546.09951,201 -22.1,38.3"
     style="fill:none;fill-rule:evenodd;stroke:#000000;stroke-width:2px;stroke-linecap:butt;stroke-linejoin:miter;stroke-opacity:1"
     id="path468" /><path
     class="bond-3 atom-3 atom-4"
     d="m 523.99951,239.3 -22.1,38.3"
     style="fill:none;fill-rule:evenodd;stroke:#ff0000;stroke-width:2px;stroke-linecap:butt;stroke-linejoin:miter;stroke-opacity:1"
     id="path470" /><path
     class="bond-4 atom-3 atom-5"
     d="m 555.49951,201 -23.2,-40.1"
     style="fill:none;fill-rule:evenodd;stroke:#000000;stroke-width:2px;stroke-linecap:butt;stroke-linejoin:miter;stroke-opacity:1"
     id="path472" /><path
     class="bond-4 atom-3 atom-5"
     d="m 532.29951,160.9 -23.1,-40.1"
     style="fill:none;fill-rule:evenodd;stroke:#ff0000;stroke-width:2px;stroke-linecap:butt;stroke-linejoin:miter;stroke-opacity:1"
     id="path474" /><path
     class="bond-4 atom-3 atom-5"
     d="m 541.29951,209.2 -23.1,-40.1"
     style="fill:none;fill-rule:evenodd;stroke:#000000;stroke-width:2px;stroke-linecap:butt;stroke-linejoin:miter;stroke-opacity:1"
     id="path476" /><path
     class="bond-4 atom-3 atom-5"
     d="M 518.19951,169.1 494.9995,129"
     style="fill:none;fill-rule:evenodd;stroke:#ff0000;stroke-width:2px;stroke-linecap:butt;stroke-linejoin:miter;stroke-opacity:1"
     id="path478" /><path
     d="m 656.29951,202.9 -1.2,-1.9 h -5.4"
     style="fill:none;stroke:#000000;stroke-width:2px;stroke-linecap:butt;stroke-linejoin:miter;stroke-opacity:1"
     id="path480" /><path
     d="m 551.49951,201 h -5.4 l -1.2,1.9"
     style="fill:none;stroke:#000000;stroke-width:2px;stroke-linecap:butt;stroke-linejoin:miter;stroke-opacity:1"
     id="path482" /><path
     class="atom-0"
     d="m 703.39951,281.3 9.3,15 q 0.9,1.5 2.4,4.2 1.5,2.7 1.6,2.8 v -22 h 3.7 v 28.3 h -3.8 l -10,-16.4 q -1.2,-1.9 -2.4,-4.1 -1.2,-2.2 -1.6,-2.9 v 23.4 h -3.6 v -28.3 h 4.4"
     fill="#0000ff"
     id="path484" /><path
     class="atom-0"
     d="m 725.79951,281.3 h 3.8 v 12.1 h 14.5 v -12.1 h 3.8 v 28.3 h -3.8 v -13 h -14.5 v 13 h -3.8 v -28.3"
     fill="#0000ff"
     id="path486" /><path
     class="atom-0"
     d="m 762.39951,313.9 q 1.8,0.6 2.6,1.8 0.9,1.1 0.9,3 0,1.6 -0.7,2.8 -0.8,1.2 -2.3,1.9 -1.4,0.7 -3.3,0.7 -2,0 -3.6,-0.7 -1.4,-0.7 -2.6,-2.2 l 1.5,-1.5 q 1.1,1.3 2.1,1.8 1,0.4 2.6,0.4 1.6,0 2.7,-0.9 1,-0.9 1,-2.4 0,-1.9 -1.1,-2.7 -1,-0.9 -3.3,-0.9 h -1.4 v -1.9 h 1.2 q 2,0 3.1,-0.9 1.1,-0.9 1.1,-2.5 0,-1.2 -0.9,-2 -0.9,-0.7 -2.4,-0.7 -1.6,0 -2.6,0.6 -0.9,0.5 -1.6,1.9 l -1.9,-1 q 0.7,-1.5 2.3,-2.6 1.6,-1 3.8,-1 2.7,0 4.3,1.3 1.6,1.3 1.6,3.5 0,1.5 -0.8,2.6 -0.8,1 -2.3,1.6"
     fill="#0000ff"
     id="path488" /><path
     class="atom-0"
     d="m 753.49951,286.4 h 5 v -5.2 h 2.2 v 5.2 h 5.1 v 1.9 h -5.1 v 5.3 h -2.2 v -5.3 h -5 v -1.9"
     fill="#0000ff"
     id="path490" /><path
     class="atom-4"
     d="m 478.4995,295.6 q 0,-6.8 3.4,-10.6 3.3,-3.8 9.6,-3.8 6.3,0 9.60001,3.8 3.4,3.8 3.4,10.6 0,6.8 -3.4,10.8 -3.40001,3.8 -9.60001,3.8 -6.2,0 -9.6,-3.8 -3.4,-3.9 -3.4,-10.8 m 13,11.4 q 4.3,0 6.6,-2.8 2.4,-3 2.4,-8.6 0,-5.6 -2.4,-8.4 -2.3,-2.8 -6.6,-2.8 -4.3,0 -6.7,2.8 -2.3,2.8 -2.3,8.4 0,5.7 2.3,8.6 2.4,2.8 6.7,2.8"
     fill="#ff0000"
     id="path492" /><path
     class="atom-4"
     d="m 508.49951,285.8 h 9.7 v 2.1 h -9.7 v -2.1"
     fill="#ff0000"
     id="path494" /><path
     class="atom-5"
     d="m 478.4995,106.6 q 0,-6.8 3.4,-10.6 3.3,-3.8 9.6,-3.8 6.3,0 9.60001,3.8 3.4,3.8 3.4,10.6 0,6.9 -3.4,10.8 -3.40001,3.9 -9.60001,3.9 -6.2,0 -9.6,-3.9 -3.4,-3.9 -3.4,-10.8 m 13,11.5 q 4.3,0 6.6,-2.9 2.4,-2.9 2.4,-8.6 0,-5.6 -2.4,-8.4 -2.3,-2.8 -6.6,-2.8 -4.3,0 -6.7,2.8 -2.3,2.8 -2.3,8.4 0,5.7 2.3,8.6 2.4,2.9 6.7,2.9"
     fill="#ff0000"
     id="path496" /></g>
<g
   id="g799"
   transform="translate(0,-8.000001)"><path
     class="bond-0 atom-0 atom-1"
     d="m 300.90094,277.7 -22.1,-38.3"
     style="fill:none;fill-rule:evenodd;stroke:#0000ff;stroke-width:2px;stroke-linecap:butt;stroke-linejoin:miter;stroke-opacity:1"
     id="path4" /><path
     class="bond-0 atom-0 atom-1"
     d="m 278.80094,239.4 -22.2,-38.4"
     style="fill:none;fill-rule:evenodd;stroke:#000000;stroke-width:2px;stroke-linecap:butt;stroke-linejoin:miter;stroke-opacity:1"
     id="path6" /><path
     class="bond-1 atom-1 atom-2"
     d="m 256.60094,201 47.49999,-98.6 14.2,8.2 z"
     style="fill:#000000;fill-opacity:1;fill-rule:evenodd;stroke:#000000;stroke-width:0.5px;stroke-linecap:butt;stroke-linejoin:miter;stroke-opacity:1"
     id="path8" /><path
     class="bond-2 atom-1 atom-3"
     d="m 256.60094,201 h -109"
     style="fill:none;fill-rule:evenodd;stroke:#000000;stroke-width:2px;stroke-linecap:butt;stroke-linejoin:miter;stroke-opacity:1"
     id="path10" /><path
     class="bond-3 atom-3 atom-4"
     d="m 147.60094,201 -22.1,38.3"
     style="fill:none;fill-rule:evenodd;stroke:#000000;stroke-width:2px;stroke-linecap:butt;stroke-linejoin:miter;stroke-opacity:1"
     id="path12" /><path
     class="bond-3 atom-3 atom-4"
     d="m 125.50094,239.3 -22.1,38.3"
     style="fill:none;fill-rule:evenodd;stroke:#ff0000;stroke-width:2px;stroke-linecap:butt;stroke-linejoin:miter;stroke-opacity:1"
     id="path14" /><path
     class="bond-4 atom-3 atom-5"
     d="m 157.00094,201 -23.2,-40.1"
     style="fill:none;fill-rule:evenodd;stroke:#000000;stroke-width:2px;stroke-linecap:butt;stroke-linejoin:miter;stroke-opacity:1"
     id="path16" /><path
     class="bond-4 atom-3 atom-5"
     d="m 133.80094,160.9 -23.1,-40.1"
     style="fill:none;fill-rule:evenodd;stroke:#ff0000;stroke-width:2px;stroke-linecap:butt;stroke-linejoin:miter;stroke-opacity:1"
     id="path18" /><path
     class="bond-4 atom-3 atom-5"
     d="m 142.80094,209.2 -23.1,-40.1"
     style="fill:none;fill-rule:evenodd;stroke:#000000;stroke-width:2px;stroke-linecap:butt;stroke-linejoin:miter;stroke-opacity:1"
     id="path20" /><path
     class="bond-4 atom-3 atom-5"
     d="M 119.70094,169.1 96.500938,129"
     style="fill:none;fill-rule:evenodd;stroke:#ff0000;stroke-width:2px;stroke-linecap:butt;stroke-linejoin:miter;stroke-opacity:1"
     id="path22" /><path
     d="m 257.80094,202.9 -1.2,-1.9 h -5.4"
     style="fill:none;stroke:#000000;stroke-width:2px;stroke-linecap:butt;stroke-linejoin:miter;stroke-opacity:1"
     id="path24" /><path
     d="m 153.00094,201 h -5.4 l -1.2,1.9"
     style="fill:none;stroke:#000000;stroke-width:2px;stroke-linecap:butt;stroke-linejoin:miter;stroke-opacity:1"
     id="path26" /><path
     class="atom-0"
     d="m 304.90093,281.3 9.3,15 q 0.9,1.5 2.4,4.2 1.5,2.7 1.6,2.8 v -22 h 3.7 v 28.3 h -3.8 l -10,-16.4 q -1.2,-1.9 -2.4,-4.1 -1.2,-2.2 -1.6,-2.9 v 23.4 h -3.59999 v -28.3 h 4.39999"
     fill="#0000ff"
     id="path28" /><path
     class="atom-0"
     d="m 327.30093,281.3 h 3.9 v 12.1 h 14.5 v -12.1 h 3.8 v 28.3 h -3.8 v -13 h -14.5 v 13 h -3.9 v -28.3"
     fill="#0000ff"
     id="path30" /><path
     class="atom-0"
     d="m 355.00093,308.6 q 0.7,-1.7 2.4,-2.7 1.6,-1 3.9,-1 2.8,0 4.4,1.5 1.6,1.6 1.6,4.3 0,2.7 -2.1,5.3 -2,2.6 -6.2,5.7 h 8.6 v 2.1 h -12.6 V 322 q 3.5,-2.5 5.5,-4.3 2.1,-1.9 3.1,-3.5 1,-1.7 1,-3.4 0,-1.8 -0.9,-2.8 -0.9,-1 -2.4,-1 -1.5,0 -2.5,0.6 -1,0.6 -1.7,2 l -2.1,-1"
     fill="#0000ff"
     id="path32" /><path
     class="atom-4"
     d="m 52.000938,281.5 h 3.9 v 12 h 14.5 v -12 h 3.8 v 28.3 h -3.8 v -13.1 h -14.5 v 13.1 h -3.9 v -28.3"
     fill="#ff0000"
     id="path34" /><path
     class="atom-4"
     d="m 80.000938,295.6 q 0,-6.8 3.4,-10.6 3.3,-3.8 9.6,-3.8 6.3,0 9.600002,3.8 3.4,3.8 3.4,10.6 0,6.8 -3.4,10.8 -3.400002,3.8 -9.600002,3.8 -6.2,0 -9.6,-3.8 -3.4,-3.9 -3.4,-10.8 m 13,11.4 q 4.3,0 6.6,-2.8 2.400002,-3 2.400002,-8.6 0,-5.6 -2.400002,-8.4 -2.3,-2.8 -6.6,-2.8 -4.3,0 -6.7,2.8 -2.3,2.8 -2.3,8.4 0,5.7 2.3,8.6 2.4,2.8 6.7,2.8"
     fill="#ff0000"
     id="path36" /><path
     class="atom-5"
     d="m 80.000938,106.6 q 0,-6.799998 3.4,-10.599998 3.3,-3.8 9.6,-3.8 6.3,0 9.600002,3.8 3.4,3.8 3.4,10.599998 0,6.9 -3.4,10.8 -3.400002,3.9 -9.600002,3.9 -6.2,0 -9.6,-3.9 -3.4,-3.9 -3.4,-10.8 m 13,11.5 q 4.3,0 6.6,-2.9 2.400002,-2.9 2.400002,-8.6 0,-5.6 -2.400002,-8.399998 -2.3,-2.8 -6.6,-2.8 -4.3,0 -6.7,2.8 -2.3,2.799998 -2.3,8.399998 0,5.7 2.3,8.6 2.4,2.9 6.7,2.9"
     fill="#ff0000"
     id="path38" /></g></svg>
