<?xml version="1.0" encoding="UTF-8" standalone="no"?>
<!-- Created with Inkscape (http://www.inkscape.org/) -->

<svg
   width="71.187332"
   height="110.58888"
   viewBox="0 0 118.64555 184.3148"
   version="1.1"
   id="svg1121"
   inkscape:version="1.2.2 (b0a8486541, 2022-12-01)"
   sodipodi:docname="alanine-message_passing_output.svg"
   xmlns:inkscape="http://www.inkscape.org/namespaces/inkscape"
   xmlns:sodipodi="http://sodipodi.sourceforge.net/DTD/sodipodi-0.dtd"
   xmlns="http://www.w3.org/2000/svg"
   xmlns:svg="http://www.w3.org/2000/svg">
  <sodipodi:namedview
     id="namedview1123"
     pagecolor="#2f9ed2"
     bordercolor="#666666"
     borderopacity="1.0"
     inkscape:showpageshadow="2"
     inkscape:pageopacity="1"
     inkscape:pagecheckerboard="true"
     inkscape:deskcolor="#d1d1d1"
     inkscape:document-units="mm"
     showgrid="false"
     showguides="true"
     inkscape:zoom="6.1774128"
     inkscape:cx="24.44389"
     inkscape:cy="41.522237"
     inkscape:window-width="1173"
     inkscape:window-height="1322"
     inkscape:window-x="0"
     inkscape:window-y="0"
     inkscape:window-maximized="0"
     inkscape:current-layer="layer1" />
  <defs
     id="defs1118">
    <linearGradient
       id="linearGradient6827"
       inkscape:swatch="solid">
      <stop
         style="stop-color:#ffffff;stop-opacity:1;"
         offset="0"
         id="stop6825" />
    </linearGradient>
    <clipPath
       id="p3038539573">
      <rect
         x="0"
         y="0"
         width="460.79999"
         height="345.60001"
         id="rect1052" />
    </clipPath>
    <clipPath
       id="clipPath2534">
      <rect
         x="0"
         y="0"
         width="460.79999"
         height="345.60001"
         id="rect2532" />
    </clipPath>
    <clipPath
       id="clipPath2538">
      <rect
         x="0"
         y="0"
         width="460.79999"
         height="345.60001"
         id="rect2536" />
    </clipPath>
    <clipPath
       id="clipPath2542">
      <rect
         x="0"
         y="0"
         width="460.79999"
         height="345.60001"
         id="rect2540" />
    </clipPath>
    <clipPath
       id="clipPath2546">
      <rect
         x="0"
         y="0"
         width="460.79999"
         height="345.60001"
         id="rect2544" />
    </clipPath>
    <clipPath
       id="clipPath2550">
      <rect
         x="0"
         y="0"
         width="460.79999"
         height="345.60001"
         id="rect2548" />
    </clipPath>
    <clipPath
       id="clipPath2554">
      <rect
         x="0"
         y="0"
         width="460.79999"
         height="345.60001"
         id="rect2552" />
    </clipPath>
    <clipPath
       id="clipPath2558">
      <rect
         x="0"
         y="0"
         width="460.79999"
         height="345.60001"
         id="rect2556" />
    </clipPath>
    <clipPath
       id="clipPath2562">
      <rect
         x="0"
         y="0"
         width="460.79999"
         height="345.60001"
         id="rect2560" />
    </clipPath>
    <clipPath
       id="clipPath2566">
      <rect
         x="0"
         y="0"
         width="460.79999"
         height="345.60001"
         id="rect2564" />
    </clipPath>
    <clipPath
       id="clipPath2570">
      <rect
         x="0"
         y="0"
         width="460.79999"
         height="345.60001"
         id="rect2568" />
    </clipPath>
    <clipPath
       id="clipPath2574">
      <rect
         x="0"
         y="0"
         width="460.79999"
         height="345.60001"
         id="rect2572" />
    </clipPath>
    <clipPath
       clipPathUnits="userSpaceOnUse"
       id="clipPath2429">
      <g
         id="g2433"
         transform="matrix(0.40712238,0,0,0.40710537,76.311405,93.262027)">
        <rect
           x="0.00122843"
           y="7.0451009e-05"
           width="460.78055"
           height="345.59985"
           id="rect2431"
           style="stroke-width:0.999979" />
      </g>
    </clipPath>
    <clipPath
       clipPathUnits="userSpaceOnUse"
       id="clipPath2441">
      <g
         id="g2445"
         transform="matrix(0.40713938,0,0,0.40712238,153.87643,88.967028)">
        <rect
           x="0.00122843"
           y="7.0451009e-05"
           width="460.78055"
           height="345.59985"
           id="rect2443"
           style="stroke-width:0.999979" />
      </g>
    </clipPath>
    <clipPath
       clipPathUnits="userSpaceOnUse"
       id="clipPath2447">
      <g
         id="g2451"
         transform="matrix(0.40713938,0,0,0.40712238,170.60114,46.614038)">
        <rect
           x="0.00122843"
           y="7.0451009e-05"
           width="460.78055"
           height="345.59985"
           id="rect2449"
           style="stroke-width:0.999979" />
      </g>
    </clipPath>
    <clipPath
       clipPathUnits="userSpaceOnUse"
       id="clipPath2399">
      <g
         id="g2403"
         transform="matrix(0.40713938,0,0,0.40712238,157.40498,17.792656)">
        <rect
           x="0.00122843"
           y="7.0451009e-05"
           width="460.78055"
           height="345.59985"
           id="rect2401"
           style="stroke-width:0.999979" />
      </g>
    </clipPath>
    <clipPath
       clipPathUnits="userSpaceOnUse"
       id="clipPath2405">
      <g
         id="g2409"
         transform="matrix(0.40713938,0,0,0.40712238,204.2141,24.344919)">
        <rect
           x="0.00122843"
           y="7.0451009e-05"
           width="460.78055"
           height="345.59985"
           id="rect2407"
           style="stroke-width:0.999979" />
      </g>
    </clipPath>
    <clipPath
       clipPathUnits="userSpaceOnUse"
       id="clipPath2435">
      <g
         id="g2439"
         transform="matrix(0.40713938,0,0,0.40712238,193.11141,83.498923)">
        <rect
           x="0.00122843"
           y="7.0451009e-05"
           width="460.78055"
           height="345.59985"
           id="rect2437"
           style="stroke-width:0.999979" />
      </g>
    </clipPath>
    <clipPath
       clipPathUnits="userSpaceOnUse"
       id="clipPath2423">
      <g
         id="g2427"
         transform="matrix(0.40713938,0,0,0.40712238,202.75681,125.17879)">
        <rect
           x="0.00122843"
           y="7.0451009e-05"
           width="460.78055"
           height="345.59985"
           id="rect2425"
           style="stroke-width:0.999979" />
      </g>
    </clipPath>
    <clipPath
       clipPathUnits="userSpaceOnUse"
       id="clipPath2411">
      <g
         id="g2415"
         transform="matrix(0.40713938,0,0,0.40712238,249.49949,129.79901)">
        <rect
           x="0.00122843"
           y="7.0451009e-05"
           width="460.78055"
           height="345.59985"
           id="rect2413"
           style="stroke-width:0.999979" />
      </g>
    </clipPath>
    <clipPath
       clipPathUnits="userSpaceOnUse"
       id="clipPath2417">
      <g
         id="g2421"
         transform="matrix(0.40713938,0,0,0.40712238,225.21216,160.41)">
        <rect
           x="0.00122843"
           y="7.0451009e-05"
           width="460.78055"
           height="345.59985"
           id="rect2419"
           style="stroke-width:0.999979" />
      </g>
    </clipPath>
    <clipPath
       clipPathUnits="userSpaceOnUse"
       id="clipPath2375">
      <g
         id="g2379"
         transform="matrix(0.40713938,0,0,0.40712238,244.61713,187.12727)">
        <rect
           x="0.00122843"
           y="7.0451009e-05"
           width="460.78055"
           height="345.59985"
           id="rect2377"
           style="stroke-width:0.999979" />
      </g>
    </clipPath>
    <clipPath
       clipPathUnits="userSpaceOnUse"
       id="clipPath2393">
      <g
         id="g2397"
         transform="matrix(0.40712238,0,0,0.40710537,47.996512,117.58777)">
        <rect
           x="0.00122843"
           y="7.0451009e-05"
           width="460.78055"
           height="345.59985"
           id="rect2395"
           style="stroke-width:0.999979" />
      </g>
    </clipPath>
    <clipPath
       clipPathUnits="userSpaceOnUse"
       id="clipPath2387">
      <g
         id="g2391"
         transform="matrix(0.40712238,0,0,0.40710537,23.711485,96.178718)">
        <rect
           x="0.00122843"
           y="7.0451009e-05"
           width="460.78055"
           height="345.59985"
           id="rect2389"
           style="stroke-width:0.999979" />
      </g>
    </clipPath>
    <clipPath
       clipPathUnits="userSpaceOnUse"
       id="clipPath2381">
      <g
         id="g2385"
         transform="matrix(0.40712238,0,0,0.40710537,40.535219,72.277748)">
        <rect
           x="0.00122843"
           y="7.0451009e-05"
           width="460.78055"
           height="345.59985"
           id="rect2383"
           style="stroke-width:0.999979" />
      </g>
    </clipPath>
  </defs>
  <g
     inkscape:label="Layer 1"
     inkscape:groupmode="layer"
     id="layer1"
     transform="translate(-7.432285,-7.5629413)">
    <path
       style="color:#000000;fill:#ffffff;-inkscape-stroke:none"
       d="M 7.4316406,7.5625 V 191.87695 H 25.509766 v -2.13476 H 9.5683594 V 9.6992188 H 25.509766 V 7.5625 Z"
       id="path1672" />
    <path
       style="color:#000000;fill:#ffffff;-inkscape-stroke:none"
       d="m 108,7.5625 v 2.1367188 h 15.94336 V 189.74219 H 108 v 2.13476 h 18.07813 V 7.5625 Z"
       id="path1723" />
    <g
       aria-label="0.531034 
1.168741
0.896153
0.489465
0.846353
1.526545"
       id="text5347"
       style="font-size:23.3333px;fill:#ffffff;stroke-width:1.17025">
      <path
         d="m 21.838505,32.947142 c 3.203026,0 5.642417,-3.775752 5.642417,-8.781805 0,-5.006053 -2.439391,-8.781806 -5.642417,-8.781806 -3.203025,0 -5.621204,3.775753 -5.621204,8.781806 0,5.006053 2.418179,8.781805 5.621204,8.781805 z m 0,-2.248481 c -1.63333,0 -3.181813,-2.863632 -3.181813,-6.533324 0,-3.669692 1.548483,-6.533324 3.181813,-6.533324 1.633331,0 3.181814,2.863632 3.181814,6.533324 0,3.669692 -1.548483,6.533324 -3.181814,6.533324 z m 0,-4.899993 c 1.018181,0 1.760604,-0.678787 1.760604,-1.633331 0,-0.933332 -0.742423,-1.590907 -1.760604,-1.590907 -1.01818,0 -1.739391,0.657575 -1.739391,1.590907 0,0.954544 0.721211,1.633331 1.739391,1.633331 z"
         style="fill:#cc79a7"
         id="path19631" />
      <path
         d="m 34.565748,32.947142 c 1.463634,0 1.9303,-0.445453 1.9303,-1.781815 0,-1.357574 -0.466666,-1.803028 -1.9303,-1.803028 -1.463634,0 -1.9303,0.445454 -1.9303,1.803028 0,1.336362 0.466666,1.781815 1.9303,1.781815 z"
         style="fill:#cc79a7"
         id="path19633" />
      <path
         d="m 47.29299,32.947142 c 4.221206,0 5.748477,-1.569694 5.748477,-5.812112 0,-4.433327 -1.527271,-5.833325 -5.748477,-5.833325 -1.081816,0 -1.909088,0.148484 -2.609087,0.487878 V 17.90777 h 7.827262 V 15.680501 H 42.244513 v 9.184835 h 1.993936 c 1.378786,-1.01818 2.015149,-1.31515 3.054541,-1.31515 2.6303,0 3.287874,0.593939 3.287874,3.584844 0,2.821208 -0.657574,3.563631 -3.287874,3.563631 -2.736359,0 -3.012116,-0.551515 -3.012116,-2.884844 h -2.460603 c 0,3.818176 1.209089,5.133325 5.472719,5.133325 z"
         style="fill:#fffff6"
         id="path19635" />
      <path
         d="m 60.020234,32.947142 c 3.945449,0 5.345447,-1.42121 5.345447,-5.048477 0,-2.312118 -0.40303,-3.330298 -1.484847,-4.221206 1.081817,-0.827272 1.484847,-1.612119 1.484847,-3.542419 0,-3.415147 -1.442422,-4.751509 -5.345447,-4.751509 -4.15757,0 -5.345447,1.31515 -5.345447,5.112114 h 2.481815 c 0,-2.33333 0.233333,-2.863632 2.863632,-2.863632 2.33333,0 2.906056,0.551514 2.906056,2.503027 0,2.099997 -0.487878,2.269693 -2.503026,2.418178 H 58.280842 V 24.8017 h 2.142422 c 1.972724,0.148484 2.503026,0.50909 2.503026,3.096965 0,2.184845 -0.593938,2.799996 -2.906056,2.799996 -2.566663,0 -2.884844,-0.593939 -2.884844,-2.884844 h -2.460603 c 0,3.712115 1.209089,5.133325 5.345447,5.133325 z"
         style="fill:#fffff6"
         id="path19637" />
      <path
         d="m 73.977777,15.680501 h -2.481815 c 0,2.269693 -1.103029,3.287874 -3.393934,3.287874 v 2.269693 c 1.357573,0 2.524238,-0.296969 3.436358,-0.827271 v 9.990895 h -3.012117 v 2.248481 h 8.463624 v -2.248481 h -3.012116 z"
         style="fill:#f0e442"
         id="path19639" />
      <path
         d="m 85.474717,32.947142 c 3.203026,0 5.642416,-3.775752 5.642416,-8.781805 0,-5.006053 -2.43939,-8.781806 -5.642416,-8.781806 -3.203026,0 -5.621204,3.775753 -5.621204,8.781806 0,5.006053 2.418178,8.781805 5.621204,8.781805 z m 0,-2.248481 c -1.633331,0 -3.181814,-2.863632 -3.181814,-6.533324 0,-3.669692 1.548483,-6.533324 3.181814,-6.533324 1.633331,0 3.181813,2.863632 3.181813,6.533324 0,3.669692 -1.548482,6.533324 -3.181813,6.533324 z m 0,-4.899993 c 1.01818,0 1.760603,-0.678787 1.760603,-1.633331 0,-0.933332 -0.742423,-1.590907 -1.760603,-1.590907 -1.01818,0 -1.739392,0.657575 -1.739392,1.590907 0,0.954544 0.721212,1.633331 1.739392,1.633331 z"
         style="fill:#f0e442"
         id="path19641" />
      <path
         d="m 98.201962,32.947142 c 3.945448,0 5.345448,-1.42121 5.345448,-5.048477 0,-2.312118 -0.40303,-3.330298 -1.48485,-4.221206 1.08182,-0.827272 1.48485,-1.612119 1.48485,-3.542419 0,-3.415147 -1.44242,-4.751509 -5.345448,-4.751509 -4.15757,0 -5.345447,1.31515 -5.345447,5.112114 h 2.481815 c 0,-2.33333 0.233333,-2.863632 2.863632,-2.863632 2.333328,0 2.906058,0.551514 2.906058,2.503027 0,2.099997 -0.48788,2.269693 -2.503028,2.418178 H 96.462571 V 24.8017 h 2.142421 c 1.972728,0.148484 2.503028,0.50909 2.503028,3.096965 0,2.184845 -0.59394,2.799996 -2.906058,2.799996 -2.566663,0 -2.884844,-0.593939 -2.884844,-2.884844 h -2.460603 c 0,3.712115 1.20909,5.133325 5.345447,5.133325 z"
         style="fill:#d55e00"
         id="path19643" />
      <path
         d="m 115.00193,32.650173 v -4.284842 h 1.56969 v -2.248482 h -1.56969 V 15.680501 h -2.03637 l -7.7212,10.924226 v 1.760604 h 7.31817 v 4.284842 z m -2.4394,-12.069679 v 5.536355 h -4.15757 z"
         style="fill:#d55e00"
         id="path19645" />
      <path
         d="m 23.068807,45.545716 h -2.481815 c 0,2.269693 -1.103029,3.287874 -3.393934,3.287874 v 2.269693 c 1.357573,0 2.524238,-0.296969 3.436358,-0.827271 v 9.990895 h -3.012117 v 2.248481 h 8.463625 v -2.248481 h -3.012117 z"
         style="-inkscape-font-specification:'Victor Mono'"
         id="path19647" />
      <path
         d="m 34.565748,62.812357 c 1.463634,0 1.9303,-0.445454 1.9303,-1.781815 0,-1.357574 -0.466666,-1.803028 -1.9303,-1.803028 -1.463634,0 -1.9303,0.445454 -1.9303,1.803028 0,1.336361 0.466666,1.781815 1.9303,1.781815 z"
         style="fill:#f0e442"
         id="path19649" />
      <path
         d="m 48.523292,45.545716 h -2.481815 c 0,2.269693 -1.103029,3.287874 -3.393934,3.287874 v 2.269693 c 1.357573,0 2.524238,-0.296969 3.436358,-0.827271 v 9.990895 h -3.012117 v 2.248481 h 8.463625 v -2.248481 h -3.012117 z"
         style="fill:#cc79a7"
         id="path19651" />
      <path
         d="m 60.020234,62.812357 c 4.072721,0 5.493931,-1.569694 5.493931,-5.663628 0,-4.433327 -1.42121,-5.706052 -5.493931,-5.706052 -1.31515,0 -2.290906,0.190909 -3.033329,0.530302 v -0.636363 c 0,-3.033329 0.636363,-3.839388 3.033329,-3.839388 2.206057,0 2.990905,0.381818 2.990905,1.909088 h 2.460602 c 0,-3.054541 -1.654543,-4.15757 -5.451507,-4.15757 -4.051509,0 -5.47272,1.654543 -5.47272,6.08787 v 5.833325 c 0,4.072722 1.421211,5.642416 5.47272,5.642416 z m 0,-2.248481 c -2.396966,0 -3.033329,-0.742423 -3.033329,-3.393935 0,-3.033329 0.636363,-3.478783 3.033329,-3.478783 2.396966,0 3.054541,0.445454 3.054541,3.457571 0,2.672724 -0.657575,3.415147 -3.054541,3.415147 z"
         style="-inkscape-font-specification:'Victor Mono'"
         id="path19653" />
      <path
         d="m 72.747475,62.812357 c 4.15757,0 5.663629,-1.442422 5.663629,-5.17575 0,-2.312118 -0.466666,-3.309086 -1.760604,-4.199994 0.933332,-0.784847 1.272725,-1.612119 1.272725,-3.499995 0,-3.35151 -1.399998,-4.687872 -5.17575,-4.687872 -3.775752,0 -5.154538,1.336362 -5.154538,4.687872 0,1.887876 0.318182,2.715148 1.251514,3.499995 -1.293938,0.890908 -1.739392,1.887876 -1.739392,4.199994 0,3.733328 1.484847,5.17575 5.642416,5.17575 z m 0,-10.393924 c -2.206057,0 -2.715147,-0.254545 -2.715147,-2.481815 0,-1.887876 0.50909,-2.43939 2.715147,-2.43939 2.206058,0 2.73636,0.551514 2.73636,2.43939 0,2.22727 -0.530302,2.481815 -2.73636,2.481815 z m 0,8.145443 c -2.587875,0 -3.203025,-0.657575 -3.203025,-2.927269 0,-2.609087 0.61515,-2.969692 3.203025,-2.969692 2.587875,0 3.224238,0.360605 3.224238,2.969692 0,2.269694 -0.636363,2.927269 -3.224238,2.927269 z"
         style="fill:#d55e00"
         id="path19655" />
      <path
         d="m 84.180779,62.515388 c 1.357574,-5.57878 3.690904,-9.354532 6.745445,-14.721191 V 45.545716 H 79.938361 v 2.248481 h 8.251503 c -2.927268,5.260599 -5.239386,9.312108 -6.512111,14.721191 z"
         style="fill:#f0e442"
         id="path19657" />
      <path
         d="m 102.27468,62.515388 v -4.284842 h 1.5697 v -2.248482 h -1.5697 V 45.545716 h -2.03636 l -7.721198,10.924226 v 1.760604 h 7.318171 v 4.284842 z M 99.835293,50.445709 v 5.536355 h -4.15757 z"
         style="fill:#d55e00"
         id="path19659" />
      <path
         d="m 112.1595,45.545716 h -2.48181 c 0,2.269693 -1.10303,3.287874 -3.39393,3.287874 v 2.269693 c 1.35757,0 2.52423,-0.296969 3.43635,-0.827271 v 9.990895 H 106.708 v 2.248481 h 8.46362 v -2.248481 h -3.01212 z"
         style="fill:#cc79a7"
         id="path19661" />
      <path
         d="m 21.838505,92.677572 c 3.203026,0 5.642417,-3.775752 5.642417,-8.781805 0,-5.006054 -2.439391,-8.781806 -5.642417,-8.781806 -3.203025,0 -5.621204,3.775752 -5.621204,8.781806 0,5.006053 2.418179,8.781805 5.621204,8.781805 z m 0,-2.248481 c -1.63333,0 -3.181813,-2.863633 -3.181813,-6.533324 0,-3.669692 1.548483,-6.533324 3.181813,-6.533324 1.633331,0 3.181814,2.863632 3.181814,6.533324 0,3.669691 -1.548483,6.533324 -3.181814,6.533324 z m 0,-4.899993 c 1.018181,0 1.760604,-0.678787 1.760604,-1.633331 0,-0.933332 -0.742423,-1.590907 -1.760604,-1.590907 -1.01818,0 -1.739391,0.657575 -1.739391,1.590907 0,0.954544 0.721211,1.633331 1.739391,1.633331 z"
         style="fill:#d55e00"
         id="path19663" />
      <path
         d="m 34.565748,92.677572 c 1.463634,0 1.9303,-0.445454 1.9303,-1.781815 0,-1.357574 -0.466666,-1.803028 -1.9303,-1.803028 -1.463634,0 -1.9303,0.445454 -1.9303,1.803028 0,1.336361 0.466666,1.781815 1.9303,1.781815 z"
         style="fill:#d55e00"
         id="path19665" />
      <path
         d="m 47.29299,92.677572 c 4.15757,0 5.663629,-1.442422 5.663629,-5.17575 0,-2.312118 -0.466666,-3.309086 -1.760604,-4.199994 0.933332,-0.784847 1.272726,-1.612119 1.272726,-3.499995 0,-3.35151 -1.399998,-4.687872 -5.175751,-4.687872 -3.775752,0 -5.154538,1.336362 -5.154538,4.687872 0,1.887876 0.318182,2.715148 1.251514,3.499995 -1.293938,0.890908 -1.739392,1.887876 -1.739392,4.199994 0,3.733328 1.484847,5.17575 5.642416,5.17575 z m 0,-10.393924 c -2.206057,0 -2.715147,-0.254545 -2.715147,-2.481815 0,-1.887876 0.50909,-2.43939 2.715147,-2.43939 2.206058,0 2.73636,0.551514 2.73636,2.43939 0,2.22727 -0.530302,2.481815 -2.73636,2.481815 z m 0,8.145443 c -2.587875,0 -3.203025,-0.657575 -3.203025,-2.927269 0,-2.609087 0.61515,-2.969692 3.203025,-2.969692 2.587875,0 3.224238,0.360605 3.224238,2.969692 0,2.269694 -0.636363,2.927269 -3.224238,2.927269 z"
         style="-inkscape-font-specification:'Victor Mono'"
         id="path19667" />
      <path
         d="m 60.020234,92.677572 c 4.072721,0 5.493931,-1.654543 5.493931,-6.08787 v -5.833325 c 0,-4.072721 -1.42121,-5.642416 -5.493931,-5.642416 -4.051509,0 -5.47272,1.569695 -5.47272,5.663629 0,4.433326 1.421211,5.706052 5.47272,5.706052 1.336362,0 2.290906,-0.190909 3.054541,-0.530302 v 0.636362 c 0,3.033329 -0.657575,3.839389 -3.054541,3.839389 -2.206058,0 -2.990905,-0.381818 -2.990905,-1.909088 h -2.460602 c 0,3.054541 1.675755,4.157569 5.451507,4.157569 z m 0,-8.442412 c -2.396966,0 -3.033329,-0.445454 -3.033329,-3.45757 0,-2.672724 0.636363,-3.415147 3.033329,-3.415147 2.396966,0 3.054541,0.721211 3.054541,3.393934 0,3.033329 -0.657575,3.478783 -3.054541,3.478783 z"
         style="fill:#f0e442"
         id="path19669" />
      <path
         d="m 72.747475,92.677572 c 4.072722,0 5.493932,-1.569694 5.493932,-5.663628 0,-4.433327 -1.42121,-5.706052 -5.493932,-5.706052 -1.315149,0 -2.290905,0.190909 -3.033329,0.530302 v -0.636363 c 0,-3.033329 0.636363,-3.839388 3.033329,-3.839388 2.206058,0 2.990905,0.381818 2.990905,1.909088 h 2.460603 c 0,-3.054541 -1.654543,-4.15757 -5.451508,-4.15757 -4.051509,0 -5.472719,1.654543 -5.472719,6.08787 v 5.833325 c 0,4.072722 1.42121,5.642416 5.472719,5.642416 z m 0,-2.248481 c -2.396966,0 -3.033329,-0.742423 -3.033329,-3.393935 0,-3.033329 0.636363,-3.478783 3.033329,-3.478783 2.396967,0 3.054541,0.445454 3.054541,3.457571 0,2.672724 -0.657574,3.415147 -3.054541,3.415147 z"
         style="fill:#cc79a7"
         id="path19671" />
      <path
         d="m 86.705018,75.410931 h -2.481814 c 0,2.269693 -1.103029,3.287874 -3.393935,3.287874 v 2.269693 c 1.357574,0 2.524239,-0.296969 3.436359,-0.827271 v 9.990894 h -3.012117 v 2.248482 h 8.463624 v -2.248482 h -3.012117 z"
         style="fill:#f0e442"
         id="path19673" />
      <path
         d="m 98.201962,92.677572 c 4.221208,0 5.748478,-1.569694 5.748478,-5.812112 0,-4.433327 -1.52727,-5.833325 -5.748478,-5.833325 -1.081816,0 -1.909088,0.148484 -2.609087,0.487878 V 77.6382 h 7.827265 V 75.410931 H 93.153485 v 9.184835 h 1.993936 c 1.378786,-1.018181 2.015149,-1.31515 3.054541,-1.31515 2.630298,0 3.287878,0.593939 3.287878,3.584844 0,2.821208 -0.65758,3.563631 -3.287878,3.563631 -2.736359,0 -3.012117,-0.551515 -3.012117,-2.884845 h -2.460602 c 0,3.818177 1.209089,5.133326 5.472719,5.133326 z"
         id="path19675" />
      <path
         d="m 110.9292,92.677572 c 3.94545,0 5.34545,-1.42121 5.34545,-5.048477 0,-2.312118 -0.40303,-3.330298 -1.48485,-4.221206 1.08182,-0.827272 1.48485,-1.612119 1.48485,-3.542419 0,-3.415147 -1.44242,-4.751509 -5.34545,-4.751509 -4.15757,0 -5.34544,1.31515 -5.34544,5.112114 h 2.48181 c 0,-2.33333 0.23333,-2.863632 2.86363,-2.863632 2.33333,0 2.90606,0.551514 2.90606,2.503027 0,2.099997 -0.48788,2.269693 -2.50303,2.418178 h -2.14242 v 2.248482 h 2.14242 c 1.97273,0.148484 2.50303,0.50909 2.50303,3.096965 0,2.184845 -0.59394,2.799996 -2.90606,2.799996 -2.56666,0 -2.88484,-0.593939 -2.88484,-2.884845 h -2.4606 c 0,3.712116 1.20909,5.133326 5.34544,5.133326 z"
         style="fill:#cc79a7"
         id="path19677" />
      <path
         d="m 21.838505,122.54279 c 3.203026,0 5.642417,-3.77575 5.642417,-8.78181 0,-5.00605 -2.439391,-8.7818 -5.642417,-8.7818 -3.203025,0 -5.621204,3.77575 -5.621204,8.7818 0,5.00606 2.418179,8.78181 5.621204,8.78181 z m 0,-2.24848 c -1.63333,0 -3.181813,-2.86364 -3.181813,-6.53333 0,-3.66969 1.548483,-6.53332 3.181813,-6.53332 1.633331,0 3.181814,2.86363 3.181814,6.53332 0,3.66969 -1.548483,6.53333 -3.181814,6.53333 z m 0,-4.9 c 1.018181,0 1.760604,-0.67878 1.760604,-1.63333 0,-0.93333 -0.742423,-1.59091 -1.760604,-1.59091 -1.01818,0 -1.739391,0.65758 -1.739391,1.59091 0,0.95455 0.721211,1.63333 1.739391,1.63333 z"
         style="-inkscape-font-specification:'Victor Mono'"
         id="path19679" />
      <path
         d="m 34.565748,122.54279 c 1.463634,0 1.9303,-0.44546 1.9303,-1.78182 0,-1.35757 -0.466666,-1.80303 -1.9303,-1.80303 -1.463634,0 -1.9303,0.44546 -1.9303,1.80303 0,1.33636 0.466666,1.78182 1.9303,1.78182 z"
         style="-inkscape-font-specification:'Victor Mono'"
         id="path19681" />
      <path
         d="m 51.365712,122.24582 v -4.28484 h 1.569695 v -2.24849 h -1.569695 v -10.43634 h -2.036361 l -7.721201,10.92422 v 1.76061 h 7.318171 v 4.28484 z m -2.439391,-12.06968 v 5.53635 h -4.157569 z"
         style="fill:#cc79a7"
         id="path19683" />
      <path
         d="m 60.020234,122.54279 c 4.15757,0 5.663628,-1.44242 5.663628,-5.17575 0,-2.31212 -0.466666,-3.30909 -1.760603,-4.2 0.933331,-0.78484 1.272725,-1.61212 1.272725,-3.49999 0,-3.35151 -1.399998,-4.68787 -5.17575,-4.68787 -3.775752,0 -5.154538,1.33636 -5.154538,4.68787 0,1.88787 0.318181,2.71515 1.251513,3.49999 -1.293937,0.89091 -1.739391,1.88788 -1.739391,4.2 0,3.73333 1.484846,5.17575 5.642416,5.17575 z m 0,-10.39393 c -2.206058,0 -2.715148,-0.25454 -2.715148,-2.48181 0,-1.88788 0.50909,-2.43939 2.715148,-2.43939 2.206057,0 2.73636,0.55151 2.73636,2.43939 0,2.22727 -0.530303,2.48181 -2.73636,2.48181 z m 0,8.14545 c -2.587875,0 -3.203026,-0.65758 -3.203026,-2.92727 0,-2.60909 0.615151,-2.9697 3.203026,-2.9697 2.587875,0 3.224238,0.36061 3.224238,2.9697 0,2.26969 -0.636363,2.92727 -3.224238,2.92727 z"
         style="fill:#cc79a7"
         id="path19685" />
      <path
         d="m 72.747475,122.54279 c 4.072722,0 5.493932,-1.65455 5.493932,-6.08787 v -5.83333 c 0,-4.07272 -1.42121,-5.64241 -5.493932,-5.64241 -4.051509,0 -5.472719,1.56969 -5.472719,5.66362 0,4.43333 1.42121,5.70606 5.472719,5.70606 1.336362,0 2.290906,-0.19091 3.054541,-0.53031 v 0.63637 c 0,3.03333 -0.657574,3.83939 -3.054541,3.83939 -2.206057,0 -2.990904,-0.38182 -2.990904,-1.90909 h -2.460603 c 0,3.05454 1.675755,4.15757 5.451507,4.15757 z m 0,-8.44241 c -2.396966,0 -3.033329,-0.44546 -3.033329,-3.45758 0,-2.67272 0.636363,-3.41514 3.033329,-3.41514 2.396967,0 3.054541,0.72121 3.054541,3.39393 0,3.03333 -0.657574,3.47879 -3.054541,3.47879 z"
         style="fill:#d55e00"
         id="path19687" />
      <path
         d="m 89.547438,122.24582 v -4.28484 h 1.569695 v -2.24849 h -1.569695 v -10.43634 h -2.03636 l -7.721201,10.92422 v 1.76061 h 7.318171 v 4.28484 z m -2.43939,-12.06968 v 5.53635 h -4.15757 z"
         style="fill:#d55e00"
         id="path19689" />
      <path
         d="m 98.201962,122.54279 c 4.072718,0 5.493928,-1.5697 5.493928,-5.66363 0,-4.43333 -1.42121,-5.70605 -5.493928,-5.70605 -1.315149,0 -2.290906,0.19091 -3.033329,0.5303 v -0.63636 c 0,-3.03333 0.636363,-3.83939 3.033329,-3.83939 2.206058,0 2.990908,0.38182 2.990908,1.90909 h 2.4606 c 0,-3.05455 -1.65454,-4.15757 -5.451508,-4.15757 -4.051509,0 -5.472719,1.65454 -5.472719,6.08787 v 5.83332 c 0,4.07272 1.42121,5.64242 5.472719,5.64242 z m 0,-2.24848 c -2.396966,0 -3.033329,-0.74243 -3.033329,-3.39394 0,-3.03333 0.636363,-3.47878 3.033329,-3.47878 2.396968,0 3.054538,0.44545 3.054538,3.45757 0,2.67272 -0.65757,3.41515 -3.054538,3.41515 z"
         style="fill:#f0e442"
         id="path19691" />
      <path
         d="m 110.9292,122.54279 c 4.22121,0 5.74848,-1.5697 5.74848,-5.81212 0,-4.43332 -1.52727,-5.83332 -5.74848,-5.83332 -1.08181,0 -1.90908,0.14848 -2.60908,0.48788 v -3.88181 h 7.82726 v -2.22727 h -10.26665 v 9.18483 h 1.99393 c 1.37879,-1.01818 2.01515,-1.31515 3.05454,-1.31515 2.6303,0 3.28788,0.59394 3.28788,3.58484 0,2.82121 -0.65758,3.56364 -3.28788,3.56364 -2.73636,0 -3.01211,-0.55152 -3.01211,-2.88485 h -2.46061 c 0,3.81818 1.20909,5.13333 5.47272,5.13333 z"
         style="fill:#f0e442"
         id="path19693" />
      <path
         d="m 21.838505,152.408 c 3.203026,0 5.642417,-3.77575 5.642417,-8.7818 0,-5.00606 -2.439391,-8.78181 -5.642417,-8.78181 -3.203025,0 -5.621204,3.77575 -5.621204,8.78181 0,5.00605 2.418179,8.7818 5.621204,8.7818 z m 0,-2.24848 c -1.63333,0 -3.181813,-2.86363 -3.181813,-6.53332 0,-3.66969 1.548483,-6.53333 3.181813,-6.53333 1.633331,0 3.181814,2.86364 3.181814,6.53333 0,3.66969 -1.548483,6.53332 -3.181814,6.53332 z m 0,-4.89999 c 1.018181,0 1.760604,-0.67879 1.760604,-1.63333 0,-0.93334 -0.742423,-1.59091 -1.760604,-1.59091 -1.01818,0 -1.739391,0.65757 -1.739391,1.59091 0,0.95454 0.721211,1.63333 1.739391,1.63333 z"
         style="-inkscape-font-specification:'Victor Mono';fill:#cc79a7"
         id="path19695" />
      <path
         d="m 34.565748,152.408 c 1.463634,0 1.9303,-0.44545 1.9303,-1.78181 0,-1.35758 -0.466666,-1.80303 -1.9303,-1.80303 -1.463634,0 -1.9303,0.44545 -1.9303,1.80303 0,1.33636 0.466666,1.78181 1.9303,1.78181 z"
         style="fill:#d55e00"
         id="path19697" />
      <path
         d="m 47.29299,152.408 c 4.15757,0 5.663629,-1.44242 5.663629,-5.17575 0,-2.31212 -0.466666,-3.30908 -1.760604,-4.19999 0.933332,-0.78485 1.272726,-1.61212 1.272726,-3.5 0,-3.35151 -1.399998,-4.68787 -5.175751,-4.68787 -3.775752,0 -5.154538,1.33636 -5.154538,4.68787 0,1.88788 0.318182,2.71515 1.251514,3.5 -1.293938,0.89091 -1.739392,1.88787 -1.739392,4.19999 0,3.73333 1.484847,5.17575 5.642416,5.17575 z m 0,-10.39392 c -2.206057,0 -2.715147,-0.25455 -2.715147,-2.48182 0,-1.88787 0.50909,-2.43939 2.715147,-2.43939 2.206058,0 2.73636,0.55152 2.73636,2.43939 0,2.22727 -0.530302,2.48182 -2.73636,2.48182 z m 0,8.14544 c -2.587875,0 -3.203025,-0.65757 -3.203025,-2.92727 0,-2.60909 0.61515,-2.96969 3.203025,-2.96969 2.587875,0 3.224238,0.3606 3.224238,2.96969 0,2.2697 -0.636363,2.92727 -3.224238,2.92727 z"
         style="fill:#f0e442"
         id="path19699" />
      <path
         d="m 64.092955,152.11103 v -4.28484 h 1.569695 v -2.24848 h -1.569695 v -10.43635 h -2.03636 l -7.721201,10.92423 v 1.7606 h 7.318171 v 4.28484 z m -2.43939,-12.06968 v 5.53636 h -4.15757 z"
         style="fill:#d55e00"
         id="path19701" />
      <path
         d="m 72.747475,152.408 c 4.072722,0 5.493932,-1.56969 5.493932,-5.66363 0,-4.43332 -1.42121,-5.70605 -5.493932,-5.70605 -1.315149,0 -2.290905,0.19091 -3.033329,0.5303 v -0.63636 c 0,-3.03333 0.636363,-3.83939 3.033329,-3.83939 2.206058,0 2.990905,0.38182 2.990905,1.90909 h 2.460603 c 0,-3.05454 -1.654543,-4.15757 -5.451508,-4.15757 -4.051509,0 -5.472719,1.65454 -5.472719,6.08787 v 5.83333 c 0,4.07272 1.42121,5.64241 5.472719,5.64241 z m 0,-2.24848 c -2.396966,0 -3.033329,-0.74242 -3.033329,-3.39393 0,-3.03333 0.636363,-3.47879 3.033329,-3.47879 2.396967,0 3.054541,0.44546 3.054541,3.45757 0,2.67273 -0.657574,3.41515 -3.054541,3.41515 z"
         style="fill:#f0e442"
         id="path19703" />
      <path
         d="m 85.474717,152.408 c 3.945449,0 5.345447,-1.42121 5.345447,-5.04848 0,-2.31211 -0.40303,-3.33029 -1.484847,-4.2212 1.081817,-0.82727 1.484847,-1.61212 1.484847,-3.54242 0,-3.41515 -1.442422,-4.75151 -5.345447,-4.75151 -4.15757,0 -5.345447,1.31515 -5.345447,5.11212 h 2.481815 c 0,-2.33333 0.233333,-2.86364 2.863632,-2.86364 2.33333,0 2.906056,0.55152 2.906056,2.50303 0,2.1 -0.487878,2.26969 -2.503026,2.41818 h -2.142422 v 2.24848 h 2.142422 c 1.972724,0.14848 2.503026,0.50909 2.503026,3.09696 0,2.18485 -0.593938,2.8 -2.906056,2.8 -2.566663,0 -2.884844,-0.59394 -2.884844,-2.88484 H 80.12927 c 0,3.71211 1.209089,5.13332 5.345447,5.13332 z"
         id="path19705" />
      <path
         d="m 98.201962,152.408 c 4.221208,0 5.748478,-1.56969 5.748478,-5.81211 0,-4.43333 -1.52727,-5.83333 -5.748478,-5.83333 -1.081816,0 -1.909088,0.14849 -2.609087,0.48788 v -3.88181 h 7.827265 v -2.22727 H 93.153485 v 9.18484 h 1.993936 c 1.378786,-1.01818 2.015149,-1.31515 3.054541,-1.31515 2.630298,0 3.287878,0.59393 3.287878,3.58484 0,2.82121 -0.65758,3.56363 -3.287878,3.56363 -2.736359,0 -3.012117,-0.55151 -3.012117,-2.88484 h -2.460602 c 0,3.81817 1.209089,5.13332 5.472719,5.13332 z"
         style="fill:#ffffec"
         id="path19707" />
      <path
         d="m 110.9292,152.408 c 3.94545,0 5.34545,-1.42121 5.34545,-5.04848 0,-2.31211 -0.40303,-3.33029 -1.48485,-4.2212 1.08182,-0.82727 1.48485,-1.61212 1.48485,-3.54242 0,-3.41515 -1.44242,-4.75151 -5.34545,-4.75151 -4.15757,0 -5.34544,1.31515 -5.34544,5.11212 h 2.48181 c 0,-2.33333 0.23333,-2.86364 2.86363,-2.86364 2.33333,0 2.90606,0.55152 2.90606,2.50303 0,2.1 -0.48788,2.26969 -2.50303,2.41818 h -2.14242 v 2.24848 h 2.14242 c 1.97273,0.14848 2.50303,0.50909 2.50303,3.09696 0,2.18485 -0.59394,2.8 -2.90606,2.8 -2.56666,0 -2.88484,-0.59394 -2.88484,-2.88484 h -2.4606 c 0,3.71211 1.20909,5.13332 5.34544,5.13332 z"
         style="-inkscape-font-specification:'Victor Mono';fill:#cc79a7"
         id="path19709" />
      <path
         d="m 23.068807,165.00658 h -2.481815 c 0,2.26969 -1.103029,3.28787 -3.393934,3.28787 v 2.26969 c 1.357573,0 2.524238,-0.29697 3.436358,-0.82727 v 9.9909 h -3.012117 v 2.24848 h 8.463625 v -2.24848 h -3.012117 z"
         style="-inkscape-font-specification:'Victor Mono';fill:#d55e00"
         id="path19711" />
      <path
         d="m 34.565748,182.27322 c 1.463634,0 1.9303,-0.44546 1.9303,-1.78182 0,-1.35757 -0.466666,-1.80303 -1.9303,-1.80303 -1.463634,0 -1.9303,0.44546 -1.9303,1.80303 0,1.33636 0.466666,1.78182 1.9303,1.78182 z"
         style="fill:#fbffff"
         id="path19713" />
      <path
         d="m 47.29299,182.27322 c 4.221206,0 5.748477,-1.5697 5.748477,-5.81212 0,-4.43332 -1.527271,-5.83332 -5.748477,-5.83332 -1.081816,0 -1.909088,0.14848 -2.609087,0.48788 v -3.88182 h 7.827262 v -2.22726 H 42.244513 v 9.18483 h 1.993936 c 1.378786,-1.01818 2.015149,-1.31515 3.054541,-1.31515 2.6303,0 3.287874,0.59394 3.287874,3.58484 0,2.82121 -0.657574,3.56364 -3.287874,3.56364 -2.736359,0 -3.012116,-0.55152 -3.012116,-2.88485 h -2.460603 c 0,3.81818 1.209089,5.13333 5.472719,5.13333 z"
         style="fill:#cc79a7"
         id="path19715" />
      <path
         d="m 65.556589,181.97625 v -2.24848 h -8.590896 c 1.060604,-2.71515 8.633321,-4.94242 8.633321,-10.22423 0,-3.54242 -1.484847,-4.79393 -5.599992,-4.79393 -4.306055,0 -5.706053,1.39999 -5.536356,5.43029 h 2.439391 c -0.127273,-2.56666 0.360605,-3.18181 3.096965,-3.18181 2.545451,0 3.160601,0.48788 3.160601,2.54545 0,4.26363 -8.696957,6.08787 -8.696957,10.86059 v 1.61212 z"
         style="fill:#cc79a7"
         id="path19717" />
      <path
         d="m 72.747475,182.27322 c 4.072722,0 5.493932,-1.5697 5.493932,-5.66363 0,-4.43333 -1.42121,-5.70605 -5.493932,-5.70605 -1.315149,0 -2.290905,0.19091 -3.033329,0.5303 v -0.63636 c 0,-3.03333 0.636363,-3.83939 3.033329,-3.83939 2.206058,0 2.990905,0.38182 2.990905,1.90909 h 2.460603 c 0,-3.05455 -1.654543,-4.15757 -5.451508,-4.15757 -4.051509,0 -5.472719,1.65454 -5.472719,6.08787 v 5.83332 c 0,4.07272 1.42121,5.64242 5.472719,5.64242 z m 0,-2.24848 c -2.396966,0 -3.033329,-0.74243 -3.033329,-3.39394 0,-3.03333 0.636363,-3.47878 3.033329,-3.47878 2.396967,0 3.054541,0.44545 3.054541,3.45757 0,2.67272 -0.657574,3.41515 -3.054541,3.41515 z"
         style="fill:#f0e442"
         id="path19719" />
      <path
         d="m 85.474717,182.27322 c 4.221206,0 5.748476,-1.5697 5.748476,-5.81212 0,-4.43332 -1.52727,-5.83332 -5.748476,-5.83332 -1.081817,0 -1.909088,0.14848 -2.609087,0.48788 v -3.88182 h 7.827261 v -2.22726 H 80.426239 v 9.18483 h 1.993937 c 1.378786,-1.01818 2.015148,-1.31515 3.054541,-1.31515 2.630299,0 3.287874,0.59394 3.287874,3.58484 0,2.82121 -0.657575,3.56364 -3.287874,3.56364 -2.73636,0 -3.012117,-0.55152 -3.012117,-2.88485 h -2.460602 c 0,3.81818 1.209089,5.13333 5.472719,5.13333 z"
         style="-inkscape-font-specification:'Victor Mono';fill:#d55e00"
         id="path19721" />
      <path
         d="m 102.27468,181.97625 v -4.28484 h 1.5697 v -2.24849 h -1.5697 v -10.43634 h -2.03636 l -7.721198,10.92422 v 1.76061 h 7.318171 v 4.28484 z m -2.439387,-12.06968 v 5.53635 h -4.15757 z"
         style="fill:#f0e442"
         id="path19723" />
      <path
         d="m 110.9292,182.27322 c 4.22121,0 5.74848,-1.5697 5.74848,-5.81212 0,-4.43332 -1.52727,-5.83332 -5.74848,-5.83332 -1.08181,0 -1.90908,0.14848 -2.60908,0.48788 v -3.88182 h 7.82726 v -2.22726 h -10.26665 v 9.18483 h 1.99393 c 1.37879,-1.01818 2.01515,-1.31515 3.05454,-1.31515 2.6303,0 3.28788,0.59394 3.28788,3.58484 0,2.82121 -0.65758,3.56364 -3.28788,3.56364 -2.73636,0 -3.01211,-0.55152 -3.01211,-2.88485 h -2.46061 c 0,3.81818 1.20909,5.13333 5.47272,5.13333 z"
         id="path19725" />
    </g>
    <g
       aria-label="0 1 0 0 1 0"
       id="g8891"
       style="font-size:24.2164px;fill:#e69f00;stroke-width:1.21082"
       transform="matrix(0.45772434,0,0,0.45772434,13.382483,156.79676)" />
  </g>
</svg>
